<svg width="28" height="28" viewBox="0 0 20 20" fill="none" xmlns="http://www.w3.org/2000/svg">
<path fill-rule="evenodd" clip-rule="evenodd" d="M16.9059 4.3691C17.2301 4.3691 17.5 4.63826 17.5 4.98076V5.29742C17.5 5.63159 17.2301 5.90908 16.9059 5.90908H3.09488C2.76988 5.90908 2.5 5.63159 2.5 5.29742V4.98076C2.5 4.63826 2.76988 4.3691 3.09488 4.3691H5.52464C6.01821 4.3691 6.44775 4.01827 6.55879 3.52327L6.68603 2.95495C6.88378 2.18079 7.53458 1.66663 8.27939 1.66663H11.7206C12.4573 1.66663 13.1154 2.18079 13.3059 2.91411L13.442 3.52244C13.5522 4.01827 13.9818 4.3691 14.4762 4.3691H16.9059ZM15.6723 15.945C15.926 13.5808 16.3701 7.96422 16.3701 7.90755C16.3863 7.73589 16.3304 7.57339 16.2194 7.44256C16.1002 7.32006 15.9495 7.24756 15.7834 7.24756H4.22457C4.05761 7.24756 3.89876 7.32006 3.78854 7.44256C3.67669 7.57339 3.62158 7.73589 3.62969 7.90755C3.63118 7.91796 3.64711 8.1158 3.67376 8.44656C3.79211 9.91592 4.12177 14.0084 4.33479 15.945C4.48553 17.3716 5.42162 18.2683 6.77752 18.3008C7.82382 18.3249 8.90173 18.3333 10.004 18.3333C11.0422 18.3333 12.0966 18.3249 13.1753 18.3008C14.5782 18.2766 15.5135 17.3958 15.6723 15.945Z" fill="#E71D36"/>
</svg>
