<svg width="330" height="200" viewBox="0 0 298 183" fill="none" xmlns="http://www.w3.org/2000/svg">
<rect width="297.106" height="183" rx="14.5238" fill="#312ECB"/>
<mask id="mask0_255_575" style="mask-type:alpha" maskUnits="userSpaceOnUse" x="0" y="0" width="298" height="183">
<rect width="297.106" height="183" rx="14.5238" fill="#C4C4C4"/>
</mask>
<g mask="url(#mask0_255_575)">
<circle cx="13.9949" cy="19.3763" r="58.6676" stroke="white" stroke-opacity="0.15" stroke-width="1.07647"/>
<circle cx="13.4562" cy="18.8381" r="105.494" stroke="white" stroke-opacity="0.15" stroke-width="1.07647"/>
<circle cx="13.4579" cy="18.838" r="153.935" stroke="white" stroke-opacity="0.15" stroke-width="1.07647"/>
<circle cx="13.9946" cy="19.3763" r="205.068" stroke="white" stroke-opacity="0.15" stroke-width="1.07647"/>
<circle cx="13.457" cy="18.8381" r="256.2" stroke="white" stroke-opacity="0.15" stroke-width="1.07647"/>
</g>
<path d="M27.6948 37.9644C27.5843 37.9644 27.4939 37.9342 27.4236 37.8739C27.3532 37.8036 27.3181 37.7132 27.3181 37.6027V27.7917C27.3181 27.6812 27.3532 27.5908 27.4236 27.5204C27.4939 27.4501 27.5843 27.4149 27.6948 27.4149H28.8854C29.0964 27.4149 29.2471 27.5104 29.3375 27.7013L32.2462 33.1267L35.1849 27.7013C35.2854 27.5104 35.4361 27.4149 35.6371 27.4149H36.8126C36.9231 27.4149 37.0135 27.4501 37.0838 27.5204C37.1542 27.5908 37.1893 27.6812 37.1893 27.7917V37.6027C37.1893 37.7132 37.1542 37.8036 37.0838 37.8739C37.0135 37.9342 36.9231 37.9644 36.8126 37.9644H35.5466C35.4462 37.9644 35.3608 37.9292 35.2904 37.8589C35.2201 37.7885 35.1849 37.7031 35.1849 37.6027V31.0771L33.075 35.1009C32.9444 35.322 32.7736 35.4325 32.5626 35.4325H31.9448C31.7338 35.4325 31.563 35.322 31.4324 35.1009L29.3225 31.0771V37.6027C29.3225 37.7031 29.2873 37.7885 29.217 37.8589C29.1567 37.9292 29.0713 37.9644 28.9608 37.9644H27.6948ZM41.6283 38.1151C41.1159 38.1151 40.6437 38.0146 40.2117 37.8136C39.7897 37.6027 39.4531 37.3213 39.2019 36.9697C38.9608 36.618 38.8403 36.2312 38.8403 35.8093C38.8403 35.1261 39.1165 34.5735 39.6691 34.1515C40.2217 33.7295 40.9803 33.4432 41.9448 33.2925L44.0095 32.9911V32.6746C44.0095 32.2325 43.899 31.901 43.6779 31.6799C43.4569 31.4589 43.1002 31.3484 42.6079 31.3484C42.2764 31.3484 42.0051 31.4137 41.7941 31.5443C41.5932 31.6648 41.4324 31.7854 41.3118 31.906C41.1913 32.0366 41.1109 32.122 41.0707 32.1622C41.0305 32.2827 40.9552 32.343 40.8446 32.343H39.6842C39.5938 32.343 39.5134 32.3129 39.4431 32.2526C39.3828 32.1923 39.3527 32.1119 39.3527 32.0115C39.3627 31.7603 39.4833 31.474 39.7144 31.1524C39.9555 30.8309 40.3222 30.5546 40.8145 30.3236C41.3068 30.0925 41.9096 29.9769 42.623 29.9769C43.8085 29.9769 44.6726 30.2432 45.2151 30.7757C45.7577 31.3082 46.0289 32.0064 46.0289 32.8705V37.6027C46.0289 37.7031 45.9938 37.7885 45.9234 37.8589C45.8632 37.9292 45.7778 37.9644 45.6672 37.9644H44.4465C44.346 37.9644 44.2606 37.9292 44.1903 37.8589C44.12 37.7885 44.0848 37.7031 44.0848 37.6027V37.0149C43.8638 37.3364 43.5473 37.6027 43.1354 37.8136C42.7335 38.0146 42.2311 38.1151 41.6283 38.1151ZM42.1407 36.6834C42.6933 36.6834 43.1454 36.5025 43.4971 36.1408C43.8487 35.7791 44.0245 35.2516 44.0245 34.5584V34.2419L42.5175 34.483C41.9348 34.5735 41.4927 34.7192 41.1913 34.9201C40.8999 35.121 40.7542 35.3672 40.7542 35.6586C40.7542 35.9801 40.8899 36.2312 41.1611 36.4121C41.4324 36.5929 41.7589 36.6834 42.1407 36.6834ZM50.9312 38.1151C50.1777 38.1151 49.5447 38.0045 49.0323 37.7835C48.5199 37.5524 48.1381 37.2862 47.887 36.9848C47.6458 36.6733 47.5253 36.4071 47.5253 36.186C47.5253 36.0856 47.5604 36.0052 47.6308 35.9449C47.7011 35.8846 47.7815 35.8545 47.8719 35.8545H49.0625C49.1529 35.8545 49.2282 35.8896 49.2885 35.96C49.3287 35.9901 49.4342 36.0805 49.605 36.2312C49.7758 36.392 49.9768 36.5176 50.2078 36.608C50.4389 36.6984 50.6951 36.7436 50.9764 36.7436C51.3783 36.7436 51.7099 36.6633 51.9711 36.5025C52.2323 36.3418 52.3629 36.1207 52.3629 35.8394C52.3629 35.6284 52.3026 35.4576 52.1821 35.327C52.0716 35.1964 51.8656 35.0808 51.5642 34.9804C51.2628 34.8699 50.8157 34.7543 50.2229 34.6338C49.3689 34.4529 48.7359 34.1766 48.324 33.8049C47.9221 33.4331 47.7212 32.9408 47.7212 32.328C47.7212 31.9261 47.8418 31.5493 48.0829 31.1977C48.324 30.836 48.6807 30.5446 49.1529 30.3236C49.6352 30.0925 50.2078 29.9769 50.8709 29.9769C51.5441 29.9769 52.1268 30.0875 52.6191 30.3085C53.1114 30.5195 53.4832 30.7757 53.7344 31.0771C53.9956 31.3685 54.1262 31.6297 54.1262 31.8608C54.1262 31.9512 54.091 32.0316 54.0207 32.1019C53.9604 32.1622 53.8851 32.1923 53.7946 32.1923H52.6794C52.599 32.1923 52.5136 32.1572 52.4232 32.0868C52.3529 32.0366 52.2424 31.9411 52.0917 31.8005C51.941 31.6598 51.7651 31.5493 51.5642 31.4689C51.3632 31.3886 51.1271 31.3484 50.8559 31.3484C50.4841 31.3484 50.1928 31.4287 49.9818 31.5895C49.7808 31.7502 49.6804 31.9612 49.6804 32.2225C49.6804 32.4134 49.7306 32.5691 49.8311 32.6896C49.9315 32.8102 50.1275 32.9258 50.4188 33.0363C50.7102 33.1468 51.1472 33.2573 51.73 33.3678C52.6945 33.5587 53.3827 33.8551 53.7946 34.257C54.2166 34.6589 54.4276 35.1512 54.4276 35.7339C54.4276 36.4372 54.1212 37.0099 53.5083 37.452C52.8954 37.894 52.0364 38.1151 50.9312 38.1151ZM59.4954 37.9644C58.5812 37.9644 57.8929 37.7282 57.4308 37.256C56.9787 36.7738 56.7526 36.0705 56.7526 35.1462V31.7251H55.562C55.4615 31.7251 55.3761 31.69 55.3058 31.6196C55.2355 31.5393 55.2003 31.4488 55.2003 31.3484V30.4893C55.2003 30.3889 55.2355 30.3035 55.3058 30.2331C55.3761 30.1628 55.4615 30.1276 55.562 30.1276H56.7526V27.6259C56.7526 27.5154 56.7878 27.43 56.8581 27.3697C56.9284 27.2994 57.0138 27.2642 57.1143 27.2642H58.335C58.4455 27.2642 58.5309 27.2994 58.5912 27.3697C58.6615 27.43 58.6967 27.5154 58.6967 27.6259V30.1276H60.5805C60.691 30.1276 60.7764 30.1628 60.8367 30.2331C60.9071 30.2934 60.9422 30.3788 60.9422 30.4893V31.3484C60.9422 31.4589 60.9071 31.5493 60.8367 31.6196C60.7664 31.69 60.681 31.7251 60.5805 31.7251H58.6967V34.9954C58.6967 35.4275 58.7721 35.754 58.9228 35.975C59.0735 36.1961 59.3246 36.3066 59.6763 36.3066H60.7162C60.8166 36.3066 60.902 36.3418 60.9724 36.4121C61.0427 36.4824 61.0779 36.5678 61.0779 36.6683V37.6027C61.0779 37.7031 61.0427 37.7885 60.9724 37.8589C60.9121 37.9292 60.8267 37.9644 60.7162 37.9644H59.4954ZM65.7906 38.1151C64.6754 38.1151 63.7862 37.7936 63.1231 37.1505C62.47 36.4975 62.1234 35.5832 62.0832 34.4077L62.0682 34.0309L62.0832 33.6542C62.1335 32.5088 62.4851 31.6096 63.1382 30.9565C63.8013 30.3035 64.6854 29.9769 65.7906 29.9769C66.9761 29.9769 67.8904 30.3386 68.5334 31.062C69.1865 31.7854 69.513 32.7499 69.513 33.9556V34.2721C69.513 34.3725 69.4779 34.4579 69.4075 34.5283C69.3372 34.5986 69.2468 34.6338 69.1363 34.6338H64.1328V34.7543C64.1529 35.3069 64.3036 35.7741 64.5849 36.1559C64.8763 36.5276 65.2732 36.7135 65.7755 36.7135C66.3683 36.7135 66.8455 36.4824 67.2072 36.0202C67.2977 35.9097 67.368 35.8394 67.4182 35.8093C67.4785 35.7791 67.5639 35.764 67.6744 35.764H68.9705C69.0609 35.764 69.1363 35.7942 69.1965 35.8545C69.2669 35.9047 69.302 35.97 69.302 36.0504C69.302 36.2915 69.1564 36.5779 68.865 36.9094C68.5837 37.2309 68.1768 37.5122 67.6443 37.7534C67.1118 37.9945 66.4939 38.1151 65.7906 38.1151ZM67.4634 33.3678V33.3226C67.4634 32.7298 67.3127 32.2526 67.0113 31.8909C66.7199 31.5292 66.313 31.3484 65.7906 31.3484C65.2681 31.3484 64.8612 31.5292 64.5699 31.8909C64.2785 32.2526 64.1328 32.7298 64.1328 33.3226V33.3678H67.4634ZM71.4744 37.9644C71.374 37.9644 71.2886 37.9292 71.2182 37.8589C71.1479 37.7885 71.1127 37.7031 71.1127 37.6027V30.5044C71.1127 30.4039 71.1479 30.3185 71.2182 30.2482C71.2886 30.1678 71.374 30.1276 71.4744 30.1276H72.6952C72.8057 30.1276 72.8961 30.1628 72.9664 30.2331C73.0368 30.3035 73.0719 30.3939 73.0719 30.5044V31.1223C73.3131 30.8008 73.6145 30.5546 73.9762 30.3838C74.3479 30.213 74.7699 30.1276 75.2421 30.1276H75.86C75.9705 30.1276 76.0559 30.1628 76.1162 30.2331C76.1865 30.2934 76.2217 30.3788 76.2217 30.4893V31.5744C76.2217 31.6749 76.1865 31.7603 76.1162 31.8306C76.0559 31.901 75.9705 31.9361 75.86 31.9361H74.6845C74.2123 31.9361 73.8405 32.0718 73.5693 32.343C73.298 32.6143 73.1623 32.986 73.1623 33.4582V37.6027C73.1623 37.7031 73.1272 37.7885 73.0569 37.8589C72.9865 37.9292 72.8961 37.9644 72.7856 37.9644H71.4744ZM84.7671 38.1151C83.3806 38.1151 82.3055 37.7584 81.5419 37.045C80.7884 36.3317 80.3865 35.327 80.3363 34.0309C80.3263 33.7597 80.3212 33.3176 80.3212 32.7047C80.3212 32.0818 80.3263 31.6297 80.3363 31.3484C80.3865 30.0623 80.7934 29.0627 81.557 28.3493C82.3306 27.6259 83.4007 27.2642 84.7671 27.2642C85.6612 27.2642 86.4399 27.42 87.103 27.7314C87.7661 28.0328 88.2785 28.4498 88.6402 28.9823C89.0019 29.5047 89.1928 30.0975 89.2129 30.7606V30.7908C89.2129 30.8711 89.1777 30.9415 89.1074 31.0017C89.0471 31.052 88.9768 31.0771 88.8964 31.0771H87.4647C87.3441 31.0771 87.2537 31.052 87.1934 31.0017C87.1331 30.9515 87.0829 30.8561 87.0427 30.7154C86.882 30.0824 86.6157 29.6404 86.244 29.3892C85.8722 29.128 85.3749 28.9974 84.752 28.9974C83.3052 28.9974 82.5517 29.8061 82.4914 31.4237C82.4813 31.695 82.4763 32.1119 82.4763 32.6746C82.4763 33.2372 82.4813 33.6642 82.4914 33.9556C82.5517 35.5732 83.3052 36.3819 84.752 36.3819C85.3749 36.3819 85.8722 36.2513 86.244 35.9901C86.6258 35.7289 86.892 35.2868 87.0427 34.6639C87.0729 34.5232 87.1181 34.4278 87.1783 34.3776C87.2487 34.3273 87.3441 34.3022 87.4647 34.3022H88.8964C88.9868 34.3022 89.0622 34.3323 89.1225 34.3926C89.1928 34.4529 89.2229 34.5283 89.2129 34.6187C89.1928 35.2818 89.0019 35.8796 88.6402 36.4121C88.2785 36.9345 87.7661 37.3515 87.103 37.6629C86.4399 37.9644 85.6612 38.1151 84.7671 38.1151ZM93.095 38.1151C92.5826 38.1151 92.1104 38.0146 91.6783 37.8136C91.2564 37.6027 90.9198 37.3213 90.6686 36.9697C90.4275 36.618 90.3069 36.2312 90.3069 35.8093C90.3069 35.1261 90.5832 34.5735 91.1358 34.1515C91.6884 33.7295 92.4469 33.4432 93.4114 33.2925L95.4761 32.9911V32.6746C95.4761 32.2325 95.3656 31.901 95.1446 31.6799C94.9235 31.4589 94.5669 31.3484 94.0746 31.3484C93.743 31.3484 93.4717 31.4137 93.2607 31.5443C93.0598 31.6648 92.899 31.7854 92.7785 31.906C92.6579 32.0366 92.5775 32.122 92.5374 32.1622C92.4972 32.2827 92.4218 32.343 92.3113 32.343H91.1509C91.0604 32.343 90.9801 32.3129 90.9097 32.2526C90.8494 32.1923 90.8193 32.1119 90.8193 32.0115C90.8294 31.7603 90.9499 31.474 91.181 31.1524C91.4221 30.8309 91.7888 30.5546 92.2812 30.3236C92.7735 30.0925 93.3763 29.9769 94.0896 29.9769C95.2752 29.9769 96.1392 30.2432 96.6818 30.7757C97.2243 31.3082 97.4956 32.0064 97.4956 32.8705V37.6027C97.4956 37.7031 97.4604 37.7885 97.3901 37.8589C97.3298 37.9292 97.2444 37.9644 97.1339 37.9644H95.9132C95.8127 37.9644 95.7273 37.9292 95.657 37.8589C95.5866 37.7885 95.5515 37.7031 95.5515 37.6027V37.0149C95.3304 37.3364 95.014 37.6027 94.602 37.8136C94.2001 38.0146 93.6978 38.1151 93.095 38.1151ZM93.6074 36.6834C94.16 36.6834 94.6121 36.5025 94.9637 36.1408C95.3154 35.7791 95.4912 35.2516 95.4912 34.5584V34.2419L93.9841 34.483C93.4014 34.5735 92.9593 34.7192 92.6579 34.9201C92.3666 35.121 92.2209 35.3672 92.2209 35.6586C92.2209 35.9801 92.3565 36.2312 92.6278 36.4121C92.899 36.5929 93.2256 36.6834 93.6074 36.6834ZM99.7907 37.9644C99.6902 37.9644 99.6048 37.9292 99.5345 37.8589C99.4641 37.7885 99.429 37.7031 99.429 37.6027V30.5044C99.429 30.4039 99.4641 30.3185 99.5345 30.2482C99.6048 30.1678 99.6902 30.1276 99.7907 30.1276H101.011C101.122 30.1276 101.212 30.1628 101.283 30.2331C101.353 30.3035 101.388 30.3939 101.388 30.5044V31.1223C101.629 30.8008 101.931 30.5546 102.292 30.3838C102.664 30.213 103.086 30.1276 103.558 30.1276H104.176C104.287 30.1276 104.372 30.1628 104.432 30.2331C104.503 30.2934 104.538 30.3788 104.538 30.4893V31.5744C104.538 31.6749 104.503 31.7603 104.432 31.8306C104.372 31.901 104.287 31.9361 104.176 31.9361H103.001C102.528 31.9361 102.157 32.0718 101.885 32.343C101.614 32.6143 101.479 32.986 101.479 33.4582V37.6027C101.479 37.7031 101.443 37.7885 101.373 37.8589C101.303 37.9292 101.212 37.9644 101.102 37.9644H99.7907ZM108.504 38.1151C107.489 38.1151 106.711 37.7885 106.168 37.1355C105.626 36.4824 105.334 35.6133 105.294 34.5283L105.279 34.0309L105.294 33.5487C105.324 32.4937 105.611 31.6347 106.153 30.9716C106.706 30.3085 107.489 29.9769 108.504 29.9769C109.479 29.9769 110.252 30.3085 110.825 30.9716V27.6259C110.825 27.5154 110.86 27.43 110.931 27.3697C111.001 27.2994 111.086 27.2642 111.187 27.2642H112.468C112.578 27.2642 112.664 27.2994 112.724 27.3697C112.794 27.43 112.829 27.5154 112.829 27.6259V37.6027C112.829 37.7031 112.794 37.7885 112.724 37.8589C112.664 37.9292 112.578 37.9644 112.468 37.9644H111.277C111.177 37.9644 111.091 37.9292 111.021 37.8589C110.951 37.7885 110.915 37.7031 110.915 37.6027V37.045C110.343 37.7584 109.539 38.1151 108.504 38.1151ZM109.062 36.5025C109.645 36.5025 110.077 36.3166 110.358 35.9449C110.639 35.5732 110.795 35.116 110.825 34.5735C110.835 34.4529 110.84 34.257 110.84 33.9857C110.84 33.7245 110.835 33.5336 110.825 33.413C110.805 32.9107 110.644 32.4837 110.343 32.132C110.051 31.7703 109.624 31.5895 109.062 31.5895C107.977 31.5895 107.399 32.2576 107.329 33.5939L107.314 34.046L107.329 34.4981C107.399 35.8344 107.977 36.5025 109.062 36.5025Z" fill="white"/>
<circle cx="240.052" cy="33.9772" r="12.9176" fill="white" fill-opacity="0.4"/>
<circle cx="257.277" cy="33.9772" r="12.9176" fill="white" fill-opacity="0.4"/>
<path d="M32.7306 120.737C31.5393 120.737 30.513 120.536 29.6519 120.134C28.805 119.732 28.152 119.201 27.6927 118.541C27.2478 117.881 27.0109 117.17 26.9822 116.409V116.366C26.9822 116.252 27.0253 116.158 27.1114 116.087C27.1975 116.015 27.3052 115.979 27.4343 115.979H29.4366C29.7667 115.979 29.982 116.122 30.0825 116.409C30.2834 117.041 30.6135 117.507 31.0728 117.809C31.5465 118.11 32.099 118.261 32.7306 118.261C33.5343 118.261 34.2018 118.017 34.7328 117.529C35.2782 117.041 35.5509 116.359 35.5509 115.484C35.5509 114.709 35.2782 114.077 34.7328 113.589C34.2018 113.101 33.5343 112.857 32.7306 112.857C32.3 112.857 31.9483 112.915 31.6756 113.029C31.4029 113.144 31.1374 113.302 30.879 113.503C30.7068 113.632 30.5705 113.725 30.47 113.783C30.3839 113.826 30.2762 113.847 30.147 113.847H28.1663C28.0372 113.847 27.9223 113.804 27.8219 113.718C27.7358 113.618 27.6927 113.503 27.6927 113.374L28.4462 106.011C28.4606 105.839 28.518 105.702 28.6185 105.602C28.7333 105.487 28.8768 105.429 29.049 105.429H37.1441C37.2876 105.429 37.4096 105.48 37.5101 105.58C37.6106 105.681 37.6608 105.803 37.6608 105.946V107.389C37.6608 107.532 37.6106 107.654 37.5101 107.755C37.4096 107.855 37.2876 107.905 37.1441 107.905H30.9221L30.5776 111.415C31.2809 110.927 32.221 110.683 33.398 110.683C34.3309 110.683 35.1921 110.884 35.9815 111.285C36.7853 111.673 37.424 112.24 37.8976 112.986C38.3713 113.718 38.6081 114.572 38.6081 115.548C38.6081 116.596 38.3641 117.515 37.8761 118.304C37.3881 119.079 36.6992 119.682 35.8093 120.113C34.9338 120.529 33.9075 120.737 32.7306 120.737ZM43.7777 120.5C43.6342 120.5 43.5122 120.45 43.4117 120.349C43.3112 120.249 43.261 120.127 43.261 119.983V118.885C43.261 118.498 43.4404 118.161 43.7992 117.873L47.2009 114.493C48.6792 113.331 49.7055 112.427 50.2796 111.781C50.868 111.12 51.1623 110.475 51.1623 109.843C51.1623 109.168 50.9757 108.637 50.6025 108.25C50.2437 107.862 49.6983 107.669 48.9663 107.669C48.2486 107.669 47.6817 107.884 47.2655 108.314C46.8492 108.731 46.5909 109.276 46.4904 109.951C46.4473 110.123 46.3684 110.252 46.2536 110.338C46.1388 110.41 46.0096 110.446 45.866 110.446H43.9499C43.8208 110.446 43.7131 110.403 43.627 110.317C43.5409 110.231 43.4978 110.13 43.4978 110.015C43.5265 109.168 43.7562 108.379 44.1868 107.647C44.6173 106.901 45.2417 106.305 46.0598 105.86C46.8779 105.401 47.8396 105.171 48.9448 105.171C50.093 105.171 51.0618 105.372 51.8512 105.774C52.655 106.161 53.2578 106.7 53.6597 107.389C54.0616 108.078 54.2625 108.86 54.2625 109.735C54.2625 110.697 53.9898 111.565 53.4444 112.34C52.9133 113.115 52.0952 113.948 50.99 114.838L47.9329 117.938H54.0688C54.2266 117.938 54.3486 117.988 54.4348 118.089C54.5352 118.175 54.5855 118.297 54.5855 118.455V119.983C54.5855 120.127 54.5352 120.249 54.4348 120.349C54.3486 120.45 54.2266 120.5 54.0688 120.5H43.7777ZM64.3844 120.5C64.2408 120.5 64.1188 120.45 64.0184 120.349C63.9179 120.249 63.8677 120.127 63.8677 119.983V108.831L60.5952 111.35C60.5091 111.422 60.4086 111.458 60.2938 111.458C60.1215 111.458 59.978 111.379 59.8632 111.221L58.959 110.058C58.8872 109.943 58.8513 109.836 58.8513 109.735C58.8513 109.563 58.9302 109.42 59.0881 109.305L63.9107 105.58C64.0399 105.48 64.2193 105.429 64.449 105.429H66.3435C66.5014 105.429 66.6234 105.48 66.7095 105.58C66.81 105.666 66.8602 105.788 66.8602 105.946V119.983C66.8602 120.127 66.81 120.249 66.7095 120.349C66.6234 120.45 66.5014 120.5 66.3435 120.5H64.3844ZM79.6894 120.5C79.5459 120.5 79.4239 120.45 79.3234 120.349C79.223 120.249 79.1727 120.127 79.1727 119.983V117.228H72.3479C72.2044 117.228 72.0824 117.177 71.9819 117.077C71.8814 116.976 71.8312 116.854 71.8312 116.711V115.247C71.8312 115.017 71.9101 114.802 72.068 114.601L78.4192 105.795C78.491 105.681 78.5986 105.595 78.7421 105.537C78.8857 105.465 79.0435 105.429 79.2158 105.429H81.5625C81.7204 105.429 81.8424 105.48 81.9285 105.58C82.029 105.666 82.0792 105.788 82.0792 105.946V114.687H83.9953C84.1532 114.687 84.2824 114.737 84.3828 114.838C84.4833 114.924 84.5335 115.046 84.5335 115.204V116.711C84.5335 116.854 84.4833 116.976 84.3828 117.077C84.2824 117.177 84.1604 117.228 84.0168 117.228H82.0792V119.983C82.0792 120.127 82.029 120.249 81.9285 120.349C81.8424 120.45 81.7204 120.5 81.5625 120.5H79.6894ZM79.2373 114.773V108.551L74.8238 114.773H79.2373ZM97.7065 110.984C97.5773 110.898 97.5127 110.769 97.5127 110.597C97.5127 110.51 97.5415 110.424 97.5989 110.338C97.5989 110.324 97.6419 110.274 97.728 110.187L99.192 108.896L97.2329 108.702L97.0606 108.659C96.9458 108.63 96.8597 108.551 96.8023 108.422C96.7592 108.35 96.7377 108.271 96.7377 108.185C96.7377 108.142 96.7449 108.099 96.7592 108.056L97.2544 106.571C97.2831 106.456 97.362 106.37 97.4912 106.312C97.563 106.269 97.6419 106.248 97.728 106.248C97.7567 106.248 97.7926 106.255 97.8357 106.269C97.8787 106.269 97.9362 106.298 98.0079 106.355L99.7087 107.346L99.2782 105.429L99.2566 105.257C99.2566 105.142 99.2997 105.035 99.3858 104.934C99.4863 104.834 99.6011 104.784 99.7303 104.784H101.302C101.431 104.784 101.539 104.834 101.625 104.934C101.725 105.035 101.776 105.142 101.776 105.257L101.754 105.429L101.302 107.367L103.024 106.355L103.197 106.269C103.225 106.255 103.261 106.248 103.304 106.248C103.419 106.248 103.519 106.276 103.606 106.334C103.706 106.391 103.763 106.47 103.778 106.571L104.273 108.056L104.295 108.185C104.295 108.286 104.259 108.386 104.187 108.487C104.129 108.573 104.058 108.63 103.972 108.659L103.799 108.702L101.819 108.896L103.304 110.187C103.39 110.274 103.433 110.324 103.433 110.338C103.491 110.424 103.519 110.51 103.519 110.597C103.519 110.769 103.455 110.898 103.326 110.984L102.077 111.91C101.991 111.953 101.898 111.974 101.797 111.974C101.611 111.974 101.481 111.917 101.41 111.802L101.323 111.651L100.527 109.821L99.7303 111.651C99.7016 111.709 99.6657 111.759 99.6226 111.802C99.5509 111.917 99.4217 111.974 99.2351 111.974C99.1346 111.974 99.0413 111.953 98.9552 111.91L97.7065 110.984ZM110.093 110.984C109.963 110.898 109.899 110.769 109.899 110.597C109.899 110.51 109.928 110.424 109.985 110.338C109.985 110.324 110.028 110.274 110.114 110.187L111.578 108.896L109.619 108.702L109.447 108.659C109.332 108.63 109.246 108.551 109.188 108.422C109.145 108.35 109.124 108.271 109.124 108.185C109.124 108.142 109.131 108.099 109.145 108.056L109.641 106.571C109.669 106.456 109.748 106.37 109.877 106.312C109.949 106.269 110.028 106.248 110.114 106.248C110.143 106.248 110.179 106.255 110.222 106.269C110.265 106.269 110.322 106.298 110.394 106.355L112.095 107.346L111.664 105.429L111.643 105.257C111.643 105.142 111.686 105.035 111.772 104.934C111.872 104.834 111.987 104.784 112.116 104.784H113.688C113.817 104.784 113.925 104.834 114.011 104.934C114.111 105.035 114.162 105.142 114.162 105.257L114.14 105.429L113.688 107.367L115.41 106.355L115.583 106.269C115.611 106.255 115.647 106.248 115.69 106.248C115.805 106.248 115.906 106.276 115.992 106.334C116.092 106.391 116.15 106.47 116.164 106.571L116.659 108.056L116.681 108.185C116.681 108.286 116.645 108.386 116.573 108.487C116.516 108.573 116.444 108.63 116.358 108.659L116.185 108.702L114.205 108.896L115.69 110.187C115.776 110.274 115.819 110.324 115.819 110.338C115.877 110.424 115.906 110.51 115.906 110.597C115.906 110.769 115.841 110.898 115.712 110.984L114.463 111.91C114.377 111.953 114.284 111.974 114.183 111.974C113.997 111.974 113.867 111.917 113.796 111.802L113.71 111.651L112.913 109.821L112.116 111.651C112.088 111.709 112.052 111.759 112.009 111.802C111.937 111.917 111.808 111.974 111.621 111.974C111.521 111.974 111.427 111.953 111.341 111.91L110.093 110.984ZM122.479 110.984C122.35 110.898 122.285 110.769 122.285 110.597C122.285 110.51 122.314 110.424 122.371 110.338C122.371 110.324 122.414 110.274 122.5 110.187L123.964 108.896L122.005 108.702L121.833 108.659C121.718 108.63 121.632 108.551 121.575 108.422C121.532 108.35 121.51 108.271 121.51 108.185C121.51 108.142 121.517 108.099 121.532 108.056L122.027 106.571C122.055 106.456 122.134 106.37 122.264 106.312C122.335 106.269 122.414 106.248 122.5 106.248C122.529 106.248 122.565 106.255 122.608 106.269C122.651 106.269 122.708 106.298 122.78 106.355L124.481 107.346L124.05 105.429L124.029 105.257C124.029 105.142 124.072 105.035 124.158 104.934C124.259 104.834 124.373 104.784 124.503 104.784H126.074C126.203 104.784 126.311 104.834 126.397 104.934C126.498 105.035 126.548 105.142 126.548 105.257L126.526 105.429L126.074 107.367L127.797 106.355L127.969 106.269C127.998 106.255 128.033 106.248 128.076 106.248C128.191 106.248 128.292 106.276 128.378 106.334C128.478 106.391 128.536 106.47 128.55 106.571L129.045 108.056L129.067 108.185C129.067 108.286 129.031 108.386 128.959 108.487C128.902 108.573 128.83 108.63 128.744 108.659L128.572 108.702L126.591 108.896L128.076 110.187C128.163 110.274 128.206 110.324 128.206 110.338C128.263 110.424 128.292 110.51 128.292 110.597C128.292 110.769 128.227 110.898 128.098 110.984L126.849 111.91C126.763 111.953 126.67 111.974 126.569 111.974C126.383 111.974 126.254 111.917 126.182 111.802L126.096 111.651L125.299 109.821L124.503 111.651C124.474 111.709 124.438 111.759 124.395 111.802C124.323 111.917 124.194 111.974 124.007 111.974C123.907 111.974 123.814 111.953 123.728 111.91L122.479 110.984ZM134.865 110.984C134.736 110.898 134.671 110.769 134.671 110.597C134.671 110.51 134.7 110.424 134.757 110.338C134.757 110.324 134.8 110.274 134.886 110.187L136.35 108.896L134.391 108.702L134.219 108.659C134.104 108.63 134.018 108.551 133.961 108.422C133.918 108.35 133.896 108.271 133.896 108.185C133.896 108.142 133.903 108.099 133.918 108.056L134.413 106.571C134.442 106.456 134.52 106.37 134.65 106.312C134.721 106.269 134.8 106.248 134.886 106.248C134.915 106.248 134.951 106.255 134.994 106.269C135.037 106.269 135.095 106.298 135.166 106.355L136.867 107.346L136.437 105.429L136.415 105.257C136.415 105.142 136.458 105.035 136.544 104.934C136.645 104.834 136.76 104.784 136.889 104.784H138.46C138.59 104.784 138.697 104.834 138.783 104.934C138.884 105.035 138.934 105.142 138.934 105.257L138.912 105.429L138.46 107.367L140.183 106.355L140.355 106.269C140.384 106.255 140.42 106.248 140.463 106.248C140.577 106.248 140.678 106.276 140.764 106.334C140.864 106.391 140.922 106.47 140.936 106.571L141.431 108.056L141.453 108.185C141.453 108.286 141.417 108.386 141.345 108.487C141.288 108.573 141.216 108.63 141.13 108.659L140.958 108.702L138.977 108.896L140.463 110.187C140.549 110.274 140.592 110.324 140.592 110.338C140.649 110.424 140.678 110.51 140.678 110.597C140.678 110.769 140.613 110.898 140.484 110.984L139.235 111.91C139.149 111.953 139.056 111.974 138.956 111.974C138.769 111.974 138.64 111.917 138.568 111.802L138.482 111.651L137.685 109.821L136.889 111.651C136.86 111.709 136.824 111.759 136.781 111.802C136.709 111.917 136.58 111.974 136.394 111.974C136.293 111.974 136.2 111.953 136.114 111.91L134.865 110.984ZM154.97 110.984C154.841 110.898 154.776 110.769 154.776 110.597C154.776 110.51 154.805 110.424 154.862 110.338C154.862 110.324 154.905 110.274 154.991 110.187L156.455 108.896L154.496 108.702L154.324 108.659C154.209 108.63 154.123 108.551 154.065 108.422C154.022 108.35 154.001 108.271 154.001 108.185C154.001 108.142 154.008 108.099 154.022 108.056L154.518 106.571C154.546 106.456 154.625 106.37 154.754 106.312C154.826 106.269 154.905 106.248 154.991 106.248C155.02 106.248 155.056 106.255 155.099 106.269C155.142 106.269 155.199 106.298 155.271 106.355L156.972 107.346L156.541 105.429L156.52 105.257C156.52 105.142 156.563 105.035 156.649 104.934C156.749 104.834 156.864 104.784 156.993 104.784H158.565C158.694 104.784 158.802 104.834 158.888 104.934C158.989 105.035 159.039 105.142 159.039 105.257L159.017 105.429L158.565 107.367L160.287 106.355L160.46 106.269C160.488 106.255 160.524 106.248 160.567 106.248C160.682 106.248 160.783 106.276 160.869 106.334C160.969 106.391 161.027 106.47 161.041 106.571L161.536 108.056L161.558 108.185C161.558 108.286 161.522 108.386 161.45 108.487C161.393 108.573 161.321 108.63 161.235 108.659L161.063 108.702L159.082 108.896L160.567 110.187C160.653 110.274 160.697 110.324 160.697 110.338C160.754 110.424 160.783 110.51 160.783 110.597C160.783 110.769 160.718 110.898 160.589 110.984L159.34 111.91C159.254 111.953 159.161 111.974 159.06 111.974C158.874 111.974 158.745 111.917 158.673 111.802L158.587 111.651L157.79 109.821L156.993 111.651C156.965 111.709 156.929 111.759 156.886 111.802C156.814 111.917 156.685 111.974 156.498 111.974C156.398 111.974 156.305 111.953 156.218 111.91L154.97 110.984ZM167.356 110.984C167.227 110.898 167.162 110.769 167.162 110.597C167.162 110.51 167.191 110.424 167.248 110.338C167.248 110.324 167.291 110.274 167.377 110.187L168.841 108.896L166.882 108.702L166.71 108.659C166.595 108.63 166.509 108.551 166.452 108.422C166.409 108.35 166.387 108.271 166.387 108.185C166.387 108.142 166.394 108.099 166.409 108.056L166.904 106.571C166.932 106.456 167.011 106.37 167.141 106.312C167.212 106.269 167.291 106.248 167.377 106.248C167.406 106.248 167.442 106.255 167.485 106.269C167.528 106.269 167.585 106.298 167.657 106.355L169.358 107.346L168.927 105.429L168.906 105.257C168.906 105.142 168.949 105.035 169.035 104.934C169.136 104.834 169.25 104.784 169.38 104.784H170.951C171.08 104.784 171.188 104.834 171.274 104.934C171.375 105.035 171.425 105.142 171.425 105.257L171.403 105.429L170.951 107.367L172.674 106.355L172.846 106.269C172.875 106.255 172.91 106.248 172.953 106.248C173.068 106.248 173.169 106.276 173.255 106.334C173.355 106.391 173.413 106.47 173.427 106.571L173.922 108.056L173.944 108.185C173.944 108.286 173.908 108.386 173.836 108.487C173.779 108.573 173.707 108.63 173.621 108.659L173.449 108.702L171.468 108.896L172.953 110.187C173.04 110.274 173.083 110.324 173.083 110.338C173.14 110.424 173.169 110.51 173.169 110.597C173.169 110.769 173.104 110.898 172.975 110.984L171.726 111.91C171.64 111.953 171.547 111.974 171.446 111.974C171.26 111.974 171.131 111.917 171.059 111.802L170.973 111.651L170.176 109.821L169.38 111.651C169.351 111.709 169.315 111.759 169.272 111.802C169.2 111.917 169.071 111.974 168.884 111.974C168.784 111.974 168.691 111.953 168.605 111.91L167.356 110.984ZM179.742 110.984C179.613 110.898 179.548 110.769 179.548 110.597C179.548 110.51 179.577 110.424 179.634 110.338C179.634 110.324 179.677 110.274 179.764 110.187L181.228 108.896L179.268 108.702L179.096 108.659C178.981 108.63 178.895 108.551 178.838 108.422C178.795 108.35 178.773 108.271 178.773 108.185C178.773 108.142 178.78 108.099 178.795 108.056L179.29 106.571C179.319 106.456 179.398 106.37 179.527 106.312C179.598 106.269 179.677 106.248 179.764 106.248C179.792 106.248 179.828 106.255 179.871 106.269C179.914 106.269 179.972 106.298 180.043 106.355L181.744 107.346L181.314 105.429L181.292 105.257C181.292 105.142 181.335 105.035 181.421 104.934C181.522 104.834 181.637 104.784 181.766 104.784H183.337C183.467 104.784 183.574 104.834 183.66 104.934C183.761 105.035 183.811 105.142 183.811 105.257L183.79 105.429L183.337 107.367L185.06 106.355L185.232 106.269C185.261 106.255 185.297 106.248 185.34 106.248C185.454 106.248 185.555 106.276 185.641 106.334C185.742 106.391 185.799 106.47 185.813 106.571L186.308 108.056L186.33 108.185C186.33 108.286 186.294 108.386 186.222 108.487C186.165 108.573 186.093 108.63 186.007 108.659L185.835 108.702L183.854 108.896L185.34 110.187C185.426 110.274 185.469 110.324 185.469 110.338C185.526 110.424 185.555 110.51 185.555 110.597C185.555 110.769 185.49 110.898 185.361 110.984L184.112 111.91C184.026 111.953 183.933 111.974 183.833 111.974C183.646 111.974 183.517 111.917 183.445 111.802L183.359 111.651L182.562 109.821L181.766 111.651C181.737 111.709 181.701 111.759 181.658 111.802C181.586 111.917 181.457 111.974 181.271 111.974C181.17 111.974 181.077 111.953 180.991 111.91L179.742 110.984ZM192.128 110.984C191.999 110.898 191.934 110.769 191.934 110.597C191.934 110.51 191.963 110.424 192.02 110.338C192.02 110.324 192.064 110.274 192.15 110.187L193.614 108.896L191.654 108.702L191.482 108.659C191.367 108.63 191.281 108.551 191.224 108.422C191.181 108.35 191.159 108.271 191.159 108.185C191.159 108.142 191.166 108.099 191.181 108.056L191.676 106.571C191.705 106.456 191.784 106.37 191.913 106.312C191.985 106.269 192.064 106.248 192.15 106.248C192.178 106.248 192.214 106.255 192.257 106.269C192.3 106.269 192.358 106.298 192.43 106.355L194.13 107.346L193.7 105.429L193.678 105.257C193.678 105.142 193.721 105.035 193.807 104.934C193.908 104.834 194.023 104.784 194.152 104.784H195.724C195.853 104.784 195.96 104.834 196.046 104.934C196.147 105.035 196.197 105.142 196.197 105.257L196.176 105.429L195.724 107.367L197.446 106.355L197.618 106.269C197.647 106.255 197.683 106.248 197.726 106.248C197.841 106.248 197.941 106.276 198.027 106.334C198.128 106.391 198.185 106.47 198.199 106.571L198.695 108.056L198.716 108.185C198.716 108.286 198.68 108.386 198.608 108.487C198.551 108.573 198.479 108.63 198.393 108.659L198.221 108.702L196.24 108.896L197.726 110.187C197.812 110.274 197.855 110.324 197.855 110.338C197.912 110.424 197.941 110.51 197.941 110.597C197.941 110.769 197.876 110.898 197.747 110.984L196.499 111.91C196.412 111.953 196.319 111.974 196.219 111.974C196.032 111.974 195.903 111.917 195.831 111.802L195.745 111.651L194.948 109.821L194.152 111.651C194.123 111.709 194.087 111.759 194.044 111.802C193.972 111.917 193.843 111.974 193.657 111.974C193.556 111.974 193.463 111.953 193.377 111.91L192.128 110.984ZM218.778 120.5C218.634 120.5 218.512 120.45 218.412 120.349C218.311 120.249 218.261 120.127 218.261 119.983V117.228H211.436C211.293 117.228 211.171 117.177 211.07 117.077C210.97 116.976 210.92 116.854 210.92 116.711V115.247C210.92 115.017 210.999 114.802 211.156 114.601L217.508 105.795C217.579 105.681 217.687 105.595 217.831 105.537C217.974 105.465 218.132 105.429 218.304 105.429H220.651C220.809 105.429 220.931 105.48 221.017 105.58C221.117 105.666 221.168 105.788 221.168 105.946V114.687H223.084C223.242 114.687 223.371 114.737 223.471 114.838C223.572 114.924 223.622 115.046 223.622 115.204V116.711C223.622 116.854 223.572 116.976 223.471 117.077C223.371 117.177 223.249 117.228 223.105 117.228H221.168V119.983C221.168 120.127 221.117 120.249 221.017 120.349C220.931 120.45 220.809 120.5 220.651 120.5H218.778ZM218.326 114.773V108.551L213.912 114.773H218.326ZM233.813 120.715C232.55 120.715 231.473 120.514 230.583 120.113C229.708 119.711 229.048 119.208 228.603 118.605C228.172 117.988 227.942 117.357 227.914 116.711C227.914 116.582 227.957 116.481 228.043 116.409C228.143 116.323 228.258 116.28 228.387 116.28H230.325C230.641 116.28 230.849 116.424 230.949 116.711C231.265 117.744 232.227 118.261 233.834 118.261C234.71 118.261 235.399 118.06 235.901 117.658C236.403 117.242 236.655 116.653 236.655 115.893C236.655 114.457 235.758 113.74 233.963 113.74H231.746C231.588 113.74 231.459 113.69 231.358 113.589C231.258 113.489 231.208 113.367 231.208 113.223V112.319C231.208 112.089 231.308 111.874 231.509 111.673L235.363 107.905H229.205C229.062 107.905 228.94 107.855 228.839 107.755C228.739 107.654 228.689 107.532 228.689 107.389V105.968C228.689 105.81 228.732 105.681 228.818 105.58C228.918 105.48 229.048 105.429 229.205 105.429H238.442C238.599 105.429 238.729 105.48 238.829 105.58C238.93 105.681 238.98 105.81 238.98 105.968V107.259C238.98 107.475 238.887 107.676 238.7 107.862L234.975 111.695L235.234 111.716C236.612 111.831 237.702 112.247 238.506 112.965C239.324 113.682 239.733 114.709 239.733 116.043C239.733 116.991 239.475 117.816 238.958 118.519C238.456 119.223 237.753 119.768 236.848 120.156C235.959 120.529 234.947 120.715 233.813 120.715ZM251.981 120.5C251.838 120.5 251.716 120.45 251.615 120.349C251.515 120.249 251.464 120.127 251.464 119.983V117.228H244.64C244.496 117.228 244.374 117.177 244.274 117.077C244.173 116.976 244.123 116.854 244.123 116.711V115.247C244.123 115.017 244.202 114.802 244.36 114.601L250.711 105.795C250.783 105.681 250.89 105.595 251.034 105.537C251.177 105.465 251.335 105.429 251.507 105.429H253.854C254.012 105.429 254.134 105.48 254.22 105.58C254.321 105.666 254.371 105.788 254.371 105.946V114.687H256.287C256.445 114.687 256.574 114.737 256.674 114.838C256.775 114.924 256.825 115.046 256.825 115.204V116.711C256.825 116.854 256.775 116.976 256.674 117.077C256.574 117.177 256.452 117.228 256.308 117.228H254.371V119.983C254.371 120.127 254.321 120.249 254.22 120.349C254.134 120.45 254.012 120.5 253.854 120.5H251.981ZM251.529 114.773V108.551L247.115 114.773H251.529ZM266.908 120.737C265.717 120.737 264.691 120.536 263.83 120.134C262.983 119.732 262.33 119.201 261.87 118.541C261.426 117.881 261.189 117.17 261.16 116.409V116.366C261.16 116.252 261.203 116.158 261.289 116.087C261.375 116.015 261.483 115.979 261.612 115.979H263.614C263.944 115.979 264.16 116.122 264.26 116.409C264.461 117.041 264.791 117.507 265.251 117.809C265.724 118.11 266.277 118.261 266.908 118.261C267.712 118.261 268.38 118.017 268.911 117.529C269.456 117.041 269.729 116.359 269.729 115.484C269.729 114.709 269.456 114.077 268.911 113.589C268.38 113.101 267.712 112.857 266.908 112.857C266.478 112.857 266.126 112.915 265.853 113.029C265.581 113.144 265.315 113.302 265.057 113.503C264.885 113.632 264.748 113.725 264.648 113.783C264.562 113.826 264.454 113.847 264.325 113.847H262.344C262.215 113.847 262.1 113.804 262 113.718C261.914 113.618 261.87 113.503 261.87 113.374L262.624 106.011C262.638 105.839 262.696 105.702 262.796 105.602C262.911 105.487 263.055 105.429 263.227 105.429H271.322C271.465 105.429 271.587 105.48 271.688 105.58C271.788 105.681 271.839 105.803 271.839 105.946V107.389C271.839 107.532 271.788 107.654 271.688 107.755C271.587 107.855 271.465 107.905 271.322 107.905H265.1L264.755 111.415C265.459 110.927 266.399 110.683 267.576 110.683C268.509 110.683 269.37 110.884 270.159 111.285C270.963 111.673 271.602 112.24 272.075 112.986C272.549 113.718 272.786 114.572 272.786 115.548C272.786 116.596 272.542 117.515 272.054 118.304C271.566 119.079 270.877 119.682 269.987 120.113C269.112 120.529 268.085 120.737 266.908 120.737Z" fill="white"/>
<path d="M30.0695 154.284C29.4323 154.284 28.8467 154.176 28.3127 153.961C27.7874 153.746 27.3654 153.423 27.0468 152.992C26.7282 152.562 26.5602 152.041 26.543 151.429C26.543 151.352 26.5689 151.287 26.6205 151.235C26.6722 151.175 26.7368 151.145 26.8143 151.145H28.0415C28.2309 151.145 28.3601 151.257 28.429 151.481C28.4893 151.929 28.6658 152.26 28.9586 152.476C29.26 152.691 29.6433 152.798 30.1083 152.798C30.6508 152.798 31.0642 152.622 31.3484 152.269C31.6412 151.916 31.7876 151.425 31.7876 150.796V146.637H27.4085C27.3224 146.637 27.2492 146.607 27.1889 146.546C27.1286 146.486 27.0985 146.413 27.0985 146.327V145.423C27.0985 145.328 27.1286 145.255 27.1889 145.203C27.2492 145.143 27.3224 145.112 27.4085 145.112H33.3119C33.4066 145.112 33.4841 145.143 33.5444 145.203C33.6047 145.263 33.6348 145.341 33.6348 145.435V150.848C33.6348 151.563 33.4884 152.178 33.1956 152.695C32.9028 153.212 32.4851 153.608 31.9426 153.884C31.4087 154.151 30.7843 154.284 30.0695 154.284ZM38.3929 154.284C37.3854 154.284 36.606 154.026 36.0549 153.509C35.5037 152.984 35.2066 152.269 35.1635 151.365L35.1506 150.796L35.1635 150.228C35.2066 149.332 35.508 148.622 36.0678 148.096C36.6275 147.571 37.4026 147.308 38.3929 147.308C39.3833 147.308 40.1584 147.571 40.7181 148.096C41.2779 148.622 41.5793 149.332 41.6224 150.228C41.631 150.331 41.6353 150.521 41.6353 150.796C41.6353 151.072 41.631 151.261 41.6224 151.365C41.5793 152.269 41.2822 152.984 40.731 153.509C40.1799 154.026 39.4005 154.284 38.3929 154.284ZM38.3929 153.005C38.8494 153.005 39.2025 152.863 39.4522 152.579C39.7019 152.286 39.8397 151.86 39.8656 151.3C39.8742 151.214 39.8785 151.046 39.8785 150.796C39.8785 150.547 39.8742 150.379 39.8656 150.292C39.8397 149.733 39.7019 149.311 39.4522 149.027C39.2025 148.734 38.8494 148.587 38.3929 148.587C37.9365 148.587 37.5834 148.734 37.3337 149.027C37.084 149.311 36.9462 149.733 36.9203 150.292L36.9074 150.796L36.9203 151.3C36.9462 151.86 37.084 152.286 37.3337 152.579C37.5834 152.863 37.9365 153.005 38.3929 153.005ZM43.3895 154.155C43.3033 154.155 43.2301 154.125 43.1699 154.064C43.1096 154.004 43.0794 153.931 43.0794 153.845V145.293C43.0794 145.199 43.1096 145.125 43.1699 145.074C43.2301 145.013 43.3033 144.983 43.3895 144.983H44.5391C44.6339 144.983 44.7071 145.013 44.7587 145.074C44.819 145.125 44.8491 145.199 44.8491 145.293V148.239C45.3659 147.619 46.0634 147.308 46.9418 147.308C47.7341 147.308 48.3671 147.571 48.8407 148.096C49.3143 148.613 49.5512 149.319 49.5512 150.215V153.845C49.5512 153.931 49.521 154.004 49.4607 154.064C49.4091 154.125 49.3359 154.155 49.2411 154.155H48.0786C47.9924 154.155 47.9192 154.125 47.859 154.064C47.7987 154.004 47.7685 153.931 47.7685 153.845V150.292C47.7685 149.784 47.6437 149.393 47.3939 149.117C47.1528 148.833 46.7997 148.691 46.3347 148.691C45.8783 148.691 45.5166 148.833 45.2496 149.117C44.9826 149.401 44.8491 149.793 44.8491 150.292V153.845C44.8491 153.931 44.819 154.004 44.7587 154.064C44.7071 154.125 44.6339 154.155 44.5391 154.155H43.3895ZM51.5005 154.155C51.4144 154.155 51.3412 154.125 51.2809 154.064C51.2206 154.004 51.1905 153.931 51.1905 153.845V147.748C51.1905 147.662 51.2206 147.588 51.2809 147.528C51.3412 147.468 51.4144 147.438 51.5005 147.438H52.5598C52.6459 147.438 52.7191 147.468 52.7794 147.528C52.8397 147.588 52.8698 147.662 52.8698 147.748V148.277C53.3779 147.631 54.097 147.308 55.027 147.308C55.8193 147.308 56.448 147.571 56.913 148.096C57.3781 148.613 57.6106 149.319 57.6106 150.215V153.845C57.6106 153.931 57.5804 154.004 57.5201 154.064C57.4685 154.125 57.3953 154.155 57.3005 154.155H56.1638C56.0777 154.155 56.0045 154.125 55.9442 154.064C55.8839 154.004 55.8538 153.931 55.8538 153.845V150.292C55.8538 149.784 55.7289 149.393 55.4792 149.117C55.238 148.833 54.8849 148.691 54.4199 148.691C53.9635 148.691 53.6018 148.833 53.3348 149.117C53.0765 149.401 52.9473 149.793 52.9473 150.292V153.845C52.9473 153.931 52.9172 154.004 52.8569 154.064C52.8052 154.125 52.732 154.155 52.6373 154.155H51.5005ZM62.6683 154.155C62.5822 154.155 62.509 154.125 62.4487 154.064C62.3885 154.004 62.3583 153.931 62.3583 153.845V145.435C62.3583 145.341 62.3841 145.263 62.4358 145.203C62.4961 145.143 62.5736 145.112 62.6683 145.112H65.8202C68.3521 145.112 69.6439 146.284 69.6955 148.626C69.7128 149.126 69.7214 149.461 69.7214 149.634C69.7214 149.797 69.7128 150.129 69.6955 150.628C69.6611 151.834 69.3381 152.725 68.7267 153.302C68.1153 153.871 67.168 154.155 65.8848 154.155H62.6683ZM65.8202 152.669C66.5436 152.669 67.0646 152.51 67.3833 152.191C67.7019 151.864 67.8698 151.33 67.8871 150.59C67.9043 150.073 67.9129 149.75 67.9129 149.621C67.9129 149.483 67.9043 149.164 67.8871 148.665C67.8698 147.959 67.689 147.438 67.3445 147.102C67.0087 146.766 66.479 146.598 65.7557 146.598H64.1539V152.669H65.8202ZM74.2571 154.284C73.2495 154.284 72.4701 154.026 71.919 153.509C71.3678 152.984 71.0707 152.269 71.0277 151.365L71.0148 150.796L71.0277 150.228C71.0707 149.332 71.3721 148.622 71.9319 148.096C72.4917 147.571 73.2667 147.308 74.2571 147.308C75.2474 147.308 76.0225 147.571 76.5823 148.096C77.142 148.622 77.4434 149.332 77.4865 150.228C77.4951 150.331 77.4994 150.521 77.4994 150.796C77.4994 151.072 77.4951 151.261 77.4865 151.365C77.4434 152.269 77.1463 152.984 76.5952 153.509C76.044 154.026 75.2647 154.284 74.2571 154.284ZM74.2571 153.005C74.7135 153.005 75.0666 152.863 75.3163 152.579C75.5661 152.286 75.7039 151.86 75.7297 151.3C75.7383 151.214 75.7426 151.046 75.7426 150.796C75.7426 150.547 75.7383 150.379 75.7297 150.292C75.7039 149.733 75.5661 149.311 75.3163 149.027C75.0666 148.734 74.7135 148.587 74.2571 148.587C73.8007 148.587 73.4476 148.734 73.1978 149.027C72.9481 149.311 72.8103 149.733 72.7845 150.292L72.7716 150.796L72.7845 151.3C72.8103 151.86 72.9481 152.286 73.1978 152.579C73.4476 152.863 73.8007 153.005 74.2571 153.005ZM81.8242 154.284C80.8683 154.284 80.1061 154.008 79.5378 153.457C78.978 152.898 78.6809 152.114 78.6465 151.106L78.6335 150.783L78.6465 150.46C78.6895 149.479 78.9909 148.708 79.5507 148.148C80.1191 147.588 80.8769 147.308 81.8242 147.308C82.8404 147.308 83.6241 147.619 84.1752 148.239C84.735 148.859 85.0149 149.685 85.0149 150.719V150.99C85.0149 151.076 84.9847 151.149 84.9244 151.21C84.8642 151.27 84.7866 151.3 84.6919 151.3H80.4033V151.403C80.4205 151.877 80.5497 152.277 80.7908 152.605C81.0405 152.923 81.3807 153.083 81.8113 153.083C82.3194 153.083 82.7284 152.885 83.0385 152.488C83.116 152.394 83.1762 152.333 83.2193 152.308C83.271 152.282 83.3442 152.269 83.4389 152.269H84.5498C84.6273 152.269 84.6919 152.295 84.7436 152.346C84.8039 152.389 84.834 152.445 84.834 152.514C84.834 152.721 84.7091 152.966 84.4594 153.251C84.2183 153.526 83.8695 153.767 83.4131 153.974C82.9566 154.181 82.427 154.284 81.8242 154.284ZM83.2581 150.215V150.176C83.2581 149.668 83.1289 149.259 82.8705 148.949C82.6208 148.639 82.272 148.484 81.8242 148.484C81.3764 148.484 81.0276 148.639 80.7779 148.949C80.5281 149.259 80.4033 149.668 80.4033 150.176V150.215H83.2581Z" fill="white" fill-opacity="0.8"/>
<path d="M237.933 154.284C236.787 154.284 235.931 153.965 235.362 153.328C234.802 152.691 234.497 151.856 234.445 150.822C234.436 150.59 234.432 150.193 234.432 149.634C234.432 149.065 234.436 148.661 234.445 148.419C234.488 147.403 234.798 146.576 235.375 145.939C235.952 145.302 236.805 144.983 237.933 144.983C239.069 144.983 239.926 145.302 240.503 145.939C241.08 146.576 241.386 147.403 241.421 148.419C241.438 148.661 241.446 149.065 241.446 149.634C241.446 150.193 241.438 150.59 241.421 150.822C241.377 151.856 241.072 152.691 240.503 153.328C239.944 153.965 239.087 154.284 237.933 154.284ZM237.933 152.798C238.475 152.798 238.88 152.622 239.147 152.269C239.414 151.907 239.556 151.403 239.573 150.758C239.591 150.258 239.599 149.879 239.599 149.621C239.599 149.337 239.591 148.962 239.573 148.497C239.556 147.86 239.414 147.36 239.147 146.998C238.88 146.637 238.475 146.456 237.933 146.456C237.399 146.456 236.994 146.637 236.718 146.998C236.452 147.36 236.309 147.86 236.292 148.497C236.284 148.729 236.279 149.104 236.279 149.621C236.279 150.129 236.284 150.508 236.292 150.758C236.309 151.403 236.452 151.907 236.718 152.269C236.994 152.622 237.399 152.798 237.933 152.798ZM245.764 154.155C245.678 154.155 245.604 154.125 245.544 154.064C245.484 154.004 245.454 153.931 245.454 153.845V147.153L243.49 148.665C243.439 148.708 243.378 148.729 243.309 148.729C243.206 148.729 243.12 148.682 243.051 148.587L242.509 147.89C242.465 147.821 242.444 147.756 242.444 147.696C242.444 147.593 242.491 147.507 242.586 147.438L245.48 145.203C245.557 145.143 245.665 145.112 245.803 145.112H246.939C247.034 145.112 247.107 145.143 247.159 145.203C247.219 145.255 247.249 145.328 247.249 145.423V153.845C247.249 153.931 247.219 154.004 247.159 154.064C247.107 154.125 247.034 154.155 246.939 154.155H245.764ZM248.746 155.24C248.677 155.24 248.617 155.214 248.565 155.162C248.514 155.111 248.488 155.046 248.488 154.969C248.488 154.917 248.497 154.87 248.514 154.827L252.919 144.273C252.945 144.204 252.988 144.144 253.048 144.092C253.117 144.032 253.203 144.002 253.306 144.002H254.146C254.215 144.002 254.275 144.027 254.327 144.079C254.387 144.131 254.417 144.195 254.417 144.273C254.417 144.299 254.404 144.346 254.378 144.415L249.973 154.969C249.887 155.15 249.754 155.24 249.573 155.24H248.746ZM255.389 154.155C255.303 154.155 255.23 154.125 255.169 154.064C255.109 154.004 255.079 153.931 255.079 153.845V153.186C255.079 152.954 255.187 152.751 255.402 152.579L257.443 150.551C258.33 149.853 258.946 149.311 259.29 148.923C259.643 148.527 259.82 148.14 259.82 147.761C259.82 147.356 259.708 147.037 259.484 146.805C259.269 146.572 258.941 146.456 258.502 146.456C258.072 146.456 257.731 146.585 257.482 146.843C257.232 147.093 257.077 147.42 257.017 147.825C256.991 147.929 256.943 148.006 256.875 148.058C256.806 148.101 256.728 148.122 256.642 148.122H255.492C255.415 148.122 255.35 148.096 255.299 148.045C255.247 147.993 255.221 147.933 255.221 147.864C255.238 147.356 255.376 146.882 255.634 146.443C255.893 145.995 256.267 145.638 256.758 145.371C257.249 145.095 257.826 144.957 258.489 144.957C259.178 144.957 259.759 145.078 260.233 145.319C260.715 145.552 261.077 145.875 261.318 146.288C261.559 146.701 261.68 147.171 261.68 147.696C261.68 148.273 261.516 148.794 261.189 149.259C260.87 149.724 260.38 150.224 259.716 150.758L257.882 152.618H261.564C261.658 152.618 261.732 152.648 261.783 152.708C261.844 152.76 261.874 152.833 261.874 152.928V153.845C261.874 153.931 261.844 154.004 261.783 154.064C261.732 154.125 261.658 154.155 261.564 154.155H255.389ZM267.51 154.155C267.424 154.155 267.35 154.125 267.29 154.064C267.23 154.004 267.2 153.931 267.2 153.845V152.191H263.105C263.019 152.191 262.945 152.161 262.885 152.101C262.825 152.041 262.795 151.967 262.795 151.881V151.003C262.795 150.865 262.842 150.736 262.937 150.615L266.748 145.332C266.791 145.263 266.855 145.212 266.941 145.177C267.027 145.134 267.122 145.112 267.226 145.112H268.634C268.728 145.112 268.801 145.143 268.853 145.203C268.913 145.255 268.944 145.328 268.944 145.423V150.667H270.093C270.188 150.667 270.265 150.697 270.326 150.758C270.386 150.809 270.416 150.882 270.416 150.977V151.881C270.416 151.967 270.386 152.041 270.326 152.101C270.265 152.161 270.192 152.191 270.106 152.191H268.944V153.845C268.944 153.931 268.913 154.004 268.853 154.064C268.801 154.125 268.728 154.155 268.634 154.155H267.51ZM267.238 150.719V146.986L264.59 150.719H267.238Z" fill="white" fill-opacity="0.8"/>
</svg>
