<svg width="50" height="50" viewBox="0 0 50 50" fill="none" xmlns="http://www.w3.org/2000/svg">
<path d="M0 10C0 4.47715 4.47715 0 10 0H50V40C50 45.5228 45.5228 50 40 50H0V10Z" fill="#007AFF"/>
<path d="M24.02 32.5H20.5C19.88 32.5 19.33 32.48 18.84 32.41C16.21 32.12 15.5 30.88 15.5 27.5V22.5C15.5 19.12 16.21 17.88 18.84 17.59C19.33 17.52 19.88 17.5 20.5 17.5H23.96" stroke="white" stroke-width="1.5" stroke-linecap="round" stroke-linejoin="round"/>
<path d="M28.0195 17.5H29.4995C30.1195 17.5 30.6695 17.52 31.1595 17.59C33.7895 17.88 34.4995 19.12 34.4995 22.5V27.5C34.4995 30.88 33.7895 32.12 31.1595 32.41C30.6695 32.48 30.1195 32.5 29.4995 32.5H28.0195" stroke="white" stroke-width="1.5" stroke-linecap="round" stroke-linejoin="round"/>
<path d="M28 15V35" stroke="white" stroke-width="1.5" stroke-linecap="round" stroke-linejoin="round"/>
<path d="M24.0941 25H24.1031" stroke="white" stroke-width="2" stroke-linecap="round" stroke-linejoin="round"/>
<path d="M20.0941 25H20.1031" stroke="white" stroke-width="2" stroke-linecap="round" stroke-linejoin="round"/>
</svg>
