<svg width="31" height="30" viewBox="0 0 31 30" fill="none" xmlns="http://www.w3.org/2000/svg">
<path fill-rule="evenodd" clip-rule="evenodd" d="M15.5449 30C15.5419 30 15.5388 30 15.5358 30C15.5327 30 15.5297 30 15.5266 30C9.56174 29.9975 4.20604 27.558 0.535767 23.6882C3.34662 20.4027 11.1949 18.75 15.5357 18.75C19.8766 18.75 27.7249 20.4028 30.5357 23.6883C26.8655 27.558 21.5098 29.9975 15.5449 30ZM23.5538 7.5C23.5538 11.6438 19.9657 15 15.5357 15C11.1057 15 7.51761 11.6438 7.51761 7.5C7.51761 3.35625 11.1057 0 15.5357 0C19.9657 0 23.5538 3.35625 23.5538 7.5Z" fill="black"/>
</svg>
