<svg width="17" height="16" viewBox="0 0 17 16" fill="none" xmlns="http://www.w3.org/2000/svg">
<path d="M16.5001 8.18387C16.5001 7.64007 16.4551 7.09333 16.3591 6.55835H8.66113V9.6389H13.0694C12.8865 10.6324 12.2987 11.5113 11.438 12.0698V14.0687H14.068C15.6124 12.6754 16.5001 10.6177 16.5001 8.18387Z" fill="#4285F4"/>
<path d="M8.6613 16C10.8624 16 12.7187 15.2916 14.0712 14.0688L11.4412 12.07C10.7095 12.5579 9.76487 12.8342 8.6643 12.8342C6.53514 12.8342 4.72985 11.4262 4.0821 9.5332H1.36816V11.5938C2.75362 14.2951 5.57551 16 8.6613 16Z" fill="#34A853"/>
<path d="M4.07905 9.53314C3.73718 8.5396 3.73718 7.46376 4.07905 6.47023V4.40967H1.36815C0.210618 6.67011 0.210618 9.33326 1.36815 11.5937L4.07905 9.53314Z" fill="#FBBC04"/>
<path d="M8.6613 3.16633C9.82485 3.1487 10.9494 3.57786 11.7921 4.36563L14.1222 2.08167C12.6467 0.723645 10.6885 -0.0229765 8.6613 0.000539092C5.57551 0.000539092 2.75362 1.70542 1.36816 4.40972L4.0791 6.47028C4.72385 4.57433 6.53214 3.16633 8.6613 3.16633Z" fill="#EA4335"/>
</svg>
