<?xml version="1.0" standalone="no"?>
<!DOCTYPE svg PUBLIC "-//W3C//DTD SVG 20010904//EN"
 "http://www.w3.org/TR/2001/REC-SVG-20010904/DTD/svg10.dtd">
<svg version="1.0" xmlns="http://www.w3.org/2000/svg"
 width="900.000000pt" height="200.000000pt" viewBox="0 0 1060.000000 162.000000"
 preserveAspectRatio="xMidYMid meet">

<!-- <g transform="translate(0.000000,162.000000) scale(0.100000,-0.100000)"
fill="#007aff" stroke="none"> -->
<g transform="translate(0.000000,162.000000) scale(0.103000,-0.100000)" fill="#FFFFFF" stroke="none">
<path d="M676 1338 c-202 -633 -336 -1063 -336 -1074 0 -11 18 -14 73 -14 276
0 508 93 642 256 l36 44 -47 128 c-26 70 -50 130 -53 134 -4 4 -38 -33 -76
-83 -67 -87 -124 -138 -192 -173 -21 -10 -33 -12 -33 -5 0 16 201 653 209 662
4 4 76 -176 161 -400 84 -225 166 -443 182 -485 l30 -78 130 0 c130 0 130 0
124 23 -3 12 -109 294 -234 627 l-229 605 -166 3 -166 2 -55 -172z"/>
<path d="M1630 1374 c-86 -18 -211 -81 -299 -149 l-70 -56 30 -82 c17 -45 37
-99 45 -120 7 -21 16 -42 19 -47 3 -5 32 17 63 49 135 137 300 202 405 158 34
-15 107 -89 107 -110 0 -8 -28 -17 -77 -25 -197 -31 -329 -157 -364 -343 -28
-156 61 -313 211 -370 96 -36 175 -35 308 6 18 6 22 4 22 -14 0 -20 4 -21 125
-21 l125 0 0 64 c0 171 -40 524 -75 663 -45 178 -138 307 -259 364 -105 49
-197 59 -316 33z m374 -670 c11 -86 8 -110 -21 -139 -36 -36 -99 -65 -143 -65
-45 0 -98 32 -106 66 -15 60 41 148 111 172 17 6 58 11 91 11 l61 1 7 -46z"/>
<path d="M5485 1026 c-58 -26 -109 -80 -139 -145 -30 -68 -29 -206 3 -279 28
-63 102 -133 159 -150 81 -24 171 -8 239 44 40 30 41 42 8 94 l-25 40 -40 -26
c-120 -79 -240 -8 -240 141 0 73 22 121 69 152 45 30 96 29 155 -2 26 -14 51
-25 55 -25 5 0 19 20 32 44 23 45 23 45 4 67 -60 66 -190 88 -280 45z"/>
<path d="M9994 1031 c-22 -10 -50 -30 -62 -45 -41 -53 -47 -166 -11 -224 18
-30 61 -55 129 -77 66 -21 90 -40 90 -71 0 -52 -98 -58 -169 -11 -43 29 -46
28 -75 -31 -21 -41 -15 -61 27 -88 77 -50 191 -57 259 -17 68 40 101 129 78
213 -15 55 -56 93 -128 119 -84 30 -107 44 -110 68 -8 55 78 72 143 28 20 -14
42 -24 47 -23 6 2 21 24 34 48 22 42 23 45 6 63 -53 60 -180 83 -258 48z"/>
<path d="M3017 1033 c-16 -26 -237 -556 -237 -568 0 -12 14 -15 60 -15 72 0
65 -10 151 202 34 87 65 156 67 154 2 -2 36 -82 75 -177 l72 -174 68 -3 c53
-2 67 0 67 12 0 8 -54 140 -119 293 l-119 278 -40 3 c-22 2 -42 -1 -45 -5z"/>
<path d="M3585 1028 c-3 -7 -4 -139 -3 -293 l3 -280 135 0 c131 0 137 1 189
30 98 54 134 125 135 265 1 106 -17 162 -70 214 -60 59 -96 70 -246 74 -110 3
-139 1 -143 -10z m255 -136 c54 -27 80 -74 80 -146 0 -108 -49 -159 -153 -160
l-62 -1 -3 150 c-1 82 0 155 2 162 8 19 95 16 136 -5z"/>
<path d="M4280 745 l0 -295 113 0 c150 0 204 16 267 80 57 56 80 119 80 220 0
97 -23 163 -75 215 -59 59 -115 75 -267 75 l-118 0 0 -295z m258 145 c109 -49
108 -241 -2 -291 -23 -10 -62 -19 -88 -19 l-48 0 0 165 0 165 48 0 c26 0 66
-9 90 -20z"/>
<path d="M4975 1027 c-3 -7 -4 -138 -3 -292 l3 -280 58 -3 57 -3 0 296 0 295
-55 0 c-36 0 -57 -5 -60 -13z"/>
<path d="M5980 975 l0 -65 70 0 70 0 2 -227 3 -228 57 -3 58 -3 2 228 3 228
68 3 67 3 0 64 0 65 -200 0 -200 0 0 -65z"/>
<path d="M6600 745 l0 -296 58 3 57 3 0 290 0 290 -57 3 -58 3 0 -296z"/>
<path d="M6920 1027 c0 -30 246 -582 261 -585 11 -2 45 69 137 285 67 158 122
294 122 301 0 8 -18 12 -55 12 -67 0 -64 4 -140 -188 -32 -79 -60 -140 -64
-137 -3 4 -35 77 -71 163 l-65 157 -63 3 c-47 2 -62 0 -62 -11z"/>
<path d="M7646 1024 c-8 -20 -8 -537 0 -558 5 -14 30 -16 170 -16 l164 0 0 65
0 64 -107 3 -108 3 0 45 0 45 93 3 92 3 0 64 0 64 -92 3 -93 3 0 45 0 45 105
5 105 5 0 60 0 60 -161 3 c-141 2 -162 0 -168 -14z"/>
<path d="M8711 1023 c-7 -15 -224 -522 -238 -560 -4 -10 13 -13 64 -13 l70 0
70 173 c38 94 74 170 79 168 5 -2 40 -80 78 -173 l69 -168 68 0 c38 0 69 4 69
9 0 13 -231 553 -243 569 -15 19 -75 15 -86 -5z"/>
<path d="M9230 745 l0 -295 113 0 c180 0 258 36 315 144 24 46 26 62 27 156 0
98 -2 109 -30 159 -57 102 -123 131 -307 131 l-118 0 0 -295z m255 145 c56
-27 80 -70 80 -147 0 -98 -53 -154 -155 -161 l-60 -4 0 166 0 166 47 0 c26 0
65 -9 88 -20z"/>
</g>
</svg>
