<svg width="708" height="472" viewBox="0 0 708 472" fill="none" xmlns="http://www.w3.org/2000/svg">
<g clip-path="url(#clip0_327_9107)">
<g clip-path="url(#clip1_327_9107)">
<path d="M296.049 282.507H410.172V409.627H296.049V282.507Z" fill="#D6D7D8"/>
<path d="M225.324 405.504H480.897V415.36H225.324V405.504Z" fill="#076FF8"/>
<path d="M97.9399 39.53H599.44V364.572H97.9399V39.53Z" fill="url(#paint0_linear_327_9107)"/>
<path d="M106.781 47.6348H590.599V315.323H106.781V47.6348Z" fill="white"/>
<path d="M562.541 353.755C570.436 353.755 576.836 347.348 576.836 339.445C576.836 331.542 570.436 325.135 562.541 325.135C554.646 325.135 548.246 331.542 548.246 339.445C548.246 347.348 554.646 353.755 562.541 353.755Z" fill="#EEEEEE"/>
</g>
<g clip-path="url(#clip2_327_9107)">
<path d="M250.109 113.87C260.89 113.87 269.63 105.032 269.63 94.1296C269.63 83.2273 260.89 74.3892 250.109 74.3892C239.327 74.3892 230.588 83.2273 230.588 94.1296C230.588 105.032 239.327 113.87 250.109 113.87Z" fill="#A1C3FC"/>
<path d="M255.841 82.0576H265.549C265.018 81.3638 264.444 80.7053 263.828 80.0899H255.841C255.841 80.0899 255.841 82.0576 255.841 82.0576Z" fill="#076FF8"/>
<path d="M255.841 86.7813H268.227C267.959 86.1065 267.658 85.4488 267.32 84.8136H255.84V86.7813H255.841Z" fill="#076FF8"/>
<path d="M255.841 91.5046H269.453C269.365 90.8371 269.245 90.1807 269.093 89.5369H255.841V91.5046Z" fill="#076FF8"/>
<path d="M255.841 96.2284H269.519C269.587 95.5811 269.622 94.9243 269.627 94.2606H255.841C255.841 94.2602 255.841 96.2284 255.841 96.2284Z" fill="#076FF8"/>
<path d="M255.841 100.952H268.432C268.665 100.311 268.866 99.6536 269.033 98.9834H255.841V100.952Z" fill="#076FF8"/>
<path d="M255.841 105.675H265.939C266.388 105.046 266.803 104.389 267.179 103.707H255.841V105.675Z" fill="#076FF8"/>
<path d="M243.58 110.399H261.162C262.013 109.807 262.812 109.148 263.557 108.431H243.58V110.399Z" fill="#076FF8"/>
<path d="M250.109 113.87C251.913 113.87 253.658 113.617 255.316 113.154H244.902C246.56 113.617 248.305 113.87 250.109 113.87Z" fill="#076FF8"/>
<path d="M248.357 112.296C258.816 112.296 267.294 103.722 267.294 93.1457C267.294 82.5695 258.816 73.9957 248.357 73.9957C237.898 73.9957 229.42 82.5695 229.42 93.1457C229.42 103.722 237.898 112.296 248.357 112.296Z" fill="#78A9EF"/>
<path d="M248.357 109.366C239.513 109.366 232.317 102.09 232.317 93.1448C232.317 93.0233 232.414 92.9246 232.534 92.9246C232.654 92.9246 232.752 93.0233 232.752 93.1448C232.752 101.847 239.753 108.926 248.357 108.926C256.961 108.926 263.962 101.847 263.962 93.1448C263.962 84.4434 256.962 77.3641 248.357 77.3641C248.237 77.3641 248.139 77.2654 248.139 77.1439C248.139 77.0223 248.237 76.9236 248.357 76.9236C257.202 76.9236 264.398 84.1999 264.398 93.1448C264.398 102.09 257.202 109.366 248.357 109.366Z" fill="#AFCCFC"/>
<path d="M237.059 87.8751C237.689 89.2826 236.782 91.0724 236.782 91.0724C236.782 91.0724 234.854 90.5803 234.224 89.1727C233.594 87.7652 234.501 85.9755 234.501 85.9755C234.501 85.9755 236.429 86.4681 237.059 87.8751Z" fill="#A1C3FC"/>
<path d="M236.987 93.8512C238.226 94.754 238.321 96.7631 238.321 96.7631C238.321 96.7631 236.407 97.3079 235.168 96.4046C233.928 95.5017 233.833 93.4926 233.833 93.4926C233.833 93.4926 235.747 92.9479 236.987 93.8512Z" fill="#A1C3FC"/>
<path d="M238.427 99.2877C239.945 99.4597 241.003 101.163 241.003 101.163C241.003 101.163 239.599 102.588 238.081 102.415C236.562 102.243 235.505 100.54 235.505 100.54C235.505 100.54 236.909 99.1153 238.427 99.2877Z" fill="#A1C3FC"/>
<path d="M258.238 88.3156C257.608 89.7231 258.515 91.5128 258.515 91.5128C258.515 91.5128 260.443 91.0207 261.073 89.6132C261.703 88.2057 260.796 86.4159 260.796 86.4159C260.796 86.4159 258.868 86.9081 258.238 88.3156Z" fill="#97BDF3"/>
<path d="M237.341 90.5169C236.711 91.9244 237.618 93.7142 237.618 93.7142C237.618 93.7142 239.546 93.222 240.176 91.8145C240.806 90.407 239.899 88.6172 239.899 88.6172C239.899 88.6172 237.971 89.1094 237.341 90.5169Z" fill="#A1C3FC"/>
<path d="M258.311 94.2916C257.072 95.1945 256.977 97.2036 256.977 97.2036C256.977 97.2036 258.891 97.7483 260.13 96.845C261.37 95.9422 261.465 93.933 261.465 93.933C261.465 93.933 259.55 93.3883 258.311 94.2916Z" fill="#A1C3FC"/>
<path d="M239.214 95.5629C238.354 96.8403 238.943 98.7606 238.943 98.7606C238.943 98.7606 240.926 98.6111 241.786 97.3337C242.646 96.0564 242.056 94.136 242.056 94.136C242.056 94.136 240.073 94.2864 239.214 95.5629Z" fill="#97BDF3"/>
<path d="M256.87 99.7277C255.352 99.8997 254.295 101.603 254.295 101.603C254.295 101.603 255.699 103.028 257.217 102.855C258.735 102.683 259.793 100.98 259.793 100.98C259.793 100.98 258.389 99.5558 256.87 99.7277Z" fill="#A1C3FC"/>
<path d="M241.743 101.424C241.017 102.783 241.797 104.633 241.797 104.633C241.797 104.633 243.755 104.279 244.48 102.92C245.206 101.561 244.426 99.7109 244.426 99.7109C244.426 99.7109 242.469 100.065 241.743 101.424Z" fill="#A1C3FC"/>
<path d="M258.064 90.9569C258.694 92.3644 257.787 94.1542 257.787 94.1542C257.787 94.1542 255.858 93.662 255.229 92.2545C254.599 90.847 255.505 89.0573 255.505 89.0573C255.505 89.0573 257.434 89.5498 258.064 90.9569Z" fill="#97BDF3"/>
<path d="M256.192 96.0034C257.051 97.2808 256.462 99.2011 256.462 99.2011C256.462 99.2011 254.479 99.0516 253.619 97.7742C252.759 96.4969 253.349 94.5765 253.349 94.5765C253.349 94.5765 255.331 94.7265 256.192 96.0034Z" fill="#97BDF3"/>
<path d="M253.662 101.864C254.388 103.224 253.608 105.073 253.608 105.073C253.608 105.073 251.65 104.719 250.924 103.36C250.198 102.001 250.978 100.151 250.978 100.151C250.978 100.151 252.936 100.505 253.662 101.864Z" fill="#A1C3FC"/>
<path d="M252.72 87.5709H243.742L242.456 81.8219L243.9 83.1906L245.343 81.8219L246.878 83.282L248.411 81.8219L249.856 83.282L251.029 81.8219L252.292 83.282L254.006 81.8219L252.72 87.5709Z" fill="#97BDF3"/>
<path d="M226.6 104.184C237.381 104.184 246.121 95.3462 246.121 84.4438C246.121 73.5415 237.381 64.7034 226.6 64.7034C215.818 64.7034 207.078 73.5415 207.078 84.4438C207.078 95.3462 215.818 104.184 226.6 104.184Z" fill="#A1C3FC"/>
<path d="M232.331 72.3723H242.039C241.508 71.6785 240.934 71.02 240.318 70.4046H232.331V72.3723Z" fill="#076FF8"/>
<path d="M232.331 77.0956H244.717C244.449 76.4207 244.148 75.7631 243.811 75.1278H232.331V77.0956Z" fill="#076FF8"/>
<path d="M232.331 81.8193H245.943C245.855 81.1518 245.735 80.4954 245.583 79.8516H232.331V81.8193Z" fill="#076FF8"/>
<path d="M232.331 86.5426H246.009C246.077 85.8953 246.113 85.2385 246.117 84.5749H232.331V86.5426Z" fill="#076FF8"/>
<path d="M232.331 91.2663H244.922C245.155 90.6255 245.356 89.9683 245.523 89.2982H232.331V91.2663Z" fill="#076FF8"/>
<path d="M232.331 95.9896H242.429C242.879 95.36 243.293 94.7036 243.669 94.0214H232.331V95.9896Z" fill="#076FF8"/>
<path d="M220.07 100.713H237.653C238.503 100.121 239.302 99.4618 240.048 98.7451H220.07V100.713Z" fill="#076FF8"/>
<path d="M226.6 104.184C228.404 104.184 230.148 103.932 231.806 103.468H221.392C223.051 103.932 224.795 104.184 226.6 104.184Z" fill="#076FF8"/>
<path d="M224.847 102.61C235.306 102.61 243.784 94.0362 243.784 83.46C243.784 72.8837 235.306 64.31 224.847 64.31C214.388 64.31 205.91 72.8837 205.91 83.46C205.91 94.0362 214.388 102.61 224.847 102.61Z" fill="url(#paint1_linear_327_9107)"/>
<path d="M224.848 99.6812C216.003 99.6812 208.807 92.4049 208.807 83.46C208.807 83.3385 208.905 83.2398 209.025 83.2398C209.144 83.2398 209.242 83.3385 209.242 83.46C209.242 92.1614 216.243 99.2408 224.848 99.2408C233.452 99.2408 240.453 92.1614 240.453 83.46C240.453 74.7585 233.453 67.6792 224.848 67.6792C224.728 67.6792 224.631 67.5805 224.631 67.459C224.631 67.3375 224.728 67.2388 224.848 67.2388C233.693 67.2388 240.889 74.5159 240.889 83.46C240.888 92.4045 233.693 99.6812 224.848 99.6812Z" fill="#AFCCFC"/>
<path d="M232.229 93.1306H219.291V91.3697H230.488V88.5108H232.229V93.1306Z" fill="#AFCCFC"/>
<path d="M224.501 88.2104H222.759V74.356L215.626 80.4213L214.505 79.0733L224.501 70.5748V88.2104Z" fill="#AFCCFC"/>
<path d="M226.698 75.1274H228.439V84.9679H226.698V75.1274Z" fill="#AFCCFC"/>
</g>
<g clip-path="url(#clip3_327_9107)">
<path d="M568.734 297.309C567.859 298.18 566.649 298.715 565.373 298.645L149.1 297.809C146.413 297.804 144.334 295.717 144.339 293.03C144.344 290.343 146.431 288.265 149.117 288.271L565.391 289.106C568.078 289.112 570.156 291.199 570.151 293.886C570.149 295.229 569.609 296.437 568.734 297.309Z" fill="#A1C3FC"/>
</g>
<g clip-path="url(#clip4_327_9107)">
<path d="M314 275V153H332V275H314Z" fill="#FFC8C8"/>
</g>
<g clip-path="url(#clip5_327_9107)">
<path d="M238 240V276H223V240H238Z" fill="#FF5252"/>
</g>
<g clip-path="url(#clip6_327_9107)">
<path d="M365 125V275H346V125H365Z" fill="#749BFF"/>
</g>
<g clip-path="url(#clip7_327_9107)">
<path d="M263 208V276H250V208H263Z" fill="#FF8686"/>
</g>
<g clip-path="url(#clip8_327_9107)">
<path d="M467.575 69.915V274.645H447.515V69.915H467.575Z" fill="#0F52FF"/>
</g>
<g clip-path="url(#clip9_327_9107)">
<path d="M433.65 89.09V273.76H415.36V89.09H433.65Z" fill="#6590FF"/>
</g>
<g clip-path="url(#clip10_327_9107)">
<path d="M92.2309 417.281C94.2672 417.762 96.3035 418.243 98.3398 418.724C107.577 420.907 117.239 423.092 126.455 420.818C127.583 420.54 128.827 420.082 129.286 419.015C129.911 417.56 128.581 415.896 127.057 415.46C125.533 415.023 123.915 415.394 122.336 415.538C116.926 416.029 111.481 413.694 107.56 409.938C103.638 406.183 101.138 401.128 99.7585 395.879C96.6941 397.228 95.2891 400.711 94.1774 403.867C93.0136 407.169 91.8505 410.47 90.6867 413.772C90.359 414.701 90.0684 415.847 90.7264 416.582C91.1006 417.002 91.6839 417.152 92.2309 417.281Z" fill="#151A4F"/>
<path d="M153.434 270.261C158.569 283.919 140.45 331.459 135.932 345.458C130.057 363.662 118.658 379.893 113.154 398.415C111.863 402.76 111.915 407.701 111.295 412.035C110.985 414.202 105.92 413.923 100.907 411.94C93.494 409.009 96.6194 400.625 96.9354 393.071C97.6749 375.369 104.901 357.557 100.961 340.441C98.3308 329.009 94.054 317.387 92.9121 305.804C91.799 294.511 90.9238 272.091 98.677 263.106C116.718 242.197 145.6 230.617 153.434 270.261Z" fill="#1D72D8"/>
<path d="M165.392 165.335C167.039 162.793 169.852 156.928 167.893 154.554C165.456 154.484 161.995 154.316 159.532 154.692C156.545 154.955 161.507 162.547 159.23 165.361C157.224 167.84 154.968 170.145 153.783 173.188C158.337 171.109 161.016 167.222 165.392 165.335Z" fill="#076FF8"/>
<path d="M153.978 166.122C153.466 166.122 152.967 165.857 152.691 165.384C152.276 164.674 152.515 163.763 153.225 163.348L182.871 146.048C183.582 145.635 184.494 145.874 184.908 146.583C185.322 147.293 185.083 148.203 184.373 148.618L154.728 165.918C154.491 166.056 154.233 166.122 153.978 166.122Z" fill="#3040C4"/>
<path d="M156.97 182.058C156.403 178.78 156.36 175.142 158.869 173.063C161.776 170.653 163.763 170.025 166.138 166.956C167.116 165.892 166.031 159.079 164.743 155.688C164.104 154.725 163.176 154.361 161.865 155.321C161.023 155.939 158.476 158.202 157.86 159.07C155.95 161.761 157.902 162.554 158.498 164.642C160.17 164.862 161.298 164.238 160.855 161.454C160.71 160.543 161.267 159.626 162.397 159.629C162.494 160.471 163.072 161.948 162.322 162.869C159.63 166.175 152.567 169.845 150.582 172.232C146.417 177.238 150.769 181.266 151.218 186.982C152.99 185.924 155.242 185.617 156.937 184.306C156.661 183.481 157.219 183.095 156.97 182.058Z" fill="#FCF0E3"/>
<path d="M88.5133 425.02C90.5496 425.501 92.5859 425.982 94.6222 426.463C103.859 428.646 113.522 430.831 122.737 428.557C123.865 428.279 125.11 427.821 125.568 426.754C126.194 425.299 124.863 423.635 123.34 423.198C121.816 422.762 120.197 423.133 118.619 423.277C113.209 423.768 107.764 421.433 103.842 417.677C99.9203 413.922 97.4207 408.867 96.041 403.618C92.9766 404.967 91.5716 408.45 90.4598 411.606C89.296 414.908 88.1329 418.209 86.9691 421.511C86.6415 422.44 86.3509 423.586 87.0089 424.321C87.3824 424.741 87.9657 424.89 88.5133 425.02Z" fill="#3040C4"/>
<path d="M154.45 246.78C150.883 245.585 149.18 241.627 147.894 238.095C145.497 231.506 143.064 224.711 143.336 217.705C143.648 209.684 147.472 202.219 148.75 194.293C149.595 189.048 149.301 183.622 147.895 178.498C151.052 178.839 154.274 178.57 157.33 177.71C158.556 187.257 164.838 195.301 168.349 204.264C170.61 210.037 171.721 216.257 171.597 222.455C171.452 229.766 169.449 237.291 164.601 242.771C162.046 245.66 158.109 248.007 154.45 246.78Z" fill="#151A4F"/>
<path d="M100.746 414.645C97.542 398.267 101.22 379.158 112.893 366.577C115.996 363.233 121.962 355.139 124.928 351.673C129.448 346.39 132.153 339.134 133.913 334.957C139.902 320.747 147.236 307.098 154.521 271.064C154.723 270.063 159.7 250.936 158.68 250.865C149.556 250.233 140.023 248.331 138.635 248.25C118.878 247.09 115.309 251.228 95.7161 254.014C93.0677 254.391 90.0356 255.023 88.7744 257.38C85.5113 269.521 83.3228 281.95 82.2426 294.475C81.3962 304.292 81.2468 314.32 83.7574 323.849C85.5784 330.76 88.7587 337.254 90.5798 344.165C92.4008 351.075 89.7936 355.356 87.174 365.452C85.9348 370.227 77.4421 384.524 85.3022 414.813C88.1439 416.979 98.1074 416.339 100.746 414.645Z" fill="url(#paint2_linear_327_9107)"/>
<path d="M103.191 188.371C88.9196 207.193 79.2734 229.489 75.3283 252.77C74.3838 258.345 73.7683 264.12 75.1364 269.606C105.684 281.138 140.836 279.913 170.504 266.28C175.941 240.798 166.861 212.728 147.526 195.244C138.599 187.172 126.581 181.115 114.774 183.476C107.272 184.977 107.81 182.278 103.191 188.371Z" fill="url(#paint3_linear_327_9107)"/>
<path d="M185.546 228.971L155.975 240.312L140.809 200.843L170.38 189.501L185.546 228.971Z" fill="#A1C3FC"/>
<path d="M99.7934 152.774C101.854 151.824 102.198 148.703 100.736 146.969C99.2752 145.235 96.6454 144.849 94.4816 145.531C92.3178 146.213 90.5461 147.771 89.0005 149.43C87.5386 151 86.1849 152.754 85.5907 154.814C84.9971 156.874 85.296 159.299 86.7997 160.828C88.9416 163.005 92.751 162.584 95.1848 160.739C97.6186 158.894 99.0093 156.023 100.312 153.263C101.267 155.442 98.84 150.594 99.7934 152.774Z" fill="black"/>
<path d="M118.602 182.797C118.586 183.202 118.568 183.62 118.393 183.985C117.972 184.864 116.852 185.112 115.88 185.19C110.86 185.593 105.717 184.237 101.551 181.413C102.27 177.197 102.169 172.844 101.254 168.666C103.081 169.736 105.358 169.513 107.46 169.257C111.367 168.781 115.274 168.305 119.181 167.829C118.988 172.818 118.795 177.807 118.602 182.797Z" fill="#076FF8"/>
<path d="M95.9483 162.696C96.0539 161.717 96.2725 160.755 96.4905 159.794C96.7187 158.789 96.947 157.784 97.1752 156.778C97.4274 155.668 97.692 154.529 98.3369 153.592C99.1512 152.409 100.482 151.683 101.837 151.204C106.425 149.582 111.823 150.495 115.621 153.535C119.418 156.574 121.488 161.638 120.906 166.465C120.779 167.514 120.535 168.553 120.134 169.532C119.456 171.187 118.335 172.645 116.972 173.804C113.1 177.098 107.185 177.747 102.689 175.372C98.1937 172.997 95.4021 167.747 95.9483 162.696Z" fill="#FCF0E3"/>
<path d="M105.974 168.706C102.603 168.706 99.8606 165.966 99.8606 162.599C99.8606 159.231 102.603 156.491 105.974 156.491C109.345 156.491 112.087 159.231 112.087 162.599C112.087 165.966 109.345 168.706 105.974 168.706ZM105.974 157.518C103.17 157.518 100.889 159.797 100.889 162.598C100.889 165.399 103.17 167.678 105.974 167.678C108.778 167.678 111.059 165.399 111.059 162.598C111.059 159.797 108.778 157.518 105.974 157.518Z" fill="#3040C4"/>
<path d="M117.639 163.112C114.268 163.112 111.526 160.373 111.526 157.005C111.526 153.637 114.268 150.898 117.639 150.898C121.01 150.898 123.753 153.637 123.753 157.005C123.753 160.373 121.01 163.112 117.639 163.112ZM117.639 151.924C114.835 151.924 112.554 154.203 112.554 157.004C112.554 159.806 114.835 162.084 117.639 162.084C120.444 162.084 122.725 159.806 122.725 157.004C122.725 154.203 120.443 151.924 117.639 151.924Z" fill="#3040C4"/>
<path d="M92.0417 175.327C90.8916 175.327 89.7641 175.141 88.7106 174.765C88.5324 174.702 88.4392 174.506 88.503 174.328C88.5674 174.15 88.7627 174.057 88.9409 174.12C91.3275 174.971 94.1369 174.774 96.6475 173.581C99.1588 172.388 101.084 170.334 101.928 167.947C102.539 166.22 102.675 164.333 102.806 162.508C102.878 161.5 102.952 160.46 103.106 159.443C103.395 157.513 103.968 155.64 104.807 153.876C105.351 152.734 106.218 151.264 107.255 150.746C107.425 150.662 107.629 150.73 107.715 150.899C107.799 151.068 107.73 151.274 107.561 151.359C106.888 151.695 106.129 152.694 105.425 154.171C104.615 155.874 104.063 157.682 103.783 159.545C103.634 160.535 103.561 161.563 103.489 162.557C103.355 164.428 103.216 166.362 102.575 168.175C101.67 170.733 99.6166 172.929 96.9415 174.2C95.3692 174.947 93.6839 175.327 92.0417 175.327Z" fill="black"/>
<path d="M94.193 152.85C96.1992 150.797 100.219 149.484 103.091 149.499C105.963 149.514 109.479 150.253 111.392 151.169C106.207 151.877 101.576 154.067 99.8098 158.988C98.8284 161.723 98.8935 166.12 97.8236 168.822C96.7537 171.524 93.3432 173.894 90.4542 173.56C92.1232 170.379 91.7476 166.572 91.5885 162.985C91.4302 159.397 91.6818 155.42 94.193 152.85Z" fill="black"/>
<path d="M169.986 206.448C174.382 203.821 171.047 197.317 172.065 196.43C174.463 194.341 174.985 197.951 175.556 200.762C175.701 201.475 176.056 202.986 176.246 203.094C178.58 204.419 185.765 205.644 184.522 208.129C184.213 208.748 183.102 209.229 182.93 209.878C182.22 212.569 183.237 215.611 181.286 218.093C177.862 213.848 171.277 217.812 166.433 216.196C166.974 214.029 167.122 210.673 167.864 208.235C167.978 207.862 168.722 206.477 168.607 206.857L169.986 206.448Z" fill="#FCF0E3"/>
<path d="M122.317 232.422C111.825 229.897 100.592 226.93 93.6529 218.672C90.9285 215.429 89.0546 211.554 87.5851 207.583C85.6009 202.219 84.3227 196.207 86.2952 190.839C89.5618 181.947 100.945 178.227 110.115 180.633C119.285 183.038 126.531 189.957 132.755 197.103C135.539 200.3 138.376 204.558 136.718 208.459C147.538 202.855 160.33 203.625 170.198 206.381C171.789 210.462 171.257 215.852 170.475 216.934C170.274 217.212 168.298 218.662 167.024 219.261C159.15 222.971 153.508 230.676 145.278 233.511C137.93 236.041 129.875 234.241 122.317 232.422Z" fill="url(#paint4_linear_327_9107)"/>
<path d="M109.464 158.533C109.378 158.533 109.291 158.511 109.211 158.466C108.964 158.326 108.878 158.012 109.019 157.766C109.106 157.612 109.187 157.446 109.268 157.278C109.695 156.401 110.342 155.078 112.199 155.558C112.474 155.629 112.64 155.909 112.569 156.184C112.497 156.459 112.213 156.622 111.942 156.552C110.939 156.294 110.654 156.777 110.193 157.726C110.1 157.915 110.009 158.102 109.911 158.274C109.817 158.44 109.643 158.533 109.464 158.533Z" fill="#3040C4"/>
<path d="M181.689 146.754C182.022 147.375 182.42 148.169 182.854 148.74C183.246 149.257 183.335 149.236 183.335 149.236C183.335 149.236 184.672 148.48 184.889 148.323C186.276 147.317 186.867 146.611 188.014 145.505C188.552 144.986 189.128 143.803 187.993 143.96C187.389 144.044 186.73 144.153 186.167 144.362C184.747 144.888 183.464 145.705 182.12 146.418C181.887 146.541 181.689 146.663 181.689 146.754Z" fill="#F8CF61"/>
<path d="M86.8292 298.051C86.8765 297.971 86.8484 297.867 86.7675 297.82C86.6873 297.773 86.5832 297.801 86.5366 297.882C86.4893 297.962 86.5174 298.066 86.5982 298.113C86.6784 298.159 86.7819 298.133 86.8292 298.051ZM88.8998 280.845C88.9923 280.822 89.0478 280.726 89.0232 280.634C89.004 280.548 88.9183 280.495 88.834 280.515C88.8271 280.515 88.8196 280.518 88.8127 280.521C88.723 280.541 88.6681 280.63 88.688 280.721C88.7134 280.813 88.8079 280.869 88.8998 280.845ZM87.2905 289.492C87.3851 289.497 87.4694 289.43 87.4865 289.338C87.4982 289.242 87.4296 289.153 87.3323 289.142C87.2363 289.13 87.1479 289.199 87.1363 289.296C87.1322 289.391 87.1966 289.474 87.2905 289.492ZM107.494 299.581C107.67 299.611 107.839 299.496 107.874 299.32C107.913 299.152 107.808 298.984 107.641 298.944C107.635 298.943 107.63 298.941 107.624 298.94C107.448 298.91 107.279 299.025 107.244 299.201C107.209 299.374 107.32 299.545 107.494 299.581ZM99.7927 298.084C99.9709 298.115 100.139 297.996 100.168 297.818C100.198 297.643 100.084 297.478 99.9106 297.444C99.7372 297.409 99.5673 297.52 99.5316 297.693C99.5042 297.873 99.6187 298.043 99.7927 298.084ZM92.08 296.578C92.2534 296.613 92.4213 296.502 92.4563 296.329C92.457 296.325 92.457 296.322 92.4583 296.318C92.4974 296.15 92.3932 295.982 92.226 295.942C92.2198 295.941 92.215 295.939 92.2089 295.938C92.0307 295.91 91.86 296.025 91.8175 296.199C91.7887 296.376 91.9046 296.544 92.08 296.578ZM98.0539 313.442C98.1478 313.291 98.1012 313.093 97.949 312.999C97.7976 312.906 97.5995 312.952 97.5063 313.104C97.4151 313.253 97.4583 313.447 97.6043 313.542C97.7558 313.636 97.9552 313.592 98.0539 313.442ZM91.5063 309.109C91.5996 308.958 91.5536 308.76 91.4015 308.667C91.25 308.573 91.0519 308.62 90.9587 308.772C90.8676 308.92 90.9107 309.114 91.0567 309.21C91.2068 309.303 91.4076 309.259 91.5063 309.109ZM103.843 284.166C104.018 284.127 104.129 283.955 104.092 283.779C104.059 283.606 103.892 283.495 103.721 283.529C103.721 283.529 103.718 283.529 103.717 283.53C103.547 283.554 103.428 283.71 103.452 283.88C103.453 283.888 103.455 283.897 103.455 283.905C103.497 284.08 103.665 284.194 103.843 284.166ZM96.1417 285.724C96.3157 285.682 96.4302 285.515 96.4028 285.337C96.363 285.162 96.191 285.051 96.0155 285.088C95.8415 285.124 95.7284 285.294 95.7647 285.469C95.7647 285.471 95.7654 285.474 95.7654 285.474C95.799 285.647 95.9655 285.758 96.1362 285.726C96.1403 285.724 96.141 285.724 96.1417 285.724ZM88.4536 287.281C88.6229 287.25 88.7367 287.09 88.7058 286.922C88.7051 286.917 88.7038 286.912 88.7024 286.907C88.6736 286.732 88.5071 286.614 88.3316 286.643C88.3261 286.644 88.3206 286.645 88.3151 286.646C88.139 286.683 88.0259 286.855 88.0629 287.031C88.0999 287.207 88.274 287.32 88.4481 287.283C88.4509 287.281 88.4522 287.281 88.4536 287.281ZM93.6324 319.741C93.7318 319.618 93.714 319.437 93.5913 319.335C93.4686 319.235 93.2863 319.253 93.1849 319.376C93.0834 319.5 93.1026 319.681 93.226 319.783C93.3494 319.88 93.5303 319.863 93.6324 319.741ZM101.808 291.59C101.969 291.566 102.083 291.424 102.07 291.261C102.055 291.108 101.918 290.995 101.765 291.01C101.76 291.01 101.756 291.01 101.752 291.012C101.593 291.025 101.475 291.165 101.49 291.323C101.49 291.325 101.491 291.327 101.491 291.329C101.512 291.484 101.649 291.599 101.808 291.59ZM94.849 292.312C95.0066 292.293 95.1177 292.15 95.1005 291.996C95.0861 291.842 94.9491 291.729 94.7955 291.744C94.7907 291.745 94.7873 291.745 94.7832 291.746C94.6242 291.759 94.5063 291.9 94.5193 292.058C94.5193 292.06 94.52 292.061 94.52 292.064C94.544 292.22 94.69 292.331 94.849 292.312ZM87.8676 293.046C88.0266 293.033 88.1445 292.893 88.1315 292.735L88.1308 292.729C88.1212 292.579 87.9903 292.466 87.8402 292.476C87.8313 292.476 87.821 292.478 87.8121 292.479C87.6531 292.492 87.5352 292.633 87.5482 292.791C87.5482 292.793 87.5489 292.794 87.5489 292.796C87.5722 292.95 87.712 293.06 87.8676 293.046ZM96.8024 306.104C96.9573 306.145 97.1149 306.055 97.1588 305.901C97.2047 305.749 97.1183 305.59 96.9676 305.545C96.814 305.502 96.6523 305.586 96.5995 305.736C96.5556 305.893 96.6461 306.056 96.8024 306.104ZM90.0814 304.105C90.2274 304.153 90.385 304.076 90.4337 303.931C90.4358 303.926 90.4364 303.92 90.4392 303.915C90.4851 303.763 90.3987 303.604 90.248 303.559C90.0944 303.516 89.9327 303.6 89.8799 303.75C89.8381 303.903 89.9279 304.062 90.0814 304.105ZM94.4426 279.401C94.5776 279.332 94.6304 279.167 94.5618 279.033C94.5591 279.027 94.5563 279.022 94.5536 279.018C94.4816 278.876 94.3075 278.82 94.1657 278.891C94.1629 278.893 94.1595 278.895 94.1568 278.896C94.0204 278.978 93.9717 279.151 94.0471 279.292C94.1211 279.431 94.2938 279.482 94.4323 279.409C94.4357 279.407 94.4385 279.403 94.4426 279.401ZM88.2788 282.746C88.42 282.668 88.4742 282.493 88.4001 282.349C88.3193 282.209 88.1397 282.16 87.9999 282.241C87.8662 282.318 87.8148 282.485 87.8827 282.624C87.9519 282.765 88.1239 282.823 88.2644 282.753C88.2692 282.752 88.2747 282.748 88.2788 282.746ZM101 320.789C101.18 320.832 101.362 320.728 101.414 320.55C101.465 320.373 101.364 320.188 101.188 320.137C101.008 320.091 100.824 320.197 100.774 320.376C100.723 320.552 100.824 320.737 101 320.789ZM93.2185 318.564C93.396 318.616 93.581 318.514 93.6324 318.338C93.6838 318.162 93.5824 317.976 93.4062 317.924C93.2287 317.872 93.0437 317.974 92.9923 318.15C92.9402 318.327 93.0423 318.512 93.2185 318.564ZM97.3575 286.947C97.5186 286.852 97.5776 286.647 97.4898 286.481C97.3946 286.321 97.1855 286.269 97.0258 286.366C96.8716 286.459 96.8174 286.656 96.9024 286.814C96.995 286.973 97.1944 287.032 97.3575 286.947ZM90.285 290.874C90.4433 290.782 90.5022 290.582 90.4172 290.419C90.3281 290.257 90.1246 290.198 89.9621 290.287C89.7997 290.376 89.7408 290.58 89.8299 290.742C89.921 290.901 90.1232 290.958 90.285 290.874ZM98.8346 304.506C99.0155 304.476 99.1437 304.312 99.1313 304.13C99.1039 303.949 98.9367 303.823 98.7551 303.845C98.5741 303.862 98.4405 304.022 98.4583 304.203C98.4583 304.203 98.459 304.208 98.459 304.21C98.4802 304.396 98.6475 304.527 98.8346 304.506C98.8346 304.506 98.8332 304.506 98.8346 304.506ZM90.788 305.43C90.9738 305.408 91.1061 305.239 91.0848 305.054V305.054C91.0636 304.875 90.8998 304.747 90.7209 304.77C90.5386 304.791 90.4063 304.954 90.4275 305.136C90.4453 305.315 90.6071 305.446 90.788 305.43ZM100.819 309.686C101 309.668 101.133 309.505 101.115 309.322C101.096 309.138 100.934 309.007 100.75 309.026C100.573 309.044 100.441 309.199 100.453 309.377C100.47 309.563 100.633 309.7 100.819 309.686ZM92.7784 310.274C92.9635 310.257 93.1019 310.094 93.0862 309.909C93.069 309.73 92.9128 309.595 92.7332 309.601C92.5475 309.62 92.4083 309.78 92.4138 309.965C92.433 310.149 92.5941 310.284 92.7784 310.274ZM92.5783 294.993C92.7421 294.905 92.8058 294.703 92.7222 294.538C92.6393 294.377 92.4405 294.312 92.2788 294.394C92.115 294.468 92.0416 294.661 92.1157 294.824C92.1177 294.828 92.1191 294.833 92.1232 294.836C92.202 295.004 92.4008 295.076 92.5687 294.996C92.5721 294.996 92.5756 294.995 92.5783 294.993Z" fill="white"/>
<path d="M187.993 143.96C187.389 144.044 186.73 144.153 186.167 144.362C186.056 144.403 185.951 144.456 185.842 144.5L186.94 146.565C187.268 146.241 187.605 145.899 188.014 145.505C188.552 144.986 189.128 143.803 187.993 143.96Z" fill="#3040C4"/>
</g>
<path d="M472.311 85.9318C472.218 89.7673 472.124 93.6028 472.031 97.4391C472.02 97.8925 472.016 98.3746 472.255 98.7604C472.811 99.657 474.325 99.3522 474.896 98.4649C475.467 97.5775 475.382 96.4367 475.275 95.3876C476.065 97.0316 475.817 100.293 477.645 100.319C479 100.338 478.913 97.9275 479.587 96.754C480.939 98.4244 482.891 99.7729 485.042 99.783C487.194 99.7931 489.394 98.0721 489.353 95.9257C489.297 93.067 485.948 91.6532 483.228 90.7487C479.447 89.4897 475.787 87.8752 472.311 85.9318Z" fill="#076FF8"/>
<path d="M474.58 90.5084C474.258 90.2883 473.919 90.0613 473.532 90.0068C472.434 89.8513 471.63 91.2223 471.893 92.2971C472.157 93.3718 473.07 94.1449 473.933 94.8409C476.577 96.9756 479.222 99.1103 481.867 101.244C482.881 102.063 483.947 102.907 485.221 103.183C485.989 103.349 486.809 103.304 487.53 103.616C488.807 104.171 489.367 105.64 489.797 106.962C491.409 111.908 493.02 116.855 494.632 121.801C497.198 120.091 500.444 119.428 503.476 119.996C498.96 109.982 491.912 91.1562 490.905 90.9937C482.321 89.5449 474.457 85.6806 467.714 80.1879C467.235 79.7975 466.643 79.3729 466.055 79.5634C465.145 79.8581 465.26 81.1903 465.682 82.0457C467.435 85.5919 471.092 87.778 474.727 89.352C478.362 90.926 482.24 92.1314 485.359 94.5695C485.525 95.5641 485.316 96.6163 484.783 97.4733C481.382 95.1527 477.981 92.8306 474.58 90.5084Z" fill="#FCF0E3"/>
<path d="M616.974 288.398C617.421 288.134 617.607 287.578 617.641 287.061C617.818 284.402 615.033 282.373 614.749 279.722C614.531 277.7 615.877 275.769 617.602 274.685C619.327 273.602 621.381 273.198 623.382 272.815C619.144 267.071 615.761 260.699 613.38 253.974C612.158 256.348 610.746 258.623 609.159 260.77C608.507 261.653 607.47 262.616 606.466 262.172C608.116 265.762 609.584 268.759 611.234 272.349C610.132 274.343 609.203 276.394 609.315 277.755C609.427 279.115 610.426 280.314 611.042 281.533C612.129 283.686 612.878 284.549 613.965 286.703C614.48 287.722 615.991 288.981 616.974 288.398Z" fill="#FCF0E3"/>
<path d="M542.761 406.441C546.816 405.212 550.891 403.977 555.087 403.382C562.079 402.389 569.187 403.196 576.197 404.05C574.61 408.531 573.536 413.193 573.003 417.916C557.081 417.881 541.002 417.881 525.23 417.881C524.761 415.012 536.153 408.445 542.761 406.441Z" fill="#D6D7D8"/>
<path d="M548.352 433.909C546.971 432.636 551.496 428.498 554.139 426.673C556.492 425.047 559.258 424.142 561.979 423.257C576.464 418.549 592.291 413.845 606.589 419.091C605.989 424.573 606.542 433.909 606.542 433.909C606.542 433.909 555.257 433.866 548.352 433.909Z" fill="url(#paint5_linear_327_9107)"/>
<path d="M541.133 249.562C540.04 249.693 538.857 249.867 538.092 250.656C537.258 251.516 537.18 252.836 537.194 254.032C537.325 264.285 540.786 274.202 541.864 284.4C542.91 294.3 541.693 304.28 541.426 314.232C540.609 344.612 548.645 374.798 546.954 405.142C559.875 404.074 569.744 404.922 578.469 405.245C572.41 372.107 566.325 338.554 568.627 304.946C569.973 285.306 574.07 264.854 567.071 246.448C558.425 247.486 549.779 248.524 541.133 249.562Z" fill="#151A4F"/>
<path d="M514.391 138.301C512.975 134.861 512.728 131.069 511.842 127.457C510.325 121.264 504.299 111.545 499.495 107.341C498.792 106.726 497.238 105.089 497.238 105.089C497.238 105.089 495.194 106.144 494.295 106.476C490.975 107.7 489.996 107.941 489.996 107.941C489.47 114.755 488.534 122.717 489.47 129.626C491.8 146.843 493.527 149.66 503.247 162.668C511.655 173.92 521.006 178.049 530.246 188.63C532.058 190.704 534.066 193.038 536.812 193.295C540.004 193.594 542.813 190.731 543.516 187.611C544.219 184.491 551.382 185.75 550.319 182.733C546.24 171.164 534.005 160.049 525.276 151.413C521.206 147.386 516.57 143.59 514.391 138.301Z" fill="#1D72D8"/>
<path d="M558.241 169.347C564.566 170.92 568.182 173.863 570.845 179.798C573.509 185.734 570.193 199.86 570.967 206.317C572.901 222.458 569.986 232.782 572.002 247.862C566.096 252.047 540.471 250.999 535.694 249.539C528.462 239.281 527.627 231.353 523.417 219.538C518.126 204.692 517.96 188.431 515.622 170.544C515.194 167.272 527.321 162.248 530.266 160.746C534.735 158.467 537.581 162.435 542.427 163.738C547.362 165.065 552.8 165.367 558.241 169.347Z" fill="url(#paint6_linear_327_9107)"/>
<path d="M538.747 150.746C539.092 158.563 538.915 163.03 539.177 170.86C544.426 173.051 550.384 168.233 555.657 170.741C554.736 164.599 554.479 159.439 554.473 153.228C549.137 153.407 543.768 152.559 538.747 150.746Z" fill="#076FF8"/>
<path d="M558.077 156.772C560.628 155.388 567.203 151.849 568.33 150.366C570.11 148.025 570.119 144.71 569.097 141.954C568.075 139.198 566.17 136.874 564.3 134.604C563.016 133.049 561.627 131.419 559.707 130.798C557.749 130.165 555.626 130.703 553.641 131.243C550.035 132.224 546.428 133.205 542.823 134.185C542.087 134.385 541.277 134.641 540.9 135.302C540.567 135.886 540.676 136.606 540.656 137.277C540.556 140.669 537.081 143.058 536.335 146.367C535.275 151.064 538.003 151.947 542.2 154.322C544.537 155.644 547.778 156.285 550.384 156.935C553.003 157.589 556.637 157.554 558.077 156.772Z" fill="#FCF0E3"/>
<path d="M537.686 141.632C535.529 143.906 534.213 146.225 532.056 148.499C531.636 148.942 531.188 149.455 531.209 150.065C531.234 150.8 531.919 151.317 532.537 151.719C536.996 154.63 540.078 157.074 544.537 159.984C545.057 160.324 546.329 160.691 546.949 160.653C547.549 160.616 549.041 159.746 549.506 159.367C551.975 157.358 551.804 156.283 554.16 154.142C555.775 152.674 559.588 149.803 557.768 148.596C555.979 149.574 554.191 150.551 552.402 151.528C550.738 152.438 549.015 153.366 547.127 153.557C545.239 153.748 543.123 153.015 542.258 151.33C544.106 148.4 543.934 144.338 541.847 141.572C541.507 141.122 541.048 140.789 540.516 140.599C539.111 140.099 538.225 141.063 537.686 141.632Z" fill="black"/>
<path d="M552.366 141.316C552.975 141.316 553.588 141.225 554.191 141.045C555.493 140.657 556.603 139.896 557.316 138.902C558.05 137.878 558.279 136.729 557.962 135.668C557.477 134.051 555.755 132.966 553.676 132.966C553.068 132.966 552.454 133.057 551.852 133.236C549.127 134.048 547.436 136.461 548.08 138.614C548.564 140.23 550.287 141.316 552.366 141.316ZM553.676 133.743C555.408 133.743 556.83 134.606 557.215 135.891C557.462 136.717 557.273 137.625 556.682 138.45C556.069 139.305 555.105 139.962 553.968 140.301C553.438 140.459 552.898 140.539 552.366 140.539C550.634 140.539 549.212 139.676 548.827 138.392C548.306 136.65 549.762 134.672 552.074 133.982C552.605 133.824 553.144 133.743 553.676 133.743Z" fill="#3040C4"/>
<path d="M617.835 263.865C614.167 267.29 609.845 269.601 609.845 269.601C609.845 269.601 606.823 267.515 603.87 265.341C596.875 260.192 582.748 247.665 578.792 239.942C573.205 229.036 567.619 218.13 562.032 207.225C558.316 199.971 555.477 190.197 554.658 182.092C554.072 176.302 555.87 171.077 561.701 171.245C565.649 171.358 568.404 175.043 570.576 178.334C588.193 205.036 610.04 235.966 617.835 263.865Z" fill="url(#paint7_linear_327_9107)"/>
<path d="M594.714 351.299C596.566 360.793 594.258 370.702 595.912 380.232C598.418 394.679 609.852 407.704 607.417 422.164C595.366 420.082 582.042 421.232 571.001 420.454C573.184 361.554 537.554 308.02 535.402 249.118C548.263 251.325 557.52 251.811 571.996 247.827C585.567 269.786 574.768 299.207 583.304 323.558C586.619 333.016 592.797 341.464 594.714 351.299Z" fill="url(#paint8_linear_327_9107)"/>
<path d="M615.382 329.355L647.221 326.577C648.508 326.465 649.459 325.332 649.346 324.049L645.168 276.404C645.056 275.12 643.921 274.17 642.635 274.283L610.796 277.062C609.51 277.174 608.558 278.306 608.671 279.589L612.849 327.235C612.961 328.518 614.095 329.468 615.382 329.355Z" fill="#F8CF61"/>
<path d="M542.066 182.813C544.784 181.326 545.924 180.452 548.993 178.002C550.671 176.664 552.885 174.484 554.438 173.003C555.745 171.756 557.042 170.5 558.331 169.234C556.75 167.681 555.71 165.394 554.858 163.35C552.315 166.062 551.307 166.89 548.292 168.554C547.102 169.211 541.253 171.991 540.178 171.159C540.742 175.079 541.843 178.861 542.066 182.813Z" fill="#5196FC"/>
<path d="M537.3 142.777C539.231 143.569 540.127 146.203 539.077 148.004C538.038 146.732 536.751 145.662 535.31 144.872C535.883 144.096 536.553 143.39 537.3 142.777Z" fill="#FCF0E3"/>
<path d="M545.018 134.266C545.943 134.266 547.085 134.001 548.235 133.519C549.312 133.068 550.262 132.48 550.91 131.861C551.649 131.157 551.928 130.463 551.694 129.91C551.538 129.539 551.102 129.099 549.907 129.099C548.981 129.099 547.839 129.364 546.69 129.846C545.612 130.298 544.662 130.885 544.014 131.504C543.275 132.208 542.996 132.902 543.23 133.456C543.386 133.825 543.823 134.266 545.018 134.266ZM549.907 129.876C550.591 129.876 550.908 130.049 550.976 130.21C551.047 130.379 550.932 130.765 550.372 131.299C549.791 131.853 548.926 132.386 547.934 132.802C546.893 133.239 545.831 133.488 545.018 133.488C544.334 133.488 544.017 133.316 543.949 133.154C543.878 132.985 543.994 132.599 544.553 132.065C545.134 131.512 545.999 130.978 546.99 130.562C548.033 130.126 549.095 129.876 549.907 129.876Z" fill="#3040C4"/>
<path d="M556.271 134.38C556.381 134.38 556.49 134.335 556.567 134.245C556.707 134.083 556.689 133.837 556.526 133.697C555.843 133.111 555.009 132.446 554.125 131.741C553.22 131.019 552.255 130.249 551.327 129.465C551.163 129.325 550.916 129.346 550.777 129.51C550.638 129.674 550.659 129.919 550.823 130.058C551.756 130.847 552.729 131.623 553.638 132.348C554.516 133.048 555.345 133.709 556.016 134.286C556.091 134.35 556.181 134.38 556.271 134.38Z" fill="#3040C4"/>
<path d="M540.177 171.29C540.142 171.475 539.898 171.726 539.786 171.878C537.929 174.379 536.073 176.881 534.217 179.383C534.265 173.709 535.366 166.728 539.02 162.379C538.996 164.7 539.165 168.036 539.853 170.415C539.908 170.609 540.214 171.091 540.177 171.29Z" fill="#5196FC"/>
<path d="M641.81 281.774L612.541 284.33L616.314 327.327L645.582 324.771L641.81 281.774Z" fill="white"/>
<path d="M638.029 324.259L622.11 325.65L622.586 331.073L638.505 329.683L638.029 324.259Z" fill="black"/>
<path d="M629.114 280.208C629.143 281.517 629.745 282.842 629.446 284.118C629.148 285.395 629.211 286.11 628.117 286.836C627.918 286.969 626.769 287.207 626.53 287.189C626.039 287.151 625.783 286.596 625.656 286.121C625.19 284.379 624.801 282.39 625.062 280.606C625.466 282.88 625.514 285.416 624.68 287.57C624.399 288.293 623.779 289.122 623.037 288.89C622.598 288.751 622.358 288.286 622.198 287.855C620.427 283.07 620.745 277.759 618.485 273.183C617.866 271.93 618.794 270.28 619.052 268.907C623.048 270.235 627.017 271.644 630.955 273.133C631.529 273.35 632.157 273.618 632.408 274.177C632.546 274.485 632.545 274.835 632.542 275.172C632.514 277.826 632.485 280.48 632.457 283.134C632.451 283.71 632.439 284.311 632.172 284.822C631.906 285.334 631.302 285.72 630.752 285.542C630.132 285.341 629.75 284.829 629.647 284.186C629.425 282.814 629.098 281.596 629.114 280.208Z" fill="url(#paint9_linear_327_9107)"/>
<path d="M613.669 271.767C613.388 271.797 612.618 272.593 612.426 272.8C611.845 273.421 614.454 275.349 615.228 275.701C617.645 276.8 617.591 276.984 618.461 279.487C619.311 281.929 620.232 285.037 621.082 287.48C622.096 290.395 622.732 296.533 624.629 296.041C627.661 295.256 625.729 289.323 625.305 286.225C624.816 282.644 623.918 277.111 623.722 276.239C623.375 274.686 619.273 272.837 617.731 272.429C616.19 272.021 615.256 271.602 613.669 271.767Z" fill="#FCF0E3"/>
<path d="M638.523 297.57L617.84 299.376L617.982 300.994L638.665 299.188L638.523 297.57Z" fill="#D6D7D8"/>
<path d="M638.842 301.211L618.16 303.017L618.302 304.635L638.984 302.829L638.842 301.211Z" fill="#D6D7D8"/>
<path d="M639.162 304.852L618.48 306.658L618.622 308.276L639.304 306.47L639.162 304.852Z" fill="#D6D7D8"/>
<path d="M639.481 308.494L618.799 310.3L618.941 311.918L639.623 310.112L639.481 308.494Z" fill="#D6D7D8"/>
<path d="M639.801 312.135L619.118 313.941L619.26 315.559L639.943 313.753L639.801 312.135Z" fill="#D6D7D8"/>
<path d="M640.12 315.776L619.437 317.582L619.579 319.201L640.262 317.394L640.12 315.776Z" fill="#D6D7D8"/>
<path d="M633.377 297.789L631.053 297.992L631.234 300.059L633.558 299.856L633.377 297.789Z" fill="white"/>
<path d="M631.353 305.386L623.627 306.061L623.808 308.128L631.535 307.454L631.353 305.386Z" fill="white"/>
<path d="M636.817 312.108L632.797 312.459L632.979 314.527L636.999 314.176L636.817 312.108Z" fill="white"/>
<path d="M634.414 316.106L630.394 316.457L630.576 318.525L634.596 318.174L634.414 316.106Z" fill="white"/>
<path d="M554.132 254.501C555.112 265.691 562.853 276.024 573.333 280.131" stroke="#076FF8" stroke-width="2.20272" stroke-miterlimit="10"/>
<path opacity="0.86" d="M559.188 187.719C559.304 187.787 559.352 187.972 559.283 188.089C559.215 188.206 559.029 188.253 558.913 188.185C558.797 188.116 558.749 187.931 558.818 187.815C558.887 187.697 559.014 187.616 559.188 187.719ZM580.193 203.239C580.378 203.191 580.495 203.26 580.543 203.445C580.625 203.573 580.523 203.746 580.396 203.829C580.211 203.876 580.094 203.808 580.046 203.622C579.997 203.438 580.066 203.322 580.193 203.239ZM573.804 205.277C573.989 205.229 574.106 205.298 574.154 205.483C574.202 205.668 574.133 205.784 573.948 205.832C573.82 205.914 573.647 205.811 573.598 205.626C573.609 205.474 573.712 205.3 573.804 205.277ZM570.839 192.471C570.921 192.599 570.91 192.748 570.783 192.831C570.656 192.912 570.506 192.902 570.423 192.775C570.341 192.648 570.352 192.499 570.479 192.416C570.547 192.299 570.757 192.344 570.839 192.471ZM565.721 196.746C565.802 196.874 565.792 197.023 565.665 197.106C565.537 197.187 565.388 197.177 565.305 197.05C565.223 196.923 565.233 196.773 565.36 196.691C565.487 196.609 565.639 196.619 565.721 196.746ZM578.627 216.666C578.778 216.677 578.86 216.804 578.849 216.954C578.839 217.105 578.711 217.187 578.561 217.176C578.409 217.166 578.328 217.039 578.303 216.946C578.349 216.738 578.476 216.656 578.627 216.666ZM566.45 187.531C566.566 187.599 566.556 187.75 566.488 187.866C566.419 187.983 566.268 187.972 566.152 187.903C566.036 187.835 566.046 187.684 566.115 187.568C566.241 187.486 566.333 187.462 566.45 187.531ZM562.271 191.81C562.387 191.879 562.377 192.03 562.309 192.146C562.24 192.262 562.089 192.251 561.973 192.183C561.857 192.114 561.867 191.964 561.936 191.848C562.038 191.673 562.189 191.684 562.271 191.81ZM576.2 210.531C576.351 210.541 576.433 210.667 576.457 210.761C576.447 210.912 576.379 211.028 576.228 211.017C576.076 211.007 575.961 210.938 575.97 210.787C575.947 210.695 576.016 210.578 576.2 210.531ZM551.977 188.487C552.093 188.555 552.175 188.682 552.107 188.798C552.039 188.915 551.912 188.997 551.795 188.928C551.678 188.86 551.597 188.733 551.665 188.616C551.734 188.501 551.862 188.418 551.977 188.487ZM570.494 198.776C570.622 198.694 570.796 198.797 570.82 198.89C570.902 199.017 570.833 199.133 570.707 199.215C570.579 199.297 570.464 199.229 570.381 199.102C570.298 198.974 570.401 198.799 570.494 198.776ZM565.024 201.118C565.151 201.037 565.267 201.105 565.349 201.232C565.431 201.359 565.363 201.475 565.236 201.558C565.109 201.639 564.993 201.571 564.911 201.444C564.828 201.317 564.897 201.2 565.024 201.118ZM555.003 188.154C555.061 188.188 555.051 188.339 555.016 188.397C554.982 188.455 554.832 188.445 554.773 188.41C554.715 188.376 554.725 188.225 554.76 188.167C554.828 188.05 554.886 188.084 555.003 188.154ZM561.701 203.551C561.793 203.528 561.817 203.619 561.841 203.712C561.865 203.804 561.738 203.887 561.68 203.852C561.587 203.875 561.505 203.748 561.539 203.691C561.517 203.599 561.609 203.575 561.701 203.551ZM546.698 185.452C546.757 185.486 546.838 185.613 546.804 185.671C546.77 185.73 546.643 185.811 546.584 185.777C546.526 185.743 546.444 185.616 546.478 185.558C546.548 185.441 546.64 185.418 546.698 185.452ZM572.597 185.902C572.725 185.82 572.899 185.923 572.982 186.049C573.063 186.177 572.961 186.35 572.834 186.433C572.706 186.514 572.533 186.412 572.45 186.285C572.368 186.157 572.47 185.983 572.597 185.902ZM566.226 188.574C566.353 188.493 566.527 188.595 566.61 188.722C566.692 188.85 566.59 189.023 566.463 189.106C566.335 189.187 566.161 189.085 566.078 188.958C566.03 188.773 566.099 188.656 566.226 188.574ZM559.888 191.19C560.016 191.108 560.19 191.211 560.273 191.338C560.354 191.465 560.252 191.638 560.125 191.721C559.997 191.803 559.824 191.7 559.741 191.573C559.657 191.446 559.761 191.271 559.888 191.19ZM552.488 185.494C552.57 185.622 552.619 185.806 552.491 185.888C552.364 185.969 552.18 186.017 552.098 185.891C552.016 185.763 551.968 185.579 552.095 185.497C552.22 185.415 552.406 185.367 552.488 185.494ZM572.417 199.91C572.568 199.92 572.708 200.082 572.697 200.233C572.687 200.383 572.526 200.523 572.374 200.513C572.223 200.502 572.049 200.399 572.059 200.248C572.105 200.039 572.232 199.957 572.417 199.91ZM565.501 199.911C565.653 199.921 565.827 200.024 565.782 200.233C565.772 200.384 565.644 200.466 565.518 200.548C565.367 200.538 565.192 200.435 565.203 200.284C565.19 200.039 565.317 199.958 565.501 199.911ZM547.619 184.426C547.701 184.554 547.749 184.738 547.622 184.82C547.494 184.901 547.31 184.95 547.228 184.823C547.112 184.754 547.065 184.569 547.225 184.429C547.293 184.313 547.478 184.265 547.619 184.426ZM573.553 195.326C573.704 195.336 573.879 195.44 573.868 195.591C573.857 195.742 573.755 195.916 573.604 195.906C573.452 195.895 573.337 195.826 573.289 195.641C573.299 195.49 573.402 195.315 573.553 195.326ZM566.675 195.661C566.827 195.672 567.001 195.775 566.99 195.926C566.98 196.077 566.911 196.193 566.726 196.241C566.575 196.231 566.4 196.127 566.411 195.976C566.456 195.768 566.525 195.651 566.675 195.661ZM559.833 195.941C559.984 195.951 560.159 196.054 560.148 196.205C560.138 196.356 560.035 196.531 559.884 196.52C559.732 196.51 559.558 196.406 559.569 196.256C559.52 196.07 559.682 195.93 559.833 195.941ZM560.237 185.279C560.365 185.197 560.538 185.3 560.621 185.426C560.703 185.554 560.601 185.727 560.474 185.81C560.346 185.891 560.172 185.789 560.089 185.662C560.041 185.478 560.11 185.361 560.237 185.279ZM553.97 188.172C554.098 188.09 554.272 188.193 554.354 188.319C554.436 188.447 554.334 188.62 554.207 188.703C554.079 188.784 553.905 188.682 553.823 188.555C553.775 188.37 553.843 188.253 553.97 188.172ZM562.067 198.277C562.218 198.287 562.242 198.38 562.231 198.53C562.221 198.681 562.128 198.705 561.977 198.694C561.825 198.684 561.802 198.591 561.813 198.441C561.881 198.324 561.916 198.266 562.067 198.277ZM558.945 187.732C559.038 187.709 559.155 187.777 559.177 187.869C559.201 187.962 559.133 188.078 559.04 188.101C558.947 188.124 558.83 188.056 558.808 187.964C558.784 187.872 558.852 187.756 558.945 187.732ZM553.918 188.925C554.011 188.902 554.128 188.97 554.209 189.097C554.234 189.19 554.165 189.306 554.072 189.329C553.98 189.352 553.863 189.284 553.84 189.192C553.699 189.031 553.768 188.914 553.918 188.925Z" fill="white"/>
<g clip-path="url(#clip11_327_9107)">
<path d="M321.845 347.51C325.592 347.51 328.63 344.472 328.63 340.725C328.63 336.978 325.592 333.94 321.845 333.94C318.098 333.94 315.06 336.978 315.06 340.725C315.06 344.472 318.098 347.51 321.845 347.51Z" fill="#F8CF61"/>
</g>
<g clip-path="url(#clip12_327_9107)">
<path d="M357.54 346.33C360.798 346.33 363.44 343.688 363.44 340.43C363.44 337.171 360.798 334.53 357.54 334.53C354.282 334.53 351.64 337.171 351.64 340.43C351.64 343.688 354.282 346.33 357.54 346.33Z" fill="#A1C3FC"/>
</g>
<g clip-path="url(#clip13_327_9107)">
<path d="M394.71 346.33C397.969 346.33 400.61 343.688 400.61 340.43C400.61 337.171 397.969 334.53 394.71 334.53C391.452 334.53 388.81 337.171 388.81 340.43C388.81 343.688 391.452 346.33 394.71 346.33Z" fill="white"/>
</g>
</g>
<defs>
<linearGradient id="paint0_linear_327_9107" x1="97.9399" y1="202.051" x2="599.44" y2="202.051" gradientUnits="userSpaceOnUse">
<stop stop-color="#EEEEEE"/>
<stop offset="1" stop-color="#D6D7D8"/>
</linearGradient>
<linearGradient id="paint1_linear_327_9107" x1="205.91" y1="83.4601" x2="243.785" y2="83.4601" gradientUnits="userSpaceOnUse">
<stop stop-color="#A1C3FC"/>
<stop offset="1" stop-color="#78A9EF"/>
</linearGradient>
<linearGradient id="paint2_linear_327_9107" x1="70.3408" y1="361.611" x2="145.205" y2="282.625" gradientUnits="userSpaceOnUse">
<stop stop-color="#428DFC"/>
<stop offset="1" stop-color="#1D72D8"/>
</linearGradient>
<linearGradient id="paint3_linear_327_9107" x1="123.201" y1="278.318" x2="123.201" y2="202.44" gradientUnits="userSpaceOnUse">
<stop stop-color="#23286B"/>
<stop offset="1" stop-color="#151A4F"/>
</linearGradient>
<linearGradient id="paint4_linear_327_9107" x1="97.6719" y1="218.451" x2="157.22" y2="190.139" gradientUnits="userSpaceOnUse">
<stop stop-color="#23286B"/>
<stop offset="1" stop-color="#151A4F"/>
</linearGradient>
<linearGradient id="paint5_linear_327_9107" x1="606.589" y1="425.347" x2="548.096" y2="425.347" gradientUnits="userSpaceOnUse">
<stop stop-color="#EEEEEE"/>
<stop offset="1" stop-color="#D6D7D8"/>
</linearGradient>
<linearGradient id="paint6_linear_327_9107" x1="567.707" y1="211.795" x2="512.022" y2="199.987" gradientUnits="userSpaceOnUse">
<stop stop-color="#428DFC"/>
<stop offset="1" stop-color="#1D72D8"/>
</linearGradient>
<linearGradient id="paint7_linear_327_9107" x1="595.877" y1="212.877" x2="563.011" y2="235.125" gradientUnits="userSpaceOnUse">
<stop stop-color="#428DFC"/>
<stop offset="1" stop-color="#1D72D8"/>
</linearGradient>
<linearGradient id="paint8_linear_327_9107" x1="540.345" y1="310.46" x2="616.604" y2="368.7" gradientUnits="userSpaceOnUse">
<stop stop-color="#23286B"/>
<stop offset="1" stop-color="#151A4F"/>
</linearGradient>
<linearGradient id="paint9_linear_327_9107" x1="625.449" y1="275.54" x2="624.92" y2="289.46" gradientUnits="userSpaceOnUse">
<stop stop-color="#076FF8"/>
<stop offset="1" stop-color="#3040C4"/>
</linearGradient>
<clipPath id="clip0_327_9107">
<rect width="708" height="472" fill="white"/>
</clipPath>
<clipPath id="clip1_327_9107">
<rect width="501.5" height="375.83" fill="white" transform="translate(97.9399 39.53)"/>
</clipPath>
<clipPath id="clip2_327_9107">
<rect width="63.72" height="49.56" fill="white" transform="translate(205.91 64.31)"/>
</clipPath>
<clipPath id="clip3_327_9107">
<rect width="303.85" height="303.85" fill="white" transform="translate(142.391 293.093) rotate(-44.8847)"/>
</clipPath>
<clipPath id="clip4_327_9107">
<rect width="178.18" height="17.7" fill="white" transform="matrix(0 -1 1 0 314.47 274.94)"/>
</clipPath>
<clipPath id="clip5_327_9107">
<rect width="149.86" height="14.75" fill="white" transform="matrix(0 1 -1 0 238.065 126.555)"/>
</clipPath>
<clipPath id="clip6_327_9107">
<rect width="196.47" height="19.47" fill="white" transform="matrix(0 1 -1 0 365.21 78.47)"/>
</clipPath>
<clipPath id="clip7_327_9107">
<rect width="122.13" height="12.39" fill="white" transform="matrix(0 1 -1 0 262.55 153.4)"/>
</clipPath>
<clipPath id="clip8_327_9107">
<rect width="204.73" height="20.06" fill="white" transform="matrix(0 1 -1 0 467.575 69.915)"/>
</clipPath>
<clipPath id="clip9_327_9107">
<rect width="184.67" height="18.29" fill="white" transform="matrix(0 1 -1 0 433.65 89.09)"/>
</clipPath>
<clipPath id="clip10_327_9107">
<rect width="114.46" height="285.56" fill="white" transform="translate(74.34 143.96)"/>
</clipPath>
<clipPath id="clip11_327_9107">
<rect width="13.57" height="13.57" fill="white" transform="translate(315.06 333.94)"/>
</clipPath>
<clipPath id="clip12_327_9107">
<rect width="11.8" height="11.8" fill="white" transform="translate(351.64 334.53)"/>
</clipPath>
<clipPath id="clip13_327_9107">
<rect width="11.8" height="11.8" fill="white" transform="translate(388.81 334.53)"/>
</clipPath>
</defs>
</svg>
