<svg width="850" height="655" viewBox="0 0 775 580" fill="none" xmlns="http://www.w3.org/2000/svg">
<g filter="url(#filter0_d_101_66)">
<rect x="351" y="42" width="316.393" height="313" rx="4.95006" fill="white"/>
<path d="M351 46.9501C351 44.2162 353.216 42 355.95 42H662.443C665.177 42 667.393 44.2162 667.393 46.9501V81.8672H351V46.9501Z" fill="#12141D"/>
<circle cx="615.208" cy="62.7884" r="3.96005" fill="#F23936"/>
<circle cx="629.068" cy="62.7884" r="3.96005" fill="#FABB18"/>
<circle cx="642.928" cy="62.7884" r="3.96005" fill="#008EFF"/>
<path d="M371.939 68.8901V57.7544H373.46L377.974 64.9776H377.103L381.602 57.7544H383.123V68.8901H380.984V61.4452L381.396 61.5719L378.26 66.6091H376.802L373.666 61.5719L374.094 61.4452V68.8901H371.939ZM388.375 69.0485C387.678 69.0485 387.05 68.8743 386.49 68.5258C385.931 68.1773 385.492 67.7021 385.176 67.1002C384.859 66.4982 384.7 65.8224 384.7 65.0726C384.7 64.3123 384.859 63.6312 385.176 63.0292C385.492 62.4273 385.931 61.9521 386.49 61.6036C387.05 61.2551 387.678 61.0809 388.375 61.0809C388.924 61.0809 389.415 61.1918 389.848 61.4135C390.281 61.6353 390.625 61.9468 390.878 62.3481C391.142 62.7388 391.285 63.1824 391.306 63.6787V66.4349C391.285 66.9418 391.142 67.3906 390.878 67.7813C390.625 68.172 390.281 68.4835 389.848 68.7159C389.415 68.9376 388.924 69.0485 388.375 69.0485ZM388.755 67.1318C389.336 67.1318 389.806 66.9418 390.165 66.5616C390.524 66.1709 390.704 65.6693 390.704 65.0568C390.704 64.6555 390.619 64.3017 390.45 63.9955C390.292 63.6787 390.065 63.4358 389.769 63.2668C389.484 63.0873 389.146 62.9976 388.755 62.9976C388.375 62.9976 388.037 63.0873 387.742 63.2668C387.457 63.4358 387.229 63.6787 387.061 63.9955C386.902 64.3017 386.823 64.6555 386.823 65.0568C386.823 65.4686 386.902 65.8329 387.061 66.1498C387.229 66.456 387.457 66.6989 387.742 66.8784C388.037 67.0474 388.375 67.1318 388.755 67.1318ZM390.593 68.8901V66.8309L390.926 64.9617L390.593 63.1243V61.2393H392.652V68.8901H390.593ZM394.488 68.8901V61.2393H396.563V68.8901H394.488ZM396.563 64.6608L395.755 64.1222C395.85 63.1824 396.125 62.4431 396.579 61.9046C397.033 61.3555 397.688 61.0809 398.543 61.0809C398.913 61.0809 399.245 61.1443 399.541 61.271C399.837 61.3871 400.106 61.5825 400.349 61.8571L399.05 63.346C398.934 63.2193 398.791 63.1243 398.622 63.0609C398.464 62.9976 398.279 62.9659 398.068 62.9659C397.624 62.9659 397.26 63.1084 396.975 63.3936C396.7 63.6681 396.563 64.0905 396.563 64.6608ZM405.956 68.8901L402.994 64.9459L405.941 61.2393H408.332L404.879 65.4211L404.958 64.4073L408.491 68.8901H405.956ZM401.078 68.8901V57.4376H403.153V68.8901H401.078ZM412.75 69.0485C411.947 69.0485 411.234 68.8795 410.611 68.5416C409.988 68.1931 409.492 67.7179 409.122 67.116C408.763 66.5141 408.584 65.8277 408.584 65.0568C408.584 64.2964 408.758 63.6206 409.106 63.0292C409.465 62.4273 409.951 61.9521 410.564 61.6036C411.176 61.2446 411.857 61.0651 412.607 61.0651C413.346 61.0651 413.996 61.234 414.555 61.5719C415.126 61.8993 415.569 62.3534 415.886 62.9342C416.213 63.5044 416.377 64.1539 416.377 64.8825C416.377 65.0198 416.366 65.1624 416.345 65.3102C416.335 65.4475 416.308 65.6059 416.266 65.7854L409.835 65.8013V64.2489L415.3 64.2331L414.46 64.8825C414.439 64.4285 414.355 64.0483 414.207 63.742C414.07 63.4358 413.864 63.2035 413.589 63.0451C413.325 62.8761 412.998 62.7916 412.607 62.7916C412.195 62.7916 411.836 62.8867 411.53 63.0768C411.224 63.2563 410.986 63.515 410.817 63.8529C410.659 64.1803 410.58 64.571 410.58 65.0251C410.58 65.4897 410.664 65.8963 410.833 66.2448C411.012 66.5827 411.266 66.8467 411.593 67.0368C411.921 67.2163 412.301 67.3061 412.734 67.3061C413.125 67.3061 413.478 67.2427 413.795 67.116C414.112 66.9787 414.386 66.7781 414.619 66.5141L415.838 67.7338C415.469 68.1667 415.015 68.4941 414.476 68.7159C413.948 68.9376 413.373 69.0485 412.75 69.0485ZM418.599 68.8901V58.0554H420.674V68.8901H418.599ZM416.809 63.0609V61.2393H422.464V63.0609H416.809ZM426.947 68.8901V57.7544H429.101V68.8901H426.947ZM428.531 64.3281V62.4115H434.138V64.3281H428.531ZM428.531 59.6553V57.7544H434.408V59.6553H428.531ZM439.279 69.0485C438.476 69.0485 437.763 68.8795 437.14 68.5416C436.517 68.1931 436.021 67.7179 435.651 67.116C435.292 66.5141 435.113 65.8277 435.113 65.0568C435.113 64.2964 435.287 63.6206 435.636 63.0292C435.995 62.4273 436.48 61.9521 437.093 61.6036C437.705 61.2446 438.387 61.0651 439.136 61.0651C439.875 61.0651 440.525 61.234 441.085 61.5719C441.655 61.8993 442.098 62.3534 442.415 62.9342C442.743 63.5044 442.906 64.1539 442.906 64.8825C442.906 65.0198 442.896 65.1624 442.875 65.3102C442.864 65.4475 442.838 65.6059 442.795 65.7854L436.364 65.8013V64.2489L441.829 64.2331L440.99 64.8825C440.968 64.4285 440.884 64.0483 440.736 63.742C440.599 63.4358 440.393 63.2035 440.118 63.0451C439.854 62.8761 439.527 62.7916 439.136 62.7916C438.724 62.7916 438.365 62.8867 438.059 63.0768C437.753 63.2563 437.515 63.515 437.346 63.8529C437.188 64.1803 437.109 64.571 437.109 65.0251C437.109 65.4897 437.193 65.8963 437.362 66.2448C437.542 66.5827 437.795 66.8467 438.123 67.0368C438.45 67.2163 438.83 67.3061 439.263 67.3061C439.654 67.3061 440.007 67.2427 440.324 67.116C440.641 66.9787 440.916 66.7781 441.148 66.5141L442.368 67.7338C441.998 68.1667 441.544 68.4941 441.005 68.7159C440.477 68.9376 439.902 69.0485 439.279 69.0485ZM447.849 69.0485C447.046 69.0485 446.333 68.8795 445.71 68.5416C445.087 68.1931 444.591 67.7179 444.221 67.116C443.862 66.5141 443.683 65.8277 443.683 65.0568C443.683 64.2964 443.857 63.6206 444.205 63.0292C444.564 62.4273 445.05 61.9521 445.663 61.6036C446.275 61.2446 446.956 61.0651 447.706 61.0651C448.445 61.0651 449.095 61.234 449.654 61.5719C450.225 61.8993 450.668 62.3534 450.985 62.9342C451.312 63.5044 451.476 64.1539 451.476 64.8825C451.476 65.0198 451.465 65.1624 451.444 65.3102C451.434 65.4475 451.407 65.6059 451.365 65.7854L444.934 65.8013V64.2489L450.399 64.2331L449.559 64.8825C449.538 64.4285 449.454 64.0483 449.306 63.742C449.169 63.4358 448.963 63.2035 448.688 63.0451C448.424 62.8761 448.097 62.7916 447.706 62.7916C447.294 62.7916 446.935 62.8867 446.629 63.0768C446.323 63.2563 446.085 63.515 445.916 63.8529C445.758 64.1803 445.679 64.571 445.679 65.0251C445.679 65.4897 445.763 65.8963 445.932 66.2448C446.111 66.5827 446.365 66.8467 446.692 67.0368C447.02 67.2163 447.4 67.3061 447.833 67.3061C448.224 67.3061 448.577 67.2427 448.894 67.116C449.211 66.9787 449.485 66.7781 449.718 66.5141L450.937 67.7338C450.568 68.1667 450.114 68.4941 449.575 68.7159C449.047 68.9376 448.472 69.0485 447.849 69.0485ZM459.306 69.0485C458.409 69.0485 457.638 68.8954 456.994 68.5891C456.36 68.2829 455.784 67.8235 455.267 67.211L456.693 65.7854C457.02 66.2184 457.4 66.5563 457.833 66.7992C458.266 67.0315 458.794 67.1477 459.417 67.1477C459.977 67.1477 460.42 67.0368 460.748 66.815C461.086 66.5933 461.255 66.287 461.255 65.8963C461.255 65.5584 461.16 65.2838 460.97 65.0726C460.779 64.8614 460.526 64.6819 460.209 64.5341C459.903 64.3862 459.56 64.2542 459.18 64.138C458.81 64.0113 458.435 63.8688 458.055 63.7104C457.685 63.552 457.342 63.3566 457.025 63.1243C456.719 62.8814 456.471 62.5751 456.281 62.2055C456.091 61.8254 455.996 61.3502 455.996 60.7799C455.996 60.1041 456.159 59.5286 456.487 59.0533C456.814 58.5781 457.263 58.2138 457.833 57.9604C458.403 57.7069 459.048 57.5802 459.766 57.5802C460.526 57.5802 461.212 57.7228 461.825 58.0079C462.437 58.293 462.939 58.6626 463.33 59.1167L461.904 60.5423C461.577 60.1833 461.239 59.9193 460.89 59.7503C460.552 59.5814 460.167 59.4969 459.734 59.4969C459.238 59.4969 458.847 59.5919 458.562 59.782C458.277 59.9721 458.134 60.2466 458.134 60.6057C458.134 60.9119 458.229 61.1601 458.419 61.3502C458.609 61.5403 458.857 61.7039 459.164 61.8412C459.481 61.9785 459.824 62.1105 460.193 62.2372C460.574 62.3639 460.948 62.5065 461.318 62.6649C461.698 62.8233 462.041 63.0292 462.348 63.2827C462.664 63.5361 462.918 63.8635 463.108 64.2648C463.298 64.6555 463.393 65.1413 463.393 65.7221C463.393 66.757 463.029 67.5701 462.3 68.1615C461.571 68.7528 460.574 69.0485 459.306 69.0485ZM465.996 68.8901V58.0554H468.071V68.8901H465.996ZM464.206 63.0609V61.2393H469.861V63.0609H464.206ZM471.028 68.8901V61.2393H473.103V68.8901H471.028ZM473.103 64.6608L472.295 64.1222C472.39 63.1824 472.665 62.4431 473.119 61.9046C473.573 61.3555 474.228 61.0809 475.083 61.0809C475.453 61.0809 475.786 61.1443 476.081 61.271C476.377 61.3871 476.646 61.5825 476.889 61.8571L475.59 63.346C475.474 63.2193 475.331 63.1243 475.162 63.0609C475.004 62.9976 474.819 62.9659 474.608 62.9659C474.165 62.9659 473.8 63.1084 473.515 63.3936C473.241 63.6681 473.103 64.0905 473.103 64.6608ZM480.881 69.0485C480.205 69.0485 479.603 68.9059 479.075 68.6208C478.558 68.3357 478.151 67.9397 477.856 67.4328C477.56 66.9259 477.412 66.3398 477.412 65.6745V61.2393H479.503V65.627C479.503 65.9438 479.556 66.2184 479.661 66.4507C479.767 66.6725 479.925 66.8414 480.137 66.9576C480.348 67.0738 480.596 67.1318 480.881 67.1318C481.314 67.1318 481.652 66.9998 481.895 66.7358C482.138 66.4718 482.259 66.1022 482.259 65.627V61.2393H484.334V65.6745C484.334 66.3504 484.186 66.9418 483.891 67.4486C483.606 67.9555 483.199 68.3515 482.671 68.6367C482.154 68.9112 481.557 69.0485 480.881 69.0485ZM489.598 69.0485C488.817 69.0485 488.114 68.8743 487.491 68.5258C486.868 68.1773 486.377 67.7021 486.018 67.1002C485.659 66.4982 485.48 65.8224 485.48 65.0726C485.48 64.3123 485.659 63.6312 486.018 63.0292C486.377 62.4273 486.868 61.9521 487.491 61.6036C488.125 61.2446 488.827 61.0651 489.598 61.0651C490.2 61.0651 490.755 61.1759 491.261 61.3977C491.768 61.6195 492.207 61.9363 492.576 62.3481L491.246 63.6945C491.045 63.4728 490.802 63.3038 490.517 63.1876C490.242 63.0715 489.936 63.0134 489.598 63.0134C489.218 63.0134 488.875 63.1032 488.569 63.2827C488.273 63.4516 488.035 63.6892 487.856 63.9955C487.687 64.2912 487.602 64.6449 487.602 65.0568C487.602 65.4581 487.687 65.8171 487.856 66.1339C488.035 66.4402 488.273 66.683 488.569 66.8626C488.875 67.0315 489.218 67.116 489.598 67.116C489.947 67.116 490.258 67.0579 490.533 66.9418C490.818 66.815 491.061 66.6355 491.261 66.4032L492.608 67.7496C492.217 68.172 491.768 68.4941 491.261 68.7159C490.755 68.9376 490.2 69.0485 489.598 69.0485ZM494.784 68.8901V58.0554H496.859V68.8901H494.784ZM492.994 63.0609V61.2393H498.649V63.0609H492.994ZM503.079 69.0485C502.403 69.0485 501.801 68.9059 501.273 68.6208C500.756 68.3357 500.349 67.9397 500.053 67.4328C499.758 66.9259 499.61 66.3398 499.61 65.6745V61.2393H501.701V65.627C501.701 65.9438 501.754 66.2184 501.859 66.4507C501.965 66.6725 502.123 66.8414 502.334 66.9576C502.546 67.0738 502.794 67.1318 503.079 67.1318C503.512 67.1318 503.85 66.9998 504.093 66.7358C504.336 66.4718 504.457 66.1022 504.457 65.627V61.2393H506.532V65.6745C506.532 66.3504 506.384 66.9418 506.089 67.4486C505.803 67.9555 505.397 68.3515 504.869 68.6367C504.351 68.9112 503.755 69.0485 503.079 69.0485ZM508.185 68.8901V61.2393H510.26V68.8901H508.185ZM510.26 64.6608L509.452 64.1222C509.547 63.1824 509.821 62.4431 510.275 61.9046C510.73 61.3555 511.384 61.0809 512.24 61.0809C512.609 61.0809 512.942 61.1443 513.238 61.271C513.533 61.3871 513.803 61.5825 514.045 61.8571L512.747 63.346C512.63 63.2193 512.488 63.1243 512.319 63.0609C512.16 62.9976 511.976 62.9659 511.764 62.9659C511.321 62.9659 510.957 63.1084 510.671 63.3936C510.397 63.6681 510.26 64.0905 510.26 64.6608ZM518.217 69.0485C517.414 69.0485 516.701 68.8795 516.078 68.5416C515.455 68.1931 514.959 67.7179 514.589 67.116C514.23 66.5141 514.051 65.8277 514.051 65.0568C514.051 64.2964 514.225 63.6206 514.574 63.0292C514.933 62.4273 515.418 61.9521 516.031 61.6036C516.643 61.2446 517.325 61.0651 518.074 61.0651C518.813 61.0651 519.463 61.234 520.023 61.5719C520.593 61.8993 521.036 62.3534 521.353 62.9342C521.681 63.5044 521.844 64.1539 521.844 64.8825C521.844 65.0198 521.834 65.1624 521.813 65.3102C521.802 65.4475 521.776 65.6059 521.733 65.7854L515.302 65.8013V64.2489L520.767 64.2331L519.928 64.8825C519.906 64.4285 519.822 64.0483 519.674 63.742C519.537 63.4358 519.331 63.2035 519.056 63.0451C518.792 62.8761 518.465 62.7916 518.074 62.7916C517.662 62.7916 517.303 62.8867 516.997 63.0768C516.691 63.2563 516.453 63.515 516.284 63.8529C516.126 64.1803 516.047 64.571 516.047 65.0251C516.047 65.4897 516.131 65.8963 516.3 66.2448C516.48 66.5827 516.733 66.8467 517.061 67.0368C517.388 67.2163 517.768 67.3061 518.201 67.3061C518.592 67.3061 518.945 67.2427 519.262 67.116C519.579 66.9787 519.854 66.7781 520.086 66.5141L521.306 67.7338C520.936 68.1667 520.482 68.4941 519.943 68.7159C519.415 68.9376 518.84 69.0485 518.217 69.0485Z" fill="white"/>
<circle opacity="0.15" cx="509.169" cy="221.085" r="87.9883" fill="#D0D0D0"/>
<g filter="url(#filter1_d_101_66)">
<path d="M526.006 129.688C526.406 127.515 524.971 125.421 522.784 125.111C510.454 123.36 497.89 124 485.78 127.009C472.375 130.339 459.837 136.496 449.004 145.066C438.172 153.636 429.296 164.421 422.97 176.7C416.645 188.98 413.016 202.468 412.327 216.264C411.639 230.059 413.905 243.842 418.976 256.691C424.047 269.539 431.805 281.155 441.73 290.761C451.655 300.368 463.518 307.742 476.524 312.392C488.274 316.592 500.712 318.48 513.155 317.966C515.362 317.875 516.999 315.934 516.817 313.733L509.201 221.629C509.172 221.277 509.189 220.922 509.254 220.575L526.006 129.688Z" fill="url(#paint0_linear_101_66)"/>
</g>
<g filter="url(#filter2_d_101_66)">
<path d="M505.57 327.41C505.496 329.618 507.225 331.475 509.434 331.47C522.574 331.439 535.615 329.061 547.938 324.438C561.51 319.347 573.947 311.632 584.538 301.735C595.129 291.837 603.667 279.95 609.664 266.753C615.662 253.556 619.001 239.307 619.491 224.819C619.981 210.331 617.613 195.889 612.522 182.316C607.431 168.744 599.716 156.307 589.818 145.716C579.921 135.125 568.034 126.587 554.837 120.59C542.854 115.144 530.004 111.891 516.896 110.971C514.693 110.816 512.842 112.553 512.767 114.76L509.169 221.085L505.57 327.41Z" fill="url(#paint1_linear_101_66)"/>
</g>
<g filter="url(#filter3_d_101_66)">
<circle cx="508.835" cy="221.225" r="56.2255" fill="white"/>
</g>
<circle cx="508.771" cy="220.871" r="53.1929" transform="rotate(165 508.771 220.871)" stroke="url(#paint2_linear_101_66)" stroke-width="5.59925"/>
<g filter="url(#filter4_d_101_66)">
<rect x="609.61" y="114" width="120" height="36" rx="4.95006" fill="white"/>
</g>
<path opacity="0.7" d="M625.611 133.806V132.704H628.152C628.502 132.704 628.811 132.632 629.08 132.489C629.358 132.345 629.573 132.143 629.725 131.883C629.887 131.623 629.967 131.314 629.967 130.956C629.967 130.597 629.887 130.288 629.725 130.028C629.573 129.768 629.358 129.566 629.08 129.423C628.811 129.279 628.502 129.208 628.152 129.208H625.611V128.105H628.233C628.807 128.105 629.318 128.222 629.766 128.455C630.223 128.688 630.582 129.019 630.841 129.45C631.11 129.871 631.245 130.373 631.245 130.956C631.245 131.529 631.11 132.031 630.841 132.462C630.582 132.883 630.223 133.215 629.766 133.457C629.318 133.69 628.807 133.806 628.233 133.806H625.611ZM624.764 137.437V128.105H626.028V137.437H624.764ZM634.898 137.571C634.378 137.571 633.907 137.455 633.486 137.222C633.074 136.98 632.751 136.648 632.518 136.227C632.285 135.805 632.168 135.317 632.168 134.761V131.05H633.378V134.707C633.378 135.057 633.437 135.362 633.553 135.622C633.679 135.873 633.858 136.065 634.091 136.2C634.324 136.334 634.597 136.401 634.911 136.401C635.386 136.401 635.758 136.253 636.027 135.958C636.296 135.653 636.431 135.236 636.431 134.707V131.05H637.641V134.761C637.641 135.317 637.524 135.805 637.291 136.227C637.058 136.648 636.735 136.98 636.323 137.222C635.92 137.455 635.445 137.571 634.898 137.571ZM642.251 137.571C641.767 137.571 641.328 137.473 640.933 137.275C640.548 137.069 640.238 136.787 640.005 136.428C639.772 136.07 639.642 135.662 639.615 135.205V133.282C639.642 132.816 639.772 132.408 640.005 132.058C640.247 131.7 640.561 131.422 640.947 131.225C641.341 131.018 641.776 130.915 642.251 130.915C642.834 130.915 643.358 131.063 643.824 131.359C644.299 131.655 644.671 132.054 644.94 132.556C645.209 133.058 645.344 133.623 645.344 134.25C645.344 134.877 645.209 135.442 644.94 135.944C644.671 136.446 644.299 136.845 643.824 137.141C643.358 137.428 642.834 137.571 642.251 137.571ZM642.049 136.428C642.453 136.428 642.807 136.334 643.111 136.146C643.416 135.958 643.658 135.702 643.838 135.379C644.017 135.048 644.106 134.667 644.106 134.237C644.106 133.815 644.017 133.439 643.838 133.107C643.658 132.775 643.416 132.52 643.111 132.341C642.807 132.152 642.457 132.058 642.063 132.058C641.659 132.058 641.305 132.152 641 132.341C640.696 132.52 640.458 132.775 640.288 133.107C640.117 133.439 640.032 133.82 640.032 134.25C640.032 134.671 640.113 135.048 640.274 135.379C640.445 135.702 640.682 135.958 640.987 136.146C641.301 136.334 641.655 136.428 642.049 136.428ZM638.889 137.437V127.836H640.099V132.61L639.871 134.156L640.099 135.716V137.437H638.889ZM646.342 137.437V127.836H647.552V137.437H646.342ZM648.963 137.437V131.05H650.173V137.437H648.963ZM649.568 129.772C649.344 129.772 649.16 129.701 649.016 129.557C648.873 129.405 648.801 129.217 648.801 128.992C648.801 128.777 648.873 128.598 649.016 128.455C649.16 128.302 649.344 128.226 649.568 128.226C649.792 128.226 649.976 128.302 650.119 128.455C650.262 128.598 650.334 128.777 650.334 128.992C650.334 129.217 650.262 129.405 650.119 129.557C649.976 129.701 649.792 129.772 649.568 129.772ZM653.613 137.571C653.255 137.571 652.914 137.526 652.591 137.437C652.277 137.338 651.986 137.204 651.717 137.033C651.448 136.854 651.215 136.643 651.018 136.401L651.798 135.622C652.031 135.908 652.3 136.124 652.605 136.267C652.909 136.401 653.25 136.469 653.627 136.469C654.003 136.469 654.294 136.406 654.501 136.28C654.707 136.146 654.81 135.962 654.81 135.729C654.81 135.496 654.725 135.317 654.554 135.191C654.393 135.057 654.182 134.949 653.922 134.869C653.662 134.779 653.385 134.694 653.089 134.613C652.802 134.523 652.528 134.411 652.269 134.277C652.009 134.142 651.793 133.959 651.623 133.726C651.462 133.493 651.381 133.183 651.381 132.798C651.381 132.412 651.475 132.081 651.663 131.803C651.852 131.516 652.112 131.296 652.443 131.144C652.784 130.992 653.192 130.915 653.667 130.915C654.169 130.915 654.613 131.005 654.998 131.184C655.393 131.355 655.715 131.615 655.966 131.964L655.186 132.744C655.007 132.511 654.783 132.332 654.514 132.206C654.254 132.081 653.958 132.018 653.627 132.018C653.277 132.018 653.008 132.081 652.82 132.206C652.641 132.323 652.551 132.489 652.551 132.704C652.551 132.919 652.632 133.085 652.793 133.201C652.954 133.318 653.165 133.416 653.425 133.497C653.694 133.578 653.972 133.663 654.259 133.752C654.545 133.833 654.819 133.945 655.079 134.089C655.339 134.232 655.549 134.425 655.711 134.667C655.881 134.909 655.966 135.227 655.966 135.622C655.966 136.222 655.751 136.697 655.321 137.047C654.899 137.396 654.33 137.571 653.613 137.571ZM661.466 137.437V133.712C661.466 133.228 661.313 132.829 661.008 132.515C660.704 132.202 660.309 132.045 659.825 132.045C659.502 132.045 659.215 132.117 658.964 132.26C658.713 132.403 658.516 132.601 658.373 132.852C658.229 133.103 658.158 133.389 658.158 133.712L657.66 133.43C657.66 132.946 657.768 132.515 657.983 132.139C658.198 131.762 658.498 131.467 658.884 131.251C659.269 131.027 659.704 130.915 660.188 130.915C660.672 130.915 661.098 131.023 661.466 131.238C661.842 131.453 662.138 131.753 662.353 132.139C662.568 132.524 662.676 132.968 662.676 133.47V137.437H661.466ZM656.948 137.437V127.836H658.158V137.437H656.948ZM666.899 137.571C666.262 137.571 665.689 137.428 665.178 137.141C664.667 136.845 664.263 136.446 663.968 135.944C663.672 135.442 663.524 134.873 663.524 134.237C663.524 133.609 663.667 133.044 663.954 132.542C664.25 132.04 664.644 131.646 665.137 131.359C665.639 131.063 666.2 130.915 666.818 130.915C667.41 130.915 667.93 131.05 668.378 131.319C668.835 131.588 669.189 131.96 669.44 132.435C669.7 132.91 669.83 133.448 669.83 134.048C669.83 134.138 669.826 134.237 669.817 134.344C669.808 134.443 669.79 134.559 669.763 134.694H664.371V133.685H669.117L668.674 134.075C668.674 133.645 668.598 133.282 668.445 132.986C668.293 132.681 668.078 132.448 667.8 132.287C667.522 132.117 667.186 132.031 666.791 132.031C666.379 132.031 666.016 132.121 665.702 132.3C665.388 132.48 665.146 132.731 664.976 133.053C664.806 133.376 664.721 133.757 664.721 134.196C664.721 134.644 664.81 135.039 664.989 135.379C665.169 135.711 665.424 135.971 665.756 136.159C666.088 136.339 666.469 136.428 666.899 136.428C667.257 136.428 667.585 136.366 667.88 136.24C668.185 136.115 668.445 135.926 668.66 135.675L669.44 136.469C669.135 136.827 668.759 137.101 668.311 137.289C667.871 137.477 667.401 137.571 666.899 137.571ZM670.776 137.437V131.05H671.986V137.437H670.776ZM671.986 133.793L671.529 133.591C671.529 132.775 671.717 132.125 672.094 131.641C672.47 131.157 673.013 130.915 673.721 130.915C674.044 130.915 674.335 130.974 674.595 131.09C674.855 131.198 675.097 131.381 675.321 131.641L674.528 132.462C674.393 132.318 674.245 132.215 674.084 132.152C673.923 132.09 673.734 132.058 673.519 132.058C673.071 132.058 672.703 132.202 672.417 132.489C672.13 132.775 671.986 133.21 671.986 133.793ZM679.522 133.376V132.314H682.049C682.596 132.314 683.018 132.175 683.313 131.897C683.609 131.619 683.757 131.243 683.757 130.767C683.757 130.319 683.609 129.947 683.313 129.651C683.027 129.356 682.61 129.208 682.063 129.208H679.522V128.105H682.103C682.695 128.105 683.21 128.222 683.65 128.455C684.089 128.679 684.425 128.988 684.658 129.382C684.9 129.777 685.021 130.23 685.021 130.741C685.021 131.269 684.9 131.731 684.658 132.125C684.425 132.52 684.089 132.829 683.65 133.053C683.21 133.268 682.695 133.376 682.103 133.376H679.522ZM678.674 137.437V128.105H679.938V137.437H678.674ZM684.053 137.437L680.664 133.255L681.861 132.838L685.653 137.437H684.053ZM689.12 137.571C688.483 137.571 687.909 137.428 687.399 137.141C686.888 136.845 686.484 136.446 686.188 135.944C685.893 135.442 685.745 134.873 685.745 134.237C685.745 133.609 685.888 133.044 686.175 132.542C686.471 132.04 686.865 131.646 687.358 131.359C687.86 131.063 688.42 130.915 689.039 130.915C689.631 130.915 690.151 131.05 690.599 131.319C691.056 131.588 691.41 131.96 691.661 132.435C691.921 132.91 692.051 133.448 692.051 134.048C692.051 134.138 692.046 134.237 692.037 134.344C692.029 134.443 692.011 134.559 691.984 134.694H686.592V133.685H691.338L690.895 134.075C690.895 133.645 690.818 133.282 690.666 132.986C690.514 132.681 690.298 132.448 690.021 132.287C689.743 132.117 689.406 132.031 689.012 132.031C688.6 132.031 688.237 132.121 687.923 132.3C687.609 132.48 687.367 132.731 687.197 133.053C687.026 133.376 686.941 133.757 686.941 134.196C686.941 134.644 687.031 135.039 687.21 135.379C687.39 135.711 687.645 135.971 687.977 136.159C688.308 136.339 688.689 136.428 689.12 136.428C689.478 136.428 689.805 136.366 690.101 136.24C690.406 136.115 690.666 135.926 690.881 135.675L691.661 136.469C691.356 136.827 690.98 137.101 690.531 137.289C690.092 137.477 689.622 137.571 689.12 137.571ZM695.084 137.437L692.152 131.05H693.497L695.85 136.442H695.07L697.437 131.05H698.728L695.796 137.437H695.084ZM702.095 137.571C701.458 137.571 700.885 137.428 700.374 137.141C699.863 136.845 699.459 136.446 699.163 135.944C698.868 135.442 698.72 134.873 698.72 134.237C698.72 133.609 698.863 133.044 699.15 132.542C699.446 132.04 699.84 131.646 700.333 131.359C700.835 131.063 701.395 130.915 702.014 130.915C702.606 130.915 703.126 131.05 703.574 131.319C704.031 131.588 704.385 131.96 704.636 132.435C704.896 132.91 705.026 133.448 705.026 134.048C705.026 134.138 705.021 134.237 705.013 134.344C705.004 134.443 704.986 134.559 704.959 134.694H699.567V133.685H704.313L703.87 134.075C703.87 133.645 703.793 133.282 703.641 132.986C703.489 132.681 703.273 132.448 702.996 132.287C702.718 132.117 702.382 132.031 701.987 132.031C701.575 132.031 701.212 132.121 700.898 132.3C700.584 132.48 700.342 132.731 700.172 133.053C700.002 133.376 699.916 133.757 699.916 134.196C699.916 134.644 700.006 135.039 700.185 135.379C700.365 135.711 700.62 135.971 700.952 136.159C701.283 136.339 701.664 136.428 702.095 136.428C702.453 136.428 702.78 136.366 703.076 136.24C703.381 136.115 703.641 135.926 703.856 135.675L704.636 136.469C704.331 136.827 703.955 137.101 703.507 137.289C703.067 137.477 702.597 137.571 702.095 137.571ZM710.49 137.437V133.712C710.49 133.228 710.338 132.829 710.033 132.515C709.728 132.202 709.334 132.045 708.849 132.045C708.527 132.045 708.24 132.117 707.989 132.26C707.738 132.403 707.541 132.601 707.397 132.852C707.254 133.103 707.182 133.389 707.182 133.712L706.685 133.43C706.685 132.946 706.792 132.515 707.007 132.139C707.222 131.762 707.523 131.467 707.908 131.251C708.294 131.027 708.728 130.915 709.213 130.915C709.697 130.915 710.122 131.036 710.49 131.278C710.866 131.52 711.162 131.839 711.377 132.233C711.593 132.619 711.7 133.031 711.7 133.47V137.437H710.49ZM705.972 137.437V131.05H707.182V137.437H705.972ZM715.533 137.571C715.013 137.571 714.543 137.455 714.121 137.222C713.709 136.98 713.386 136.648 713.153 136.227C712.92 135.805 712.804 135.317 712.804 134.761V131.05H714.014V134.707C714.014 135.057 714.072 135.362 714.189 135.622C714.314 135.873 714.493 136.065 714.727 136.2C714.96 136.334 715.233 136.401 715.547 136.401C716.022 136.401 716.394 136.253 716.663 135.958C716.932 135.653 717.066 135.236 717.066 134.707V131.05H718.276V134.761C718.276 135.317 718.16 135.805 717.927 136.227C717.694 136.648 717.371 136.98 716.959 137.222C716.555 137.455 716.08 137.571 715.533 137.571ZM722.483 137.571C721.847 137.571 721.273 137.428 720.762 137.141C720.251 136.845 719.847 136.446 719.552 135.944C719.256 135.442 719.108 134.873 719.108 134.237C719.108 133.609 719.251 133.044 719.538 132.542C719.834 132.04 720.228 131.646 720.722 131.359C721.224 131.063 721.784 130.915 722.402 130.915C722.994 130.915 723.514 131.05 723.962 131.319C724.419 131.588 724.773 131.96 725.024 132.435C725.284 132.91 725.414 133.448 725.414 134.048C725.414 134.138 725.41 134.237 725.401 134.344C725.392 134.443 725.374 134.559 725.347 134.694H719.955V133.685H724.702L724.258 134.075C724.258 133.645 724.182 133.282 724.029 132.986C723.877 132.681 723.662 132.448 723.384 132.287C723.106 132.117 722.77 132.031 722.375 132.031C721.963 132.031 721.6 132.121 721.286 132.3C720.973 132.48 720.73 132.731 720.56 133.053C720.39 133.376 720.305 133.757 720.305 134.196C720.305 134.644 720.394 135.039 720.574 135.379C720.753 135.711 721.008 135.971 721.34 136.159C721.672 136.339 722.053 136.428 722.483 136.428C722.842 136.428 723.169 136.366 723.465 136.24C723.769 136.115 724.029 135.926 724.244 135.675L725.024 136.469C724.72 136.827 724.343 137.101 723.895 137.289C723.456 137.477 722.985 137.571 722.483 137.571Z" fill="#12141D"/>
<g filter="url(#filter5_d_101_66)">
<rect x="287.61" y="102" width="116" height="35" rx="4.95006" fill="white"/>
</g>
<path d="M464.671 162.27C464.671 164.47 466.455 166.254 468.655 166.254C470.856 166.254 472.639 164.47 472.639 162.27C472.639 160.069 470.856 158.286 468.655 158.286C466.455 158.286 464.671 160.069 464.671 162.27ZM432.051 146.582L431.536 147.123L431.634 147.216L431.757 147.269L432.051 146.582ZM399.626 119.5C399.626 121.7 401.409 123.484 403.61 123.484C405.81 123.484 407.594 121.7 407.594 119.5C407.594 117.3 405.81 115.516 403.61 115.516C401.409 115.516 399.626 117.3 399.626 119.5ZM468.949 161.583L432.346 145.896L431.757 147.269L468.361 162.956L468.949 161.583ZM432.567 146.041L404.125 118.959L403.095 120.041L431.536 147.123L432.567 146.041Z" fill="black"/>
<path opacity="0.7" d="M299.712 124.976V115.644H300.6L304.553 122.139H303.948L307.901 115.644H308.789V124.976H307.525V117.863L307.82 117.944L304.701 123.067H303.813L300.694 117.944L300.976 117.863V124.976H299.712ZM310.417 124.976V118.589H311.627V124.976H310.417ZM311.022 117.312C310.798 117.312 310.614 117.24 310.471 117.097C310.327 116.944 310.255 116.756 310.255 116.532C310.255 116.317 310.327 116.137 310.471 115.994C310.614 115.842 310.798 115.765 311.022 115.765C311.246 115.765 311.43 115.842 311.573 115.994C311.717 116.137 311.788 116.317 311.788 116.532C311.788 116.756 311.717 116.944 311.573 117.097C311.43 117.24 311.246 117.312 311.022 117.312ZM315.74 125.111C315.148 125.111 314.619 124.967 314.153 124.68C313.687 124.384 313.315 123.986 313.037 123.484C312.768 122.982 312.633 122.417 312.633 121.789C312.633 121.162 312.768 120.597 313.037 120.095C313.315 119.593 313.687 119.194 314.153 118.898C314.619 118.603 315.148 118.455 315.74 118.455C316.215 118.455 316.645 118.558 317.03 118.764C317.416 118.961 317.725 119.239 317.958 119.598C318.2 119.947 318.335 120.355 318.362 120.821V122.744C318.335 123.201 318.205 123.609 317.972 123.968C317.739 124.326 317.429 124.609 317.044 124.815C316.658 125.012 316.224 125.111 315.74 125.111ZM315.941 123.968C316.345 123.968 316.694 123.874 316.99 123.685C317.295 123.497 317.532 123.242 317.703 122.919C317.873 122.587 317.958 122.211 317.958 121.789C317.958 121.35 317.869 120.969 317.689 120.646C317.519 120.324 317.281 120.068 316.977 119.88C316.681 119.692 316.331 119.598 315.928 119.598C315.524 119.598 315.17 119.692 314.866 119.88C314.561 120.068 314.319 120.328 314.139 120.66C313.969 120.983 313.884 121.355 313.884 121.776C313.884 122.206 313.969 122.587 314.139 122.919C314.319 123.242 314.561 123.497 314.866 123.685C315.179 123.874 315.538 123.968 315.941 123.968ZM319.101 124.976H317.878V123.255L318.106 121.695L317.878 120.149V115.375H319.101V124.976ZM323.192 125.111C322.601 125.111 322.072 124.967 321.606 124.68C321.139 124.384 320.767 123.986 320.49 123.484C320.221 122.982 320.086 122.417 320.086 121.789C320.086 121.162 320.221 120.597 320.49 120.095C320.767 119.593 321.139 119.194 321.606 118.898C322.072 118.603 322.601 118.455 323.192 118.455C323.667 118.455 324.098 118.558 324.483 118.764C324.869 118.961 325.178 119.239 325.411 119.598C325.653 119.947 325.787 120.355 325.814 120.821V122.744C325.787 123.201 325.657 123.609 325.424 123.968C325.191 124.326 324.882 124.609 324.497 124.815C324.111 125.012 323.676 125.111 323.192 125.111ZM323.394 123.968C323.797 123.968 324.147 123.874 324.443 123.685C324.748 123.497 324.985 123.242 325.155 122.919C325.326 122.587 325.411 122.211 325.411 121.789C325.411 121.35 325.321 120.969 325.142 120.646C324.972 120.324 324.734 120.068 324.429 119.88C324.133 119.692 323.784 119.598 323.38 119.598C322.977 119.598 322.623 119.692 322.318 119.88C322.013 120.068 321.771 120.328 321.592 120.66C321.422 120.983 321.337 121.355 321.337 121.776C321.337 122.206 321.422 122.587 321.592 122.919C321.771 123.242 322.013 123.497 322.318 123.685C322.632 123.874 322.991 123.968 323.394 123.968ZM326.554 124.976H325.33V123.255L325.559 121.695L325.33 120.149V115.375H326.554V124.976ZM327.942 124.976V115.375H329.152V124.976H327.942ZM333.508 125.111C332.871 125.111 332.297 124.967 331.787 124.68C331.276 124.384 330.872 123.986 330.576 123.484C330.281 122.982 330.133 122.412 330.133 121.776C330.133 121.148 330.276 120.584 330.563 120.082C330.859 119.58 331.253 119.185 331.746 118.898C332.248 118.603 332.808 118.455 333.427 118.455C334.019 118.455 334.539 118.589 334.987 118.858C335.444 119.127 335.798 119.499 336.049 119.974C336.309 120.449 336.439 120.987 336.439 121.588C336.439 121.677 336.434 121.776 336.425 121.883C336.417 121.982 336.399 122.099 336.372 122.233H330.98V121.225H335.726L335.283 121.615C335.283 121.184 335.206 120.821 335.054 120.525C334.902 120.221 334.686 119.988 334.409 119.826C334.131 119.656 333.794 119.571 333.4 119.571C332.988 119.571 332.625 119.66 332.311 119.84C331.997 120.019 331.755 120.27 331.585 120.593C331.415 120.915 331.329 121.296 331.329 121.736C331.329 122.184 331.419 122.578 331.598 122.919C331.778 123.251 332.033 123.51 332.365 123.699C332.696 123.878 333.077 123.968 333.508 123.968C333.866 123.968 334.193 123.905 334.489 123.779C334.794 123.654 335.054 123.466 335.269 123.215L336.049 124.008C335.744 124.367 335.368 124.64 334.92 124.828C334.48 125.016 334.01 125.111 333.508 125.111ZM337.385 124.976V118.589H338.595V124.976H337.385ZM341.701 124.976V121.117C341.701 120.642 341.553 120.27 341.257 120.001C340.971 119.723 340.608 119.584 340.168 119.584C339.873 119.584 339.608 119.647 339.375 119.772C339.142 119.898 338.954 120.073 338.81 120.297C338.667 120.521 338.595 120.79 338.595 121.104L338.098 120.862C338.098 120.378 338.201 119.956 338.407 119.598C338.622 119.239 338.913 118.961 339.281 118.764C339.648 118.558 340.061 118.455 340.518 118.455C340.966 118.455 341.37 118.553 341.728 118.75C342.096 118.948 342.382 119.226 342.589 119.584C342.804 119.943 342.911 120.369 342.911 120.862V124.976H341.701ZM346.017 124.976V121.117C346.017 120.642 345.87 120.27 345.574 120.001C345.287 119.723 344.928 119.584 344.498 119.584C344.202 119.584 343.933 119.647 343.691 119.772C343.458 119.898 343.27 120.073 343.127 120.297C342.983 120.521 342.911 120.79 342.911 121.104L342.226 120.862C342.253 120.369 342.382 119.947 342.616 119.598C342.858 119.239 343.167 118.961 343.543 118.764C343.92 118.558 344.332 118.455 344.78 118.455C345.247 118.455 345.663 118.553 346.031 118.75C346.398 118.948 346.69 119.226 346.905 119.584C347.129 119.943 347.241 120.373 347.241 120.875V124.976H346.017ZM351.23 125.111C350.648 125.111 350.119 124.967 349.644 124.68C349.169 124.384 348.792 123.986 348.514 123.484C348.245 122.982 348.111 122.417 348.111 121.789C348.111 121.162 348.245 120.597 348.514 120.095C348.792 119.593 349.164 119.194 349.63 118.898C350.105 118.603 350.639 118.455 351.23 118.455C351.715 118.455 352.145 118.558 352.521 118.764C352.907 118.961 353.216 119.239 353.449 119.598C353.682 119.947 353.812 120.355 353.839 120.821V122.744C353.812 123.201 353.682 123.609 353.449 123.968C353.225 124.326 352.92 124.609 352.535 124.815C352.158 125.012 351.724 125.111 351.23 125.111ZM351.432 123.968C352.033 123.968 352.517 123.766 352.884 123.363C353.252 122.95 353.436 122.426 353.436 121.789C353.436 121.35 353.351 120.969 353.18 120.646C353.019 120.315 352.786 120.059 352.481 119.88C352.176 119.692 351.822 119.598 351.419 119.598C351.015 119.598 350.657 119.692 350.343 119.88C350.038 120.068 349.796 120.328 349.617 120.66C349.447 120.983 349.361 121.355 349.361 121.776C349.361 122.206 349.447 122.587 349.617 122.919C349.796 123.242 350.043 123.497 350.356 123.685C350.67 123.874 351.029 123.968 351.432 123.968ZM353.355 124.976V123.255L353.584 121.695L353.355 120.149V118.589H354.579V124.976H353.355ZM360.485 124.976V121.252C360.485 120.767 360.333 120.369 360.028 120.055C359.723 119.741 359.329 119.584 358.845 119.584C358.522 119.584 358.235 119.656 357.984 119.799C357.733 119.943 357.536 120.14 357.392 120.391C357.249 120.642 357.177 120.929 357.177 121.252L356.68 120.969C356.68 120.485 356.787 120.055 357.002 119.678C357.217 119.302 357.518 119.006 357.903 118.791C358.289 118.567 358.723 118.455 359.208 118.455C359.692 118.455 360.117 118.576 360.485 118.818C360.861 119.06 361.157 119.378 361.372 119.772C361.588 120.158 361.695 120.57 361.695 121.009V124.976H360.485ZM355.967 124.976V118.589H357.177V124.976H355.967ZM365.599 124.976V115.644H366.863V124.976H365.599ZM366.459 120.875V119.719H371.327V120.875H366.459ZM366.459 116.801V115.644H371.555V116.801H366.459ZM375.322 125.111C374.685 125.111 374.111 124.967 373.6 124.68C373.09 124.384 372.686 123.986 372.39 123.484C372.095 122.982 371.947 122.412 371.947 121.776C371.947 121.148 372.09 120.584 372.377 120.082C372.673 119.58 373.067 119.185 373.56 118.898C374.062 118.603 374.622 118.455 375.241 118.455C375.833 118.455 376.352 118.589 376.801 118.858C377.258 119.127 377.612 119.499 377.863 119.974C378.123 120.449 378.253 120.987 378.253 121.588C378.253 121.677 378.248 121.776 378.239 121.883C378.23 121.982 378.213 122.099 378.186 122.233H372.794V121.225H377.54L377.097 121.615C377.097 121.184 377.02 120.821 376.868 120.525C376.716 120.221 376.5 119.988 376.223 119.826C375.945 119.656 375.608 119.571 375.214 119.571C374.802 119.571 374.439 119.66 374.125 119.84C373.811 120.019 373.569 120.27 373.399 120.593C373.228 120.915 373.143 121.296 373.143 121.736C373.143 122.184 373.233 122.578 373.412 122.919C373.592 123.251 373.847 123.51 374.179 123.699C374.51 123.878 374.891 123.968 375.322 123.968C375.68 123.968 376.007 123.905 376.303 123.779C376.608 123.654 376.868 123.466 377.083 123.215L377.863 124.008C377.558 124.367 377.182 124.64 376.733 124.828C376.294 125.016 375.824 125.111 375.322 125.111ZM382.157 125.111C381.521 125.111 380.947 124.967 380.436 124.68C379.925 124.384 379.522 123.986 379.226 123.484C378.93 122.982 378.782 122.412 378.782 121.776C378.782 121.148 378.926 120.584 379.212 120.082C379.508 119.58 379.903 119.185 380.396 118.898C380.898 118.603 381.458 118.455 382.076 118.455C382.668 118.455 383.188 118.589 383.636 118.858C384.093 119.127 384.447 119.499 384.698 119.974C384.958 120.449 385.088 120.987 385.088 121.588C385.088 121.677 385.084 121.776 385.075 121.883C385.066 121.982 385.048 122.099 385.021 122.233H379.629V121.225H384.376L383.932 121.615C383.932 121.184 383.856 120.821 383.703 120.525C383.551 120.221 383.336 119.988 383.058 119.826C382.78 119.656 382.444 119.571 382.05 119.571C381.637 119.571 381.274 119.66 380.96 119.84C380.647 120.019 380.405 120.27 380.234 120.593C380.064 120.915 379.979 121.296 379.979 121.736C379.979 122.184 380.068 122.578 380.248 122.919C380.427 123.251 380.682 123.51 381.014 123.699C381.346 123.878 381.727 123.968 382.157 123.968C382.516 123.968 382.843 123.905 383.139 123.779C383.443 123.654 383.703 123.466 383.919 123.215L384.698 124.008C384.394 124.367 384.017 124.64 383.569 124.828C383.13 125.016 382.659 125.111 382.157 125.111ZM388.065 125.111C387.706 125.111 387.366 125.066 387.043 124.976C386.729 124.878 386.438 124.743 386.169 124.573C385.9 124.393 385.667 124.183 385.47 123.941L386.25 123.161C386.483 123.448 386.752 123.663 387.056 123.806C387.361 123.941 387.702 124.008 388.078 124.008C388.455 124.008 388.746 123.945 388.952 123.82C389.158 123.685 389.262 123.502 389.262 123.268C389.262 123.035 389.176 122.856 389.006 122.731C388.845 122.596 388.634 122.489 388.374 122.408C388.114 122.318 387.836 122.233 387.54 122.152C387.254 122.063 386.98 121.951 386.72 121.816C386.46 121.682 386.245 121.498 386.075 121.265C385.913 121.032 385.833 120.723 385.833 120.337C385.833 119.952 385.927 119.62 386.115 119.342C386.303 119.055 386.563 118.836 386.895 118.683C387.236 118.531 387.643 118.455 388.119 118.455C388.621 118.455 389.064 118.544 389.45 118.724C389.844 118.894 390.167 119.154 390.418 119.503L389.638 120.283C389.459 120.05 389.235 119.871 388.966 119.746C388.706 119.62 388.41 119.557 388.078 119.557C387.729 119.557 387.46 119.62 387.271 119.746C387.092 119.862 387.003 120.028 387.003 120.243C387.003 120.458 387.083 120.624 387.245 120.741C387.406 120.857 387.617 120.956 387.877 121.036C388.145 121.117 388.423 121.202 388.71 121.292C388.997 121.373 389.27 121.485 389.53 121.628C389.79 121.771 390.001 121.964 390.162 122.206C390.333 122.448 390.418 122.766 390.418 123.161C390.418 123.761 390.203 124.237 389.772 124.586C389.351 124.936 388.782 125.111 388.065 125.111Z" fill="#12141D"/>
<path d="M577.844 241.827C577.844 244.027 579.628 245.811 581.828 245.811C584.029 245.811 585.812 244.027 585.812 241.827C585.812 239.627 584.029 237.843 581.828 237.843C579.628 237.843 577.844 239.627 577.844 241.827ZM572.117 164.137L571.63 163.571L571.326 163.832L571.376 164.23L572.117 164.137ZM605.484 132.016C605.484 134.216 607.267 136 609.468 136C611.668 136 613.452 134.216 613.452 132.016C613.452 129.815 611.668 128.031 609.468 128.031C607.267 128.031 605.484 129.815 605.484 132.016ZM582.569 241.734L572.858 164.045L571.376 164.23L581.087 241.92L582.569 241.734ZM572.604 164.704L609.955 132.582L608.981 131.449L571.63 163.571L572.604 164.704Z" fill="black"/>
<g opacity="0.3">
<path d="M527.026 199H492.085C491.178 199 490.307 199.36 489.666 200.002C489.024 200.644 488.664 201.514 488.664 202.421L485.61 212.684C485.61 213.893 486.09 215.053 486.946 215.908C487.801 216.764 488.961 217.244 490.171 217.244H492.451C493.765 217.237 495.012 216.664 495.872 215.671C496.738 216.653 497.984 217.215 499.293 217.215C500.602 217.215 501.848 216.653 502.714 215.671C503.58 216.653 504.826 217.215 506.135 217.215C507.444 217.215 508.69 216.653 509.556 215.671C510.421 216.653 511.667 217.215 512.977 217.215C514.285 217.215 515.532 216.653 516.397 215.671C517.263 216.653 518.509 217.215 519.818 217.215C521.127 217.215 522.373 216.653 523.239 215.671C524.1 216.664 525.346 217.237 526.66 217.244H528.94C530.15 217.244 531.31 216.764 532.166 215.908C533.021 215.053 533.502 213.893 533.502 212.684L530.447 202.421C530.447 201.514 530.087 200.644 529.445 200.002C528.804 199.36 527.934 199 527.027 199H527.026Z" fill="#12141D"/>
<path d="M514.117 224.086H520.958C521.588 224.086 522.098 224.716 522.098 225.226V234.349C522.098 234.979 521.588 235.489 520.958 235.489H514.117C513.487 235.489 512.976 234.859 512.976 234.349V225.226C512.976 224.596 513.487 224.086 514.117 224.086V224.086Z" fill="#12141D"/>
<path d="M502.714 228.647C501.807 228.647 500.936 229.008 500.295 229.65C499.653 230.291 499.293 231.161 499.293 232.068V242.331H506.134V232.068C506.134 231.161 505.774 230.291 505.132 229.65C504.491 229.008 503.621 228.647 502.714 228.647H502.714Z" fill="#12141D"/>
<path d="M523.239 218.59C522.203 219.202 521.022 219.525 519.818 219.525C518.615 219.525 517.434 219.202 516.397 218.59C515.361 219.202 514.18 219.525 512.976 219.525C511.773 219.525 510.591 219.202 509.555 218.59C508.519 219.202 507.338 219.525 506.134 219.525C504.931 219.525 503.75 219.202 502.714 218.59C501.677 219.202 500.496 219.525 499.293 219.525C498.089 219.525 496.908 219.202 495.872 218.59C494.837 219.205 493.655 219.529 492.451 219.525H490.171V241.191C490.171 241.493 490.291 241.783 490.504 241.997C490.718 242.211 491.008 242.331 491.311 242.331H497.012V232.068C497.012 230.031 498.099 228.15 499.863 227.131C501.627 226.113 503.8 226.113 505.564 227.131C507.328 228.15 508.415 230.031 508.415 232.068V242.331H527.8C528.102 242.331 528.392 242.211 528.606 241.997C528.82 241.783 528.94 241.493 528.94 241.191V219.525H526.66C525.456 219.529 524.273 219.205 523.239 218.59H523.239ZM524.379 234.349C524.379 235.256 524.019 236.126 523.377 236.768C522.736 237.409 521.865 237.77 520.958 237.77H514.117C513.21 237.77 512.339 237.409 511.698 236.768C511.056 236.126 510.696 235.256 510.696 234.349V225.226V225.227C510.696 224.32 511.056 223.449 511.698 222.808C512.339 222.166 513.21 221.806 514.117 221.806H520.958C521.865 221.806 522.736 222.166 523.377 222.808C524.019 223.449 524.379 224.32 524.379 225.227V234.349Z" fill="#12141D"/>
</g>
</g>
<g filter="url(#filter6_d_101_66)">
<rect x="84" y="177" width="352.783" height="349" rx="5.5194" fill="white"/>
<path d="M84 182.519C84 179.471 86.4711 177 89.5194 177H431.264C434.312 177 436.783 179.471 436.783 182.519V221.453H84V182.519Z" fill="#12141D"/>
<circle cx="378.596" cy="200.179" r="4.41552" fill="#F23936"/>
<circle cx="394.051" cy="200.179" r="4.41552" fill="#FABB18"/>
<circle cx="409.504" cy="200.179" r="4.41552" fill="#008EFF"/>
<path d="M106.429 207.143L111.428 194.726H113.388L118.369 207.143H115.808L111.958 196.952H112.841L108.937 207.143H106.429ZM109.079 204.829V202.815H115.755V204.829H109.079ZM122.863 207.319C122.075 207.319 121.368 207.125 120.744 206.736C120.12 206.348 119.625 205.818 119.26 205.147C118.907 204.476 118.731 203.722 118.731 202.886C118.731 202.038 118.907 201.279 119.26 200.608C119.625 199.937 120.114 199.407 120.726 199.018C121.35 198.63 122.063 198.435 122.863 198.435C123.476 198.435 124.023 198.559 124.506 198.806C125.001 199.053 125.395 199.401 125.689 199.848C125.996 200.284 126.16 200.778 126.184 201.332V204.37C126.16 204.923 126.001 205.424 125.707 205.871C125.413 206.318 125.018 206.672 124.524 206.931C124.029 207.19 123.476 207.319 122.863 207.319ZM123.252 205.182C123.688 205.182 124.064 205.088 124.382 204.9C124.712 204.699 124.965 204.429 125.142 204.087C125.33 203.734 125.424 203.328 125.424 202.868C125.424 202.421 125.33 202.027 125.142 201.685C124.965 201.332 124.712 201.061 124.382 200.873C124.064 200.672 123.694 200.572 123.27 200.572C122.834 200.572 122.451 200.672 122.122 200.873C121.804 201.073 121.551 201.344 121.362 201.685C121.186 202.027 121.097 202.421 121.097 202.868C121.097 203.328 121.186 203.734 121.362 204.087C121.551 204.429 121.81 204.699 122.139 204.9C122.469 205.088 122.84 205.182 123.252 205.182ZM127.597 207.143H125.301V204.847L125.672 202.762L125.283 200.714V194.373H127.597V207.143ZM129.891 207.143V194.726H131.587L136.62 202.78H135.649L140.665 194.726H142.36V207.143H139.976V198.841L140.435 198.983L136.938 204.599H135.313L131.816 198.983L132.293 198.841V207.143H129.891ZM144.65 207.143V198.612H146.963V207.143H144.65ZM146.963 202.427L146.063 201.826C146.169 200.778 146.475 199.954 146.981 199.354C147.487 198.741 148.217 198.435 149.171 198.435C149.583 198.435 149.954 198.506 150.284 198.647C150.613 198.777 150.914 198.995 151.185 199.301L149.736 200.961C149.607 200.82 149.448 200.714 149.259 200.643C149.083 200.572 148.877 200.537 148.641 200.537C148.147 200.537 147.74 200.696 147.423 201.014C147.116 201.32 146.963 201.791 146.963 202.427ZM153.303 207.143V195.062H155.617V207.143H153.303ZM151.307 200.643V198.612H157.613V200.643H151.307ZM162.611 207.143V194.726H165.013V207.143H162.611ZM164.377 202.056V199.919H170.629V202.056H164.377ZM164.377 196.846V194.726H170.93V196.846H164.377ZM176.361 207.319C175.466 207.319 174.671 207.131 173.977 206.754C173.282 206.366 172.729 205.836 172.316 205.164C171.916 204.493 171.716 203.728 171.716 202.868C171.716 202.021 171.91 201.267 172.299 200.608C172.699 199.937 173.241 199.407 173.924 199.018C174.607 198.618 175.366 198.418 176.202 198.418C177.026 198.418 177.75 198.606 178.374 198.983C179.01 199.348 179.505 199.854 179.858 200.502C180.223 201.138 180.406 201.862 180.406 202.674C180.406 202.827 180.394 202.986 180.37 203.151C180.359 203.304 180.329 203.481 180.282 203.681L173.111 203.699V201.968L179.205 201.95L178.269 202.674C178.245 202.168 178.151 201.744 177.986 201.402C177.833 201.061 177.603 200.802 177.297 200.625C177.003 200.437 176.638 200.343 176.202 200.343C175.743 200.343 175.343 200.449 175.001 200.661C174.66 200.861 174.395 201.149 174.206 201.526C174.03 201.891 173.941 202.327 173.941 202.833C173.941 203.351 174.036 203.805 174.224 204.193C174.424 204.57 174.707 204.864 175.072 205.076C175.437 205.276 175.861 205.376 176.343 205.376C176.779 205.376 177.173 205.306 177.527 205.164C177.88 205.011 178.186 204.788 178.445 204.493L179.805 205.853C179.393 206.336 178.887 206.701 178.286 206.948C177.697 207.196 177.056 207.319 176.361 207.319ZM185.916 207.319C185.022 207.319 184.227 207.131 183.532 206.754C182.837 206.366 182.284 205.836 181.872 205.164C181.472 204.493 181.271 203.728 181.271 202.868C181.271 202.021 181.466 201.267 181.854 200.608C182.255 199.937 182.796 199.407 183.479 199.018C184.162 198.618 184.922 198.418 185.758 198.418C186.582 198.418 187.306 198.606 187.93 198.983C188.566 199.348 189.06 199.854 189.414 200.502C189.779 201.138 189.961 201.862 189.961 202.674C189.961 202.827 189.949 202.986 189.926 203.151C189.914 203.304 189.885 203.481 189.837 203.681L182.667 203.699V201.968L188.76 201.95L187.824 202.674C187.8 202.168 187.706 201.744 187.541 201.402C187.388 201.061 187.159 200.802 186.853 200.625C186.558 200.437 186.193 200.343 185.758 200.343C185.298 200.343 184.898 200.449 184.556 200.661C184.215 200.861 183.95 201.149 183.762 201.526C183.585 201.891 183.497 202.327 183.497 202.833C183.497 203.351 183.591 203.805 183.779 204.193C183.98 204.57 184.262 204.864 184.627 205.076C184.992 205.276 185.416 205.376 185.899 205.376C186.334 205.376 186.729 205.306 187.082 205.164C187.435 205.011 187.742 204.788 188.001 204.493L189.361 205.853C188.948 206.336 188.442 206.701 187.842 206.948C187.253 207.196 186.611 207.319 185.916 207.319ZM198.692 207.319C197.691 207.319 196.832 207.149 196.113 206.807C195.407 206.466 194.765 205.953 194.188 205.27L195.778 203.681C196.143 204.164 196.567 204.54 197.049 204.811C197.532 205.07 198.121 205.2 198.816 205.2C199.44 205.2 199.934 205.076 200.299 204.829C200.676 204.582 200.864 204.24 200.864 203.805C200.864 203.428 200.758 203.122 200.546 202.886C200.335 202.651 200.052 202.45 199.699 202.286C199.357 202.121 198.975 201.974 198.551 201.844C198.139 201.703 197.721 201.544 197.297 201.367C196.885 201.191 196.502 200.973 196.149 200.714C195.807 200.443 195.53 200.101 195.318 199.689C195.107 199.265 195.001 198.735 195.001 198.1C195.001 197.346 195.183 196.704 195.548 196.174C195.913 195.645 196.414 195.238 197.049 194.956C197.685 194.673 198.403 194.532 199.204 194.532C200.052 194.532 200.817 194.691 201.5 195.009C202.183 195.327 202.742 195.739 203.178 196.245L201.589 197.835C201.224 197.434 200.847 197.14 200.458 196.952C200.081 196.763 199.652 196.669 199.169 196.669C198.615 196.669 198.18 196.775 197.862 196.987C197.544 197.199 197.385 197.505 197.385 197.905C197.385 198.247 197.491 198.524 197.703 198.735C197.915 198.947 198.192 199.13 198.533 199.283C198.886 199.436 199.269 199.583 199.681 199.725C200.105 199.866 200.523 200.025 200.935 200.201C201.359 200.378 201.742 200.608 202.083 200.89C202.436 201.173 202.719 201.538 202.931 201.985C203.143 202.421 203.249 202.963 203.249 203.61C203.249 204.764 202.843 205.671 202.03 206.33C201.218 206.99 200.105 207.319 198.692 207.319ZM206.151 207.143V195.062H208.465V207.143H206.151ZM204.155 200.643V198.612H210.461V200.643H204.155ZM211.762 207.143V198.612H214.076V207.143H211.762ZM214.076 202.427L213.175 201.826C213.281 200.778 213.587 199.954 214.093 199.354C214.6 198.741 215.33 198.435 216.283 198.435C216.696 198.435 217.067 198.506 217.396 198.647C217.726 198.777 218.026 198.995 218.297 199.301L216.849 200.961C216.719 200.82 216.56 200.714 216.372 200.643C216.195 200.572 215.989 200.537 215.754 200.537C215.259 200.537 214.853 200.696 214.535 201.014C214.229 201.32 214.076 201.791 214.076 202.427ZM222.748 207.319C221.995 207.319 221.323 207.16 220.735 206.842C220.158 206.524 219.704 206.083 219.375 205.518C219.045 204.953 218.88 204.299 218.88 203.557V198.612H221.211V203.504C221.211 203.857 221.27 204.164 221.388 204.423C221.506 204.67 221.682 204.858 221.918 204.988C222.153 205.117 222.43 205.182 222.748 205.182C223.231 205.182 223.608 205.035 223.878 204.741C224.149 204.446 224.285 204.034 224.285 203.504V198.612H226.598V203.557C226.598 204.311 226.434 204.97 226.104 205.535C225.786 206.101 225.333 206.542 224.744 206.86C224.167 207.166 223.502 207.319 222.748 207.319ZM232.468 207.319C231.597 207.319 230.814 207.125 230.119 206.736C229.424 206.348 228.877 205.818 228.476 205.147C228.076 204.476 227.876 203.722 227.876 202.886C227.876 202.038 228.076 201.279 228.476 200.608C228.877 199.937 229.424 199.407 230.119 199.018C230.825 198.618 231.608 198.418 232.468 198.418C233.139 198.418 233.757 198.541 234.322 198.788C234.888 199.036 235.376 199.389 235.788 199.848L234.305 201.349C234.081 201.102 233.81 200.914 233.492 200.784C233.186 200.655 232.845 200.59 232.468 200.59C232.044 200.59 231.661 200.69 231.32 200.89C230.99 201.079 230.725 201.344 230.525 201.685C230.337 202.015 230.242 202.409 230.242 202.868C230.242 203.316 230.337 203.716 230.525 204.069C230.725 204.411 230.99 204.682 231.32 204.882C231.661 205.07 232.044 205.164 232.468 205.164C232.856 205.164 233.204 205.1 233.51 204.97C233.828 204.829 234.099 204.629 234.322 204.37L235.824 205.871C235.388 206.342 234.888 206.701 234.322 206.948C233.757 207.196 233.139 207.319 232.468 207.319ZM238.25 207.143V195.062H240.564V207.143H238.25ZM236.254 200.643V198.612H242.56V200.643H236.254ZM247.499 207.319C246.746 207.319 246.074 207.16 245.486 206.842C244.909 206.524 244.455 206.083 244.126 205.518C243.796 204.953 243.631 204.299 243.631 203.557V198.612H245.963V203.504C245.963 203.857 246.021 204.164 246.139 204.423C246.257 204.67 246.434 204.858 246.669 204.988C246.905 205.117 247.181 205.182 247.499 205.182C247.982 205.182 248.359 205.035 248.63 204.741C248.9 204.446 249.036 204.034 249.036 203.504V198.612H251.349V203.557C251.349 204.311 251.185 204.97 250.855 205.535C250.537 206.101 250.084 206.542 249.495 206.86C248.918 207.166 248.253 207.319 247.499 207.319ZM253.192 207.143V198.612H255.506V207.143H253.192ZM255.506 202.427L254.605 201.826C254.711 200.778 255.017 199.954 255.523 199.354C256.03 198.741 256.76 198.435 257.713 198.435C258.126 198.435 258.496 198.506 258.826 198.647C259.156 198.777 259.456 198.995 259.727 199.301L258.279 200.961C258.149 200.82 257.99 200.714 257.802 200.643C257.625 200.572 257.419 200.537 257.184 200.537C256.689 200.537 256.283 200.696 255.965 201.014C255.659 201.32 255.506 201.791 255.506 202.427ZM264.378 207.319C263.483 207.319 262.688 207.131 261.994 206.754C261.299 206.366 260.746 205.836 260.334 205.164C259.933 204.493 259.733 203.728 259.733 202.868C259.733 202.021 259.927 201.267 260.316 200.608C260.716 199.937 261.258 199.407 261.941 199.018C262.624 198.618 263.383 198.418 264.219 198.418C265.043 198.418 265.768 198.606 266.392 198.983C267.027 199.348 267.522 199.854 267.875 200.502C268.24 201.138 268.423 201.862 268.423 202.674C268.423 202.827 268.411 202.986 268.387 203.151C268.376 203.304 268.346 203.481 268.299 203.681L261.128 203.699V201.968L267.222 201.95L266.286 202.674C266.262 202.168 266.168 201.744 266.003 201.402C265.85 201.061 265.62 200.802 265.314 200.625C265.02 200.437 264.655 200.343 264.219 200.343C263.76 200.343 263.36 200.449 263.018 200.661C262.677 200.861 262.412 201.149 262.223 201.526C262.047 201.891 261.958 202.327 261.958 202.833C261.958 203.351 262.053 203.805 262.241 204.193C262.441 204.57 262.724 204.864 263.089 205.076C263.454 205.276 263.878 205.376 264.36 205.376C264.796 205.376 265.191 205.306 265.544 205.164C265.897 205.011 266.203 204.788 266.462 204.493L267.822 205.853C267.41 206.336 266.904 206.701 266.303 206.948C265.715 207.196 265.073 207.319 264.378 207.319Z" fill="white"/>
<circle opacity="0.15" cx="257.858" cy="374.18" r="96.6617" fill="#D0D0D0"/>
<g filter="url(#filter7_d_101_66)">
<path d="M340.037 312.594C341.924 311.011 342.176 308.191 340.517 306.371C331.946 296.97 321.779 289.144 310.474 283.259C297.85 276.687 284.055 272.666 269.876 271.426C255.698 270.185 241.414 271.75 227.841 276.029C214.267 280.309 201.669 287.221 190.766 296.369C179.864 305.518 170.87 316.724 164.298 329.348C157.726 341.973 153.705 355.768 152.465 369.946C151.225 384.124 152.789 398.408 157.069 411.982C160.901 424.136 166.844 435.508 174.613 445.582C176.117 447.532 178.938 447.772 180.825 446.189L260.431 379.391L340.037 312.594Z" fill="url(#paint3_linear_101_66)"/>
</g>
<g filter="url(#filter8_d_101_66)">
<path d="M143.982 348.183C141.58 347.635 139.181 349.136 138.722 351.555C134.332 374.666 136.755 398.592 145.745 420.4C155.303 443.584 171.813 463.235 193.003 476.646C214.192 490.058 239.018 496.571 264.062 495.288C289.106 494.006 313.137 484.99 332.845 469.484C352.553 453.977 366.969 432.742 374.107 408.703C381.246 384.663 380.757 359.002 372.707 335.252C364.657 311.502 349.442 290.832 329.157 276.088C310.077 262.22 287.393 254.236 263.898 253.065C261.438 252.942 259.415 254.921 259.383 257.384L257.931 368.663C257.894 371.502 255.247 373.585 252.479 372.953L143.982 348.183Z" fill="url(#paint4_linear_101_66)"/>
</g>
<g filter="url(#filter9_d_101_66)">
<circle cx="257.858" cy="374.18" r="61.7679" fill="white"/>
</g>
<circle cx="257.422" cy="373.946" r="58.3904" transform="rotate(165 257.422 373.946)" stroke="url(#paint5_linear_101_66)" stroke-width="6.24326"/>
<path d="M250.926 355.77H275.907L257.541 382.993H232.559L250.926 355.77Z" fill="#007AFF"/>
<path d="M252.019 385.518L244.905 396.062H271.071L289.438 368.839H270.125L258.873 385.518H252.019Z" fill="#312ECB"/>
<g filter="url(#filter10_d_101_66)">
<rect x="372" y="258" width="76" height="39" rx="5.5194" fill="white"/>
</g>
<path d="M386.447 279.005V277.581H389.1C389.63 277.581 390.04 277.446 390.33 277.176C390.63 276.896 390.78 276.512 390.78 276.022C390.78 275.582 390.635 275.212 390.345 274.912C390.055 274.612 389.645 274.463 389.115 274.463H386.447V272.963H389.19C389.85 272.963 390.43 273.098 390.93 273.368C391.429 273.628 391.814 273.988 392.084 274.448C392.364 274.897 392.504 275.412 392.504 275.992C392.504 276.602 392.364 277.131 392.084 277.581C391.814 278.031 391.429 278.381 390.93 278.631C390.43 278.88 389.85 279.005 389.19 279.005H386.447ZM385.262 283.458V272.963H386.986V283.458H385.262ZM391.02 283.458L387.346 278.9L388.951 278.316L393.193 283.458H391.02ZM396.954 283.608C396.234 283.608 395.585 283.448 395.005 283.128C394.435 282.799 393.981 282.349 393.641 281.779C393.311 281.209 393.146 280.57 393.146 279.86C393.146 279.15 393.311 278.516 393.641 277.956C393.971 277.386 394.415 276.936 394.975 276.607C395.545 276.277 396.175 276.112 396.864 276.112C397.534 276.112 398.124 276.267 398.633 276.577C399.153 276.886 399.558 277.311 399.848 277.851C400.148 278.391 400.298 279.005 400.298 279.695C400.298 279.815 400.288 279.94 400.268 280.07C400.258 280.19 400.238 280.325 400.208 280.475H394.3V279.125H399.353L398.738 279.665C398.718 279.225 398.633 278.855 398.483 278.556C398.333 278.256 398.119 278.026 397.839 277.866C397.569 277.706 397.234 277.626 396.834 277.626C396.414 277.626 396.05 277.716 395.74 277.896C395.43 278.076 395.19 278.331 395.02 278.661C394.85 278.98 394.765 279.365 394.765 279.815C394.765 280.265 394.855 280.66 395.035 280.999C395.215 281.339 395.47 281.604 395.8 281.794C396.13 281.974 396.509 282.064 396.939 282.064C397.309 282.064 397.649 281.999 397.959 281.869C398.279 281.739 398.548 281.549 398.768 281.299L399.818 282.364C399.468 282.774 399.043 283.083 398.543 283.293C398.044 283.503 397.514 283.608 396.954 283.608ZM403.515 283.458L400.231 276.262H402.061L404.564 282.124H403.485L406.004 276.262H407.758L404.474 283.458H403.515ZM411.407 283.608C410.687 283.608 410.038 283.448 409.458 283.128C408.888 282.799 408.433 282.349 408.093 281.779C407.764 281.209 407.599 280.57 407.599 279.86C407.599 279.15 407.764 278.516 408.093 277.956C408.423 277.386 408.868 276.936 409.428 276.607C409.998 276.277 410.627 276.112 411.317 276.112C411.987 276.112 412.576 276.267 413.086 276.577C413.606 276.886 414.011 277.311 414.301 277.851C414.6 278.391 414.75 279.005 414.75 279.695C414.75 279.815 414.74 279.94 414.72 280.07C414.71 280.19 414.69 280.325 414.66 280.475H408.753V279.125H413.806L413.191 279.665C413.171 279.225 413.086 278.855 412.936 278.556C412.786 278.256 412.571 278.026 412.291 277.866C412.022 277.706 411.687 277.626 411.287 277.626C410.867 277.626 410.502 277.716 410.192 277.896C409.883 278.076 409.643 278.331 409.473 278.661C409.303 278.98 409.218 279.365 409.218 279.815C409.218 280.265 409.308 280.66 409.488 280.999C409.668 281.339 409.923 281.604 410.252 281.794C410.582 281.974 410.962 282.064 411.392 282.064C411.762 282.064 412.102 281.999 412.411 281.869C412.731 281.739 413.001 281.549 413.221 281.299L414.271 282.364C413.921 282.774 413.496 283.083 412.996 283.293C412.496 283.503 411.967 283.608 411.407 283.608ZM420.589 283.458V279.305C420.589 278.825 420.434 278.431 420.124 278.121C419.824 277.811 419.434 277.656 418.954 277.656C418.634 277.656 418.35 277.726 418.1 277.866C417.85 278.006 417.655 278.201 417.515 278.451C417.375 278.701 417.305 278.985 417.305 279.305L416.66 278.945C416.66 278.396 416.78 277.911 417.02 277.491C417.26 277.061 417.59 276.726 418.01 276.487C418.44 276.237 418.919 276.112 419.449 276.112C419.989 276.112 420.469 276.252 420.888 276.532C421.308 276.801 421.638 277.156 421.878 277.596C422.118 278.026 422.238 278.476 422.238 278.945V283.458H420.589ZM415.656 283.458V276.262H417.305V283.458H415.656ZM426.451 283.608C425.841 283.608 425.296 283.473 424.817 283.203C424.347 282.933 423.977 282.564 423.707 282.094C423.447 281.614 423.317 281.064 423.317 280.445V276.262H424.966V280.37C424.966 280.72 425.021 281.019 425.131 281.269C425.251 281.509 425.421 281.694 425.641 281.824C425.871 281.954 426.141 282.019 426.451 282.019C426.931 282.019 427.295 281.879 427.545 281.599C427.805 281.309 427.935 280.899 427.935 280.37V276.262H429.584V280.445C429.584 281.074 429.449 281.629 429.179 282.109C428.92 282.579 428.555 282.948 428.085 283.218C427.615 283.478 427.07 283.608 426.451 283.608ZM434.169 283.608C433.45 283.608 432.8 283.448 432.22 283.128C431.651 282.799 431.196 282.349 430.856 281.779C430.526 281.209 430.361 280.57 430.361 279.86C430.361 279.15 430.526 278.516 430.856 277.956C431.186 277.386 431.631 276.936 432.19 276.607C432.76 276.277 433.39 276.112 434.08 276.112C434.749 276.112 435.339 276.267 435.849 276.577C436.368 276.886 436.773 277.311 437.063 277.851C437.363 278.391 437.513 279.005 437.513 279.695C437.513 279.815 437.503 279.94 437.483 280.07C437.473 280.19 437.453 280.325 437.423 280.475H431.516V279.125H436.568L435.954 279.665C435.934 279.225 435.849 278.855 435.699 278.556C435.549 278.256 435.334 278.026 435.054 277.866C434.784 277.706 434.449 277.626 434.05 277.626C433.63 277.626 433.265 277.716 432.955 277.896C432.645 278.076 432.405 278.331 432.235 278.661C432.065 278.98 431.981 279.365 431.981 279.815C431.981 280.265 432.07 280.66 432.25 280.999C432.43 281.339 432.685 281.604 433.015 281.794C433.345 281.974 433.725 282.064 434.154 282.064C434.524 282.064 434.864 281.999 435.174 281.869C435.494 281.739 435.764 281.549 435.984 281.299L437.033 282.364C436.683 282.774 436.258 283.083 435.759 283.293C435.259 283.503 434.729 283.608 434.169 283.608Z" fill="#12141D"/>
<g filter="url(#filter11_d_101_66)">
<rect x="50" y="294" width="90" height="39" rx="5.5194" fill="white"/>
</g>
<path d="M210.745 311.103C210.745 313.556 212.734 315.545 215.187 315.545C217.641 315.545 219.63 313.556 219.63 311.103C219.63 308.649 217.641 306.66 215.187 306.66C212.734 306.66 210.745 308.649 210.745 311.103ZM174.374 293.611L174.702 292.845L174.295 292.671L173.922 292.911L174.374 293.611ZM138.28 314.018C138.28 316.471 140.269 318.46 142.722 318.46C145.175 318.46 147.164 316.471 147.164 314.018C147.164 311.564 145.175 309.576 142.722 309.576C140.269 309.576 138.28 311.564 138.28 314.018ZM215.516 310.337L174.702 292.845L174.045 294.377L214.859 311.868L215.516 310.337ZM173.922 292.911L142.271 313.318L143.173 314.718L174.825 294.311L173.922 292.911Z" fill="black"/>
<path d="M66.1395 319V308.505H67.8636V319H66.1395ZM67.3239 319V317.426H72.8113V319H67.3239ZM76.8357 319.15C76.1161 319.15 75.4664 318.99 74.8867 318.67C74.3169 318.34 73.8621 317.891 73.5223 317.321C73.1925 316.751 73.0275 316.111 73.0275 315.402C73.0275 314.692 73.1925 314.057 73.5223 313.498C73.8522 312.928 74.2969 312.478 74.8567 312.148C75.4264 311.818 76.0561 311.654 76.7458 311.654C77.4155 311.654 78.0052 311.808 78.5149 312.118C79.0347 312.428 79.4395 312.853 79.7293 313.393C80.0292 313.932 80.1791 314.547 80.1791 315.237C80.1791 315.357 80.1691 315.482 80.1491 315.612C80.1392 315.732 80.1192 315.866 80.0892 316.016H74.182V314.667H79.2346L78.6199 315.207C78.5999 314.767 78.5149 314.397 78.365 314.097C78.2151 313.797 78.0002 313.568 77.7203 313.408C77.4504 313.248 77.1156 313.168 76.7158 313.168C76.296 313.168 75.9312 313.258 75.6213 313.438C75.3115 313.618 75.0716 313.872 74.9017 314.202C74.7317 314.522 74.6468 314.907 74.6468 315.357C74.6468 315.807 74.7367 316.201 74.9166 316.541C75.0966 316.881 75.3514 317.146 75.6813 317.336C76.0111 317.516 76.3909 317.606 76.8207 317.606C77.1906 317.606 77.5304 317.541 77.8402 317.411C78.1601 317.281 78.43 317.091 78.6499 316.841L79.6994 317.906C79.3495 318.315 78.9247 318.625 78.425 318.835C77.9252 319.045 77.3955 319.15 76.8357 319.15ZM83.4386 319.15C83.0388 319.15 82.654 319.1 82.2842 319C81.9143 318.89 81.5745 318.74 81.2646 318.55C80.9548 318.35 80.6849 318.11 80.455 317.831L81.5045 316.781C81.7544 317.071 82.0393 317.291 82.3591 317.441C82.689 317.581 83.0588 317.651 83.4686 317.651C83.8384 317.651 84.1183 317.596 84.3082 317.486C84.4981 317.376 84.5931 317.216 84.5931 317.006C84.5931 316.786 84.5031 316.616 84.3232 316.496C84.1433 316.376 83.9084 316.276 83.6185 316.196C83.3387 316.106 83.0388 316.016 82.7189 315.926C82.4091 315.837 82.1092 315.717 81.8194 315.567C81.5395 315.407 81.3096 315.192 81.1297 314.922C80.9498 314.652 80.8598 314.302 80.8598 313.872C80.8598 313.413 80.9648 313.018 81.1747 312.688C81.3946 312.358 81.6994 312.103 82.0892 311.923C82.4891 311.743 82.9638 311.654 83.5136 311.654C84.0933 311.654 84.603 311.758 85.0428 311.968C85.4926 312.168 85.8674 312.473 86.1673 312.883L85.1178 313.932C84.9079 313.673 84.668 313.478 84.3981 313.348C84.1283 313.218 83.8184 313.153 83.4686 313.153C83.1387 313.153 82.8839 313.203 82.704 313.303C82.524 313.403 82.4341 313.548 82.4341 313.738C82.4341 313.937 82.524 314.092 82.704 314.202C82.8839 314.312 83.1138 314.407 83.3936 314.487C83.6835 314.567 83.9833 314.657 84.2932 314.757C84.613 314.847 84.9129 314.977 85.1928 315.147C85.4826 315.307 85.7175 315.527 85.8974 315.807C86.0773 316.076 86.1673 316.431 86.1673 316.871C86.1673 317.571 85.9224 318.125 85.4327 318.535C84.9429 318.945 84.2782 319.15 83.4386 319.15ZM89.4644 319.15C89.0646 319.15 88.6797 319.1 88.3099 319C87.9401 318.89 87.6003 318.74 87.2904 318.55C86.9806 318.35 86.7107 318.11 86.4808 317.831L87.5303 316.781C87.7802 317.071 88.065 317.291 88.3849 317.441C88.7147 317.581 89.0846 317.651 89.4944 317.651C89.8642 317.651 90.144 317.596 90.334 317.486C90.5239 317.376 90.6188 317.216 90.6188 317.006C90.6188 316.786 90.5289 316.616 90.3489 316.496C90.169 316.376 89.9341 316.276 89.6443 316.196C89.3644 316.106 89.0646 316.016 88.7447 315.926C88.4349 315.837 88.135 315.717 87.8451 315.567C87.5653 315.407 87.3354 315.192 87.1555 314.922C86.9756 314.652 86.8856 314.302 86.8856 313.872C86.8856 313.413 86.9906 313.018 87.2005 312.688C87.4203 312.358 87.7252 312.103 88.115 311.923C88.5148 311.743 88.9896 311.654 89.5393 311.654C90.1191 311.654 90.6288 311.758 91.0686 311.968C91.5184 312.168 91.8932 312.473 92.1931 312.883L91.1436 313.932C90.9337 313.673 90.6938 313.478 90.4239 313.348C90.154 313.218 89.8442 313.153 89.4944 313.153C89.1645 313.153 88.9096 313.203 88.7297 313.303C88.5498 313.403 88.4599 313.548 88.4599 313.738C88.4599 313.937 88.5498 314.092 88.7297 314.202C88.9096 314.312 89.1395 314.407 89.4194 314.487C89.7093 314.567 90.0091 314.657 90.319 314.757C90.6388 314.847 90.9387 314.977 91.2185 315.147C91.5084 315.307 91.7433 315.527 91.9232 315.807C92.1031 316.076 92.1931 316.431 92.1931 316.871C92.1931 317.571 91.9482 318.125 91.4584 318.535C90.9687 318.945 90.304 319.15 89.4644 319.15ZM95.9462 319V308.505H97.6704V319H95.9462ZM97.1306 314.502V312.928H102.468V314.502H97.1306ZM97.1306 310.079V308.505H102.723V310.079H97.1306ZM106.862 319.15C106.142 319.15 105.493 318.99 104.913 318.67C104.343 318.34 103.888 317.891 103.549 317.321C103.219 316.751 103.054 316.111 103.054 315.402C103.054 314.692 103.219 314.057 103.549 313.498C103.879 312.928 104.323 312.478 104.883 312.148C105.453 311.818 106.082 311.654 106.772 311.654C107.442 311.654 108.032 311.808 108.541 312.118C109.061 312.428 109.466 312.853 109.756 313.393C110.056 313.932 110.205 314.547 110.205 315.237C110.205 315.357 110.195 315.482 110.175 315.612C110.165 315.732 110.146 315.866 110.116 316.016H104.208V314.667H109.261L108.646 315.207C108.626 314.767 108.541 314.397 108.391 314.097C108.241 313.797 108.027 313.568 107.747 313.408C107.477 313.248 107.142 313.168 106.742 313.168C106.322 313.168 105.958 313.258 105.648 313.438C105.338 313.618 105.098 313.872 104.928 314.202C104.758 314.522 104.673 314.907 104.673 315.357C104.673 315.807 104.763 316.201 104.943 316.541C105.123 316.881 105.378 317.146 105.708 317.336C106.037 317.516 106.417 317.606 106.847 317.606C107.217 317.606 107.557 317.541 107.867 317.411C108.186 317.281 108.456 317.091 108.676 316.841L109.726 317.906C109.376 318.315 108.951 318.625 108.451 318.835C107.952 319.045 107.422 319.15 106.862 319.15ZM114.454 319.15C113.735 319.15 113.085 318.99 112.505 318.67C111.936 318.34 111.481 317.891 111.141 317.321C110.811 316.751 110.646 316.111 110.646 315.402C110.646 314.692 110.811 314.057 111.141 313.498C111.471 312.928 111.916 312.478 112.475 312.148C113.045 311.818 113.675 311.654 114.365 311.654C115.034 311.654 115.624 311.808 116.134 312.118C116.653 312.428 117.058 312.853 117.348 313.393C117.648 313.932 117.798 314.547 117.798 315.237C117.798 315.357 117.788 315.482 117.768 315.612C117.758 315.732 117.738 315.866 117.708 316.016H111.801V314.667H116.853L116.239 315.207C116.219 314.767 116.134 314.397 115.984 314.097C115.834 313.797 115.619 313.568 115.339 313.408C115.069 313.248 114.734 313.168 114.335 313.168C113.915 313.168 113.55 313.258 113.24 313.438C112.93 313.618 112.69 313.872 112.52 314.202C112.35 314.522 112.266 314.907 112.266 315.357C112.266 315.807 112.355 316.201 112.535 316.541C112.715 316.881 112.97 317.146 113.3 317.336C113.63 317.516 114.01 317.606 114.439 317.606C114.809 317.606 115.149 317.541 115.459 317.411C115.779 317.281 116.049 317.091 116.269 316.841L117.318 317.906C116.968 318.315 116.543 318.625 116.044 318.835C115.544 319.045 115.014 319.15 114.454 319.15ZM121.057 319.15C120.658 319.15 120.273 319.1 119.903 319C119.533 318.89 119.193 318.74 118.883 318.55C118.574 318.35 118.304 318.11 118.074 317.831L119.123 316.781C119.373 317.071 119.658 317.291 119.978 317.441C120.308 317.581 120.678 317.651 121.087 317.651C121.457 317.651 121.737 317.596 121.927 317.486C122.117 317.376 122.212 317.216 122.212 317.006C122.212 316.786 122.122 316.616 121.942 316.496C121.762 316.376 121.527 316.276 121.237 316.196C120.957 316.106 120.658 316.016 120.338 315.926C120.028 315.837 119.728 315.717 119.438 315.567C119.158 315.407 118.928 315.192 118.748 314.922C118.569 314.652 118.479 314.302 118.479 313.872C118.479 313.413 118.584 313.018 118.793 312.688C119.013 312.358 119.318 312.103 119.708 311.923C120.108 311.743 120.583 311.654 121.132 311.654C121.712 311.654 122.222 311.758 122.662 311.968C123.111 312.168 123.486 312.473 123.786 312.883L122.737 313.932C122.527 313.673 122.287 313.478 122.017 313.348C121.747 313.218 121.437 313.153 121.087 313.153C120.757 313.153 120.503 313.203 120.323 313.303C120.143 313.403 120.053 313.548 120.053 313.738C120.053 313.937 120.143 314.092 120.323 314.202C120.503 314.312 120.733 314.407 121.012 314.487C121.302 314.567 121.602 314.657 121.912 314.757C122.232 314.847 122.532 314.977 122.812 315.147C123.101 315.307 123.336 315.527 123.516 315.807C123.696 316.076 123.786 316.431 123.786 316.871C123.786 317.571 123.541 318.125 123.051 318.535C122.562 318.945 121.897 319.15 121.057 319.15Z" fill="#12141D"/>
<path d="M336.935 399.81C336.935 402.264 338.924 404.253 341.377 404.253C343.831 404.253 345.82 402.264 345.82 399.81C345.82 397.357 343.831 395.368 341.377 395.368C338.924 395.368 336.935 397.357 336.935 399.81ZM330.549 313.185L330.006 312.553L329.667 312.845L329.723 313.288L330.549 313.185ZM367.753 277.369C367.753 279.822 369.742 281.811 372.196 281.811C374.649 281.811 376.638 279.822 376.638 277.369C376.638 274.915 374.649 272.926 372.196 272.926C369.742 272.926 367.753 274.915 367.753 277.369ZM342.204 399.707L331.376 313.082L329.723 313.288L340.551 399.914L342.204 399.707ZM331.092 313.816L372.739 278L371.653 276.737L330.006 312.553L331.092 313.816Z" fill="black"/>
</g>
<defs>
<filter id="filter0_d_101_66" x="242.789" y="0.167064" width="531.642" height="402.642" filterUnits="userSpaceOnUse" color-interpolation-filters="sRGB">
<feFlood flood-opacity="0" result="BackgroundImageFix"/>
<feColorMatrix in="SourceAlpha" type="matrix" values="0 0 0 0 0 0 0 0 0 0 0 0 0 0 0 0 0 0 127 0" result="hardAlpha"/>
<feOffset dy="2.98807"/>
<feGaussianBlur stdDeviation="22.4105"/>
<feComposite in2="hardAlpha" operator="out"/>
<feColorMatrix type="matrix" values="0 0 0 0 0 0 0 0 0 0 0 0 0 0 0 0 0 0 0.08 0"/>
<feBlend mode="normal" in2="BackgroundImageFix" result="effect1_dropShadow_101_66"/>
<feBlend mode="normal" in="SourceGraphic" in2="effect1_dropShadow_101_66" result="shape"/>
</filter>
<filter id="filter1_d_101_66" x="396.209" y="104.151" width="145.862" height="225.896" filterUnits="userSpaceOnUse" color-interpolation-filters="sRGB">
<feFlood flood-opacity="0" result="BackgroundImageFix"/>
<feColorMatrix in="SourceAlpha" type="matrix" values="0 0 0 0 0 0 0 0 0 0 0 0 0 0 0 0 0 0 127 0" result="hardAlpha"/>
<feOffset dy="-3.99947"/>
<feGaussianBlur stdDeviation="7.99893"/>
<feColorMatrix type="matrix" values="0 0 0 0 0 0 0 0 0 0 0 0 0 0 0 0 0 0 0.12 0"/>
<feBlend mode="normal" in2="BackgroundImageFix" result="effect1_dropShadow_101_66"/>
<feBlend mode="normal" in="SourceGraphic" in2="effect1_dropShadow_101_66" result="shape"/>
</filter>
<filter id="filter2_d_101_66" x="489.57" y="90.9638" width="145.982" height="252.505" filterUnits="userSpaceOnUse" color-interpolation-filters="sRGB">
<feFlood flood-opacity="0" result="BackgroundImageFix"/>
<feColorMatrix in="SourceAlpha" type="matrix" values="0 0 0 0 0 0 0 0 0 0 0 0 0 0 0 0 0 0 127 0" result="hardAlpha"/>
<feOffset dy="-3.99947"/>
<feGaussianBlur stdDeviation="7.99893"/>
<feColorMatrix type="matrix" values="0 0 0 0 0 0 0 0 0 0 0 0 0 0 0 0 0 0 0.12 0"/>
<feBlend mode="normal" in2="BackgroundImageFix" result="effect1_dropShadow_101_66"/>
<feBlend mode="normal" in="SourceGraphic" in2="effect1_dropShadow_101_66" result="shape"/>
</filter>
<filter id="filter3_d_101_66" x="434.817" y="150.766" width="148.037" height="148.037" filterUnits="userSpaceOnUse" color-interpolation-filters="sRGB">
<feFlood flood-opacity="0" result="BackgroundImageFix"/>
<feColorMatrix in="SourceAlpha" type="matrix" values="0 0 0 0 0 0 0 0 0 0 0 0 0 0 0 0 0 0 127 0" result="hardAlpha"/>
<feOffset dy="3.55857"/>
<feGaussianBlur stdDeviation="8.89643"/>
<feColorMatrix type="matrix" values="0 0 0 0 0 0 0 0 0 0 0 0 0 0 0 0 0 0 0.1 0"/>
<feBlend mode="normal" in2="BackgroundImageFix" result="effect1_dropShadow_101_66"/>
<feBlend mode="normal" in="SourceGraphic" in2="effect1_dropShadow_101_66" result="shape"/>
</filter>
<filter id="filter4_d_101_66" x="587.199" y="94.5776" width="164.821" height="80.821" filterUnits="userSpaceOnUse" color-interpolation-filters="sRGB">
<feFlood flood-opacity="0" result="BackgroundImageFix"/>
<feColorMatrix in="SourceAlpha" type="matrix" values="0 0 0 0 0 0 0 0 0 0 0 0 0 0 0 0 0 0 127 0" result="hardAlpha"/>
<feOffset dy="2.98807"/>
<feGaussianBlur stdDeviation="11.2053"/>
<feComposite in2="hardAlpha" operator="out"/>
<feColorMatrix type="matrix" values="0 0 0 0 0 0 0 0 0 0 0 0 0 0 0 0 0 0 0.08 0"/>
<feBlend mode="normal" in2="BackgroundImageFix" result="effect1_dropShadow_101_66"/>
<feBlend mode="normal" in="SourceGraphic" in2="effect1_dropShadow_101_66" result="shape"/>
</filter>
<filter id="filter5_d_101_66" x="265.199" y="82.5776" width="160.821" height="79.821" filterUnits="userSpaceOnUse" color-interpolation-filters="sRGB">
<feFlood flood-opacity="0" result="BackgroundImageFix"/>
<feColorMatrix in="SourceAlpha" type="matrix" values="0 0 0 0 0 0 0 0 0 0 0 0 0 0 0 0 0 0 127 0" result="hardAlpha"/>
<feOffset dy="2.98807"/>
<feGaussianBlur stdDeviation="11.2053"/>
<feComposite in2="hardAlpha" operator="out"/>
<feColorMatrix type="matrix" values="0 0 0 0 0 0 0 0 0 0 0 0 0 0 0 0 0 0 0.08 0"/>
<feBlend mode="normal" in2="BackgroundImageFix" result="effect1_dropShadow_101_66"/>
<feBlend mode="normal" in="SourceGraphic" in2="effect1_dropShadow_101_66" result="shape"/>
</filter>
<filter id="filter6_d_101_66" x="0.0238495" y="130.356" width="497.952" height="448.952" filterUnits="userSpaceOnUse" color-interpolation-filters="sRGB">
<feFlood flood-opacity="0" result="BackgroundImageFix"/>
<feColorMatrix in="SourceAlpha" type="matrix" values="0 0 0 0 0 0 0 0 0 0 0 0 0 0 0 0 0 0 127 0" result="hardAlpha"/>
<feOffset dy="3.33174"/>
<feGaussianBlur stdDeviation="24.9881"/>
<feComposite in2="hardAlpha" operator="out"/>
<feColorMatrix type="matrix" values="0 0 0 0 0 0 0 0 0 0 0 0 0 0 0 0 0 0 0.08 0"/>
<feBlend mode="normal" in2="BackgroundImageFix" result="effect1_dropShadow_101_66"/>
<feBlend mode="normal" in="SourceGraphic" in2="effect1_dropShadow_101_66" result="shape"/>
</filter>
<filter id="filter7_d_101_66" x="134.215" y="248.716" width="225.244" height="211.892" filterUnits="userSpaceOnUse" color-interpolation-filters="sRGB">
<feFlood flood-opacity="0" result="BackgroundImageFix"/>
<feColorMatrix in="SourceAlpha" type="matrix" values="0 0 0 0 0 0 0 0 0 0 0 0 0 0 0 0 0 0 127 0" result="hardAlpha"/>
<feOffset dy="-4.45947"/>
<feGaussianBlur stdDeviation="8.91894"/>
<feColorMatrix type="matrix" values="0 0 0 0 0 0 0 0 0 0 0 0 0 0 0 0 0 0 0.12 0"/>
<feBlend mode="normal" in2="BackgroundImageFix" result="effect1_dropShadow_101_66"/>
<feBlend mode="normal" in="SourceGraphic" in2="effect1_dropShadow_101_66" result="shape"/>
</filter>
<filter id="filter8_d_101_66" x="118.754" y="230.762" width="278.209" height="278.064" filterUnits="userSpaceOnUse" color-interpolation-filters="sRGB">
<feFlood flood-opacity="0" result="BackgroundImageFix"/>
<feColorMatrix in="SourceAlpha" type="matrix" values="0 0 0 0 0 0 0 0 0 0 0 0 0 0 0 0 0 0 127 0" result="hardAlpha"/>
<feOffset dy="-4.45947"/>
<feGaussianBlur stdDeviation="8.91894"/>
<feColorMatrix type="matrix" values="0 0 0 0 0 0 0 0 0 0 0 0 0 0 0 0 0 0 0.12 0"/>
<feBlend mode="normal" in2="BackgroundImageFix" result="effect1_dropShadow_101_66"/>
<feBlend mode="normal" in="SourceGraphic" in2="effect1_dropShadow_101_66" result="shape"/>
</filter>
<filter id="filter9_d_101_66" x="176.251" y="296.541" width="163.214" height="163.214" filterUnits="userSpaceOnUse" color-interpolation-filters="sRGB">
<feFlood flood-opacity="0" result="BackgroundImageFix"/>
<feColorMatrix in="SourceAlpha" type="matrix" values="0 0 0 0 0 0 0 0 0 0 0 0 0 0 0 0 0 0 127 0" result="hardAlpha"/>
<feOffset dy="3.96787"/>
<feGaussianBlur stdDeviation="9.91967"/>
<feColorMatrix type="matrix" values="0 0 0 0 0 0 0 0 0 0 0 0 0 0 0 0 0 0 0.1 0"/>
<feBlend mode="normal" in2="BackgroundImageFix" result="effect1_dropShadow_101_66"/>
<feBlend mode="normal" in="SourceGraphic" in2="effect1_dropShadow_101_66" result="shape"/>
</filter>
<filter id="filter10_d_101_66" x="347.012" y="236.344" width="125.976" height="88.9761" filterUnits="userSpaceOnUse" color-interpolation-filters="sRGB">
<feFlood flood-opacity="0" result="BackgroundImageFix"/>
<feColorMatrix in="SourceAlpha" type="matrix" values="0 0 0 0 0 0 0 0 0 0 0 0 0 0 0 0 0 0 127 0" result="hardAlpha"/>
<feOffset dy="3.33174"/>
<feGaussianBlur stdDeviation="12.494"/>
<feComposite in2="hardAlpha" operator="out"/>
<feColorMatrix type="matrix" values="0 0 0 0 0 0 0 0 0 0 0 0 0 0 0 0 0 0 0.08 0"/>
<feBlend mode="normal" in2="BackgroundImageFix" result="effect1_dropShadow_101_66"/>
<feBlend mode="normal" in="SourceGraphic" in2="effect1_dropShadow_101_66" result="shape"/>
</filter>
<filter id="filter11_d_101_66" x="25.0119" y="272.344" width="139.976" height="88.9761" filterUnits="userSpaceOnUse" color-interpolation-filters="sRGB">
<feFlood flood-opacity="0" result="BackgroundImageFix"/>
<feColorMatrix in="SourceAlpha" type="matrix" values="0 0 0 0 0 0 0 0 0 0 0 0 0 0 0 0 0 0 127 0" result="hardAlpha"/>
<feOffset dy="3.33174"/>
<feGaussianBlur stdDeviation="12.494"/>
<feComposite in2="hardAlpha" operator="out"/>
<feColorMatrix type="matrix" values="0 0 0 0 0 0 0 0 0 0 0 0 0 0 0 0 0 0 0.08 0"/>
<feBlend mode="normal" in2="BackgroundImageFix" result="effect1_dropShadow_101_66"/>
<feBlend mode="normal" in="SourceGraphic" in2="effect1_dropShadow_101_66" result="shape"/>
</filter>
<linearGradient id="paint0_linear_101_66" x1="475.89" y1="312.163" x2="542.423" y2="130.034" gradientUnits="userSpaceOnUse">
<stop stop-color="#007AFF"/>
<stop offset="1" stop-color="#312ECB"/>
</linearGradient>
<linearGradient id="paint1_linear_101_66" x1="602.638" y1="162.362" x2="415.7" y2="279.809" gradientUnits="userSpaceOnUse">
<stop stop-color="#FF0000"/>
<stop offset="1" stop-color="#FF5757"/>
</linearGradient>
<linearGradient id="paint2_linear_101_66" x1="474.776" y1="176.877" x2="540.367" y2="260.866" gradientUnits="userSpaceOnUse">
<stop stop-color="white" stop-opacity="0"/>
<stop offset="0.514211" stop-color="#2B59FF" stop-opacity="0.2"/>
<stop offset="1" stop-color="white" stop-opacity="0"/>
</linearGradient>
<linearGradient id="paint3_linear_101_66" x1="343.453" y1="309.727" x2="177.408" y2="449.055" gradientUnits="userSpaceOnUse">
<stop stop-color="#007AFF"/>
<stop offset="1" stop-color="#312ECB"/>
</linearGradient>
<linearGradient id="paint4_linear_101_66" x1="360.541" y1="309.668" x2="155.176" y2="438.693" gradientUnits="userSpaceOnUse">
<stop stop-color="#24CA49"/>
<stop offset="1" stop-color="#5BFF80"/>
</linearGradient>
<linearGradient id="paint5_linear_101_66" x1="220.075" y1="325.615" x2="292.132" y2="417.883" gradientUnits="userSpaceOnUse">
<stop stop-color="white" stop-opacity="0"/>
<stop offset="0.514211" stop-color="#2B59FF" stop-opacity="0.2"/>
<stop offset="1" stop-color="white" stop-opacity="0"/>
</linearGradient>
</defs>
</svg>
