<svg width="270" height="318" viewBox="0 0 270 318" fill="none" xmlns="http://www.w3.org/2000/svg">
<ellipse cx="135" cy="134.006" rx="135" ry="134.006" transform="matrix(-1 0 0 1 270 49.7054)" fill="url(#paint0_linear_143_1033)"/>
<circle cx="81.5167" cy="257.673" r="29.4256" fill="#FACFCA"/>
<mask id="mask0_143_1033" style="mask-type:alpha" maskUnits="userSpaceOnUse" x="0" y="0" width="270" height="318">
<path fill-rule="evenodd" clip-rule="evenodd" d="M242.393 102.499C249.14 93.326 252.901 83.1223 252.901 72.3711C252.901 32.4016 200.916 0 136.79 0C72.6627 0 20.6777 32.4016 20.6777 72.3711C20.6777 82.1911 23.8157 91.5544 29.5007 100.092C11.0389 123.013 0.00012207 152.083 0.00012207 183.711C0.00012207 257.721 60.4417 317.717 135 317.717C209.558 317.717 270 257.721 270 183.711C270 153.179 259.714 125.032 242.393 102.499Z" fill="#C4C4C4"/>
</mask>
<g mask="url(#mask0_143_1033)">
<path fill-rule="evenodd" clip-rule="evenodd" d="M136.443 171.438C154.152 171.438 163.663 183.258 165.431 195.262C167.228 207.542 165.178 217.708 165.69 232.553C166.037 242.548 170.442 249.225 173.265 258.137C176.089 267.048 100.729 269.296 101.179 260.961C101.628 252.626 107.02 244.088 107.213 233.706C107.41 223.12 105.901 216.768 106.108 199.548C106.262 185.955 118.727 171.438 136.443 171.438Z" fill="black"/>
<path fill-rule="evenodd" clip-rule="evenodd" d="M63.7303 320.451C63.0514 312.083 66.7868 282.243 78.3339 259.961C121.462 236.101 175.574 247.466 196.97 259.961C204.214 267.313 209.451 316.156 207.867 319.661" fill="#FFD98E"/>
<path d="M88.6254 319.661C89.3042 314.232 90.3799 305.485 92.1344 297.383" stroke="#FF8364" stroke-width="4.06607" stroke-linecap="round" stroke-linejoin="round"/>
<path d="M184.279 319.661C183.6 314.232 182.524 305.485 180.77 297.383" stroke="#FF8364" stroke-width="4.06607" stroke-linecap="round" stroke-linejoin="round"/>
<path fill-rule="evenodd" clip-rule="evenodd" d="M109.069 210.182C109.069 209.235 109.349 208.308 109.876 207.52C110.402 206.731 111.151 206.116 112.027 205.753C112.903 205.389 113.867 205.293 114.798 205.477C115.728 205.661 116.584 206.116 117.255 206.785C117.927 207.454 118.385 208.308 118.572 209.237C118.758 210.166 118.665 211.13 118.303 212.006C117.942 212.882 117.328 213.631 116.54 214.159C115.753 214.687 114.826 214.97 113.877 214.972C113.247 214.974 112.622 214.851 112.039 214.611C111.456 214.37 110.926 214.018 110.479 213.573C110.033 213.128 109.678 212.6 109.437 212.018C109.195 211.436 109.07 210.812 109.069 210.182Z" fill="#D18C65"/>
<path fill-rule="evenodd" clip-rule="evenodd" d="M153.067 210.182C153.066 209.234 153.347 208.307 153.874 207.519C154.401 206.73 155.15 206.115 156.026 205.752C156.903 205.388 157.868 205.293 158.799 205.478C159.73 205.662 160.585 206.118 161.256 206.789C161.928 207.459 162.385 208.313 162.57 209.243C162.756 210.173 162.661 211.137 162.298 212.013C161.935 212.889 161.32 213.637 160.531 214.164C159.742 214.691 158.814 214.972 157.865 214.972C156.593 214.972 155.373 214.468 154.473 213.569C153.574 212.671 153.068 211.453 153.067 210.182Z" fill="#D18C65"/>
<path fill-rule="evenodd" clip-rule="evenodd" d="M155.549 127.67C150.709 123.899 149.515 128.113 148.758 130.619C148 133.125 148.056 137.545 151.85 137.45C155.176 140.428 158.271 136.572 159.222 134.613C160.174 132.653 162.509 128.404 155.549 127.67Z" fill="#FF8364"/>
<path d="M158.751 124.984C157.081 125.57 156.143 126.37 155.612 127.759" stroke="#FFD98E" stroke-width="2.0082" stroke-linecap="round" stroke-linejoin="round"/>
<path fill-rule="evenodd" clip-rule="evenodd" d="M123.985 150.05C123.984 148.94 124.313 147.855 124.929 146.931C125.546 146.007 126.423 145.287 127.449 144.861C128.476 144.435 129.605 144.323 130.695 144.538C131.786 144.753 132.788 145.287 133.575 146.07C134.362 146.854 134.898 147.854 135.117 148.942C135.336 150.031 135.226 151.16 134.803 152.186C134.38 153.213 133.661 154.091 132.738 154.709C131.816 155.328 130.73 155.66 129.619 155.662C128.88 155.664 128.148 155.52 127.464 155.239C126.781 154.958 126.16 154.545 125.637 154.024C125.113 153.502 124.698 152.883 124.415 152.201C124.131 151.519 123.985 150.789 123.985 150.05Z" fill="#6BD5E1"/>
<path fill-rule="evenodd" clip-rule="evenodd" d="M85.0605 152.527L100.628 148.579L106.935 173.407L91.3703 177.338L85.0605 152.527Z" fill="#DFDFDF"/>
<path fill-rule="evenodd" clip-rule="evenodd" d="M88.34 155.263L99.0508 152.547L99.8772 155.8L89.1664 158.51L88.34 155.263Z" fill="#FF8364"/>
<path d="M90.0649 162.048L100.776 159.332" stroke="#6BD5E1" stroke-width="2.20689" stroke-linecap="round" stroke-linejoin="round"/>
<path d="M90.9635 165.58L101.678 162.864" stroke="#6BD5E1" stroke-width="2.20689" stroke-linecap="round" stroke-linejoin="round"/>
<path d="M91.9044 169.265L102.625 166.546" stroke="#6BD5E1" stroke-width="2.20689" stroke-linecap="round" stroke-linejoin="round"/>
<path d="M92.8038 172.827L97.0081 171.759" stroke="#6BD5E1" stroke-width="2.20689" stroke-linecap="round" stroke-linejoin="round"/>
<path d="M101.838 170.533L103.524 170.107" stroke="#6BD5E1" stroke-width="2.20689" stroke-linecap="round" stroke-linejoin="round"/>
<path fill-rule="evenodd" clip-rule="evenodd" d="M74.7397 96.1561L115.025 76.9934L127.615 103.403L87.3297 122.569L74.7397 96.1561Z" fill="#DFDFDF"/>
<path d="M88.6713 116.728L92.6788 105.009L100.146 106.417L103.078 91.9659L110.293 93.165L112.392 82.9693" stroke="#FF8364" stroke-width="2.20689" stroke-linecap="round" stroke-linejoin="round"/>
<path fill-rule="evenodd" clip-rule="evenodd" d="M91.2653 105.762C91.0896 105.392 91.0277 104.978 91.0874 104.572C91.1471 104.167 91.3258 103.788 91.6008 103.484C91.8758 103.179 92.2349 102.964 92.6327 102.863C93.0305 102.763 93.4491 102.782 93.8358 102.92C94.2224 103.057 94.5597 103.305 94.8051 103.634C95.0504 103.962 95.1928 104.356 95.2143 104.765C95.2358 105.175 95.1354 105.581 94.9257 105.933C94.7161 106.286 94.4067 106.568 94.0365 106.745C93.79 106.863 93.5227 106.931 93.2499 106.945C92.9771 106.959 92.7041 106.919 92.4467 106.828C92.1892 106.737 91.9524 106.596 91.7496 106.413C91.5469 106.23 91.3823 106.009 91.2653 105.762Z" fill="#FFD98E"/>
<path fill-rule="evenodd" clip-rule="evenodd" d="M101.3 93.1879C101.123 92.8169 101.061 92.402 101.12 91.9954C101.18 91.5889 101.358 91.2092 101.634 90.9041C101.909 90.599 102.269 90.3824 102.667 90.2816C103.066 90.1808 103.486 90.2004 103.873 90.3378C104.261 90.4753 104.599 90.7244 104.845 91.0538C105.09 91.3831 105.233 91.7779 105.254 92.1882C105.275 92.5984 105.174 93.0058 104.964 93.3587C104.753 93.7115 104.443 93.9941 104.071 94.1707C103.825 94.2884 103.558 94.3564 103.285 94.3707C103.012 94.3849 102.739 94.3453 102.481 94.254C102.224 94.1627 101.987 94.0215 101.784 93.8386C101.582 93.6556 101.417 93.4345 101.3 93.1879Z" fill="#FFD98E"/>
<path fill-rule="evenodd" clip-rule="evenodd" d="M177.611 115.46C177.611 114.053 178.029 112.678 178.812 111.509C179.594 110.339 180.706 109.428 182.008 108.89C183.309 108.353 184.74 108.213 186.121 108.488C187.502 108.763 188.77 109.442 189.765 110.437C190.759 111.433 191.436 112.701 191.709 114.081C191.982 115.461 191.84 116.891 191.299 118.19C190.758 119.488 189.844 120.598 188.672 121.377C187.5 122.157 186.123 122.572 184.715 122.569C182.829 122.567 181.022 121.816 179.69 120.483C178.358 119.15 177.61 117.343 177.611 115.46Z" fill="#FFD98E"/>
<path d="M196.74 114.218C197.082 115.434 197.138 116.712 196.903 117.953C196.669 119.194 196.15 120.363 195.388 121.371C194.626 122.378 193.641 123.196 192.51 123.76C191.38 124.324 190.134 124.62 188.87 124.623C188.333 124.624 187.799 124.572 187.272 124.469" stroke="#FF8364" stroke-width="2.20689" stroke-linecap="round" stroke-linejoin="round"/>
<path fill-rule="evenodd" clip-rule="evenodd" d="M180.411 120.859L177.683 125.747L188.948 127.556L187.715 121.861" fill="#FFD98E"/>
<path fill-rule="evenodd" clip-rule="evenodd" d="M183.048 115.46C183.048 115.128 183.146 114.804 183.331 114.528C183.515 114.252 183.778 114.037 184.084 113.91C184.391 113.783 184.729 113.75 185.055 113.815C185.38 113.879 185.679 114.039 185.914 114.274C186.149 114.508 186.309 114.807 186.374 115.133C186.439 115.458 186.405 115.795 186.278 116.102C186.151 116.408 185.936 116.67 185.66 116.855C185.384 117.039 185.059 117.137 184.727 117.137C184.282 117.137 183.855 116.96 183.54 116.646C183.225 116.331 183.048 115.905 183.048 115.46Z" fill="#1B3C87"/>
<path fill-rule="evenodd" clip-rule="evenodd" d="M194.608 113.782C194.608 113.451 194.707 113.126 194.891 112.85C195.076 112.575 195.338 112.36 195.645 112.233C195.952 112.106 196.289 112.072 196.615 112.137C196.941 112.202 197.24 112.362 197.475 112.596C197.71 112.831 197.869 113.13 197.934 113.455C197.999 113.78 197.966 114.118 197.839 114.424C197.712 114.731 197.496 114.993 197.22 115.177C196.944 115.361 196.619 115.46 196.287 115.46C195.842 115.459 195.416 115.282 195.101 114.967C194.786 114.653 194.609 114.227 194.608 113.782Z" fill="#FFD98E"/>
<path fill-rule="evenodd" clip-rule="evenodd" d="M59.7361 62.0144L70.26 64.8549L59.8968 103.187L49.3729 100.356L59.7361 62.0144Z" fill="#FF8364"/>
<path d="M52.7183 87.982L58.5131 89.548" stroke="#FFD98E" stroke-width="3.00165" stroke-linecap="round" stroke-linejoin="round"/>
<path d="M50.8784 94.7834L56.6766 96.3462" stroke="#FFD98E" stroke-width="3.00165" stroke-linecap="round" stroke-linejoin="round"/>
<path d="M54.5543 81.1903L60.3525 82.7563" stroke="#FFD98E" stroke-width="3.00165" stroke-linecap="round" stroke-linejoin="round"/>
<path d="M56.3942 74.3855L62.189 75.9483" stroke="#FFD98E" stroke-width="3.00165" stroke-linecap="round" stroke-linejoin="round"/>
<path d="M58.231 67.5873L64.0291 69.15" stroke="#FFD98E" stroke-width="3.00165" stroke-linecap="round" stroke-linejoin="round"/>
<path fill-rule="evenodd" clip-rule="evenodd" d="M168.13 54.0662L207.867 63.6492L201.308 90.7175L161.587 81.1312L168.13 54.0662Z" fill="#DFDFDF"/>
<path fill-rule="evenodd" clip-rule="evenodd" d="M191.897 83.4115C192.095 82.5889 192.534 81.8436 193.157 81.2699C193.779 80.6963 194.559 80.32 195.395 80.1887C196.232 80.0574 197.089 80.1769 197.858 80.5322C198.627 80.8874 199.273 81.4625 199.715 82.1846C200.156 82.9068 200.374 83.7435 200.34 84.5891C200.305 85.4347 200.021 86.2511 199.522 86.9351C199.023 87.6191 198.332 88.1399 197.537 88.4318C196.742 88.7237 195.878 88.7735 195.055 88.5749C193.951 88.3085 192.998 87.6149 192.405 86.6466C191.813 85.6783 191.63 84.5146 191.897 83.4115Z" fill="#FF8364"/>
<path fill-rule="evenodd" clip-rule="evenodd" d="M193.162 86.9335L190.306 94.3739L194.294 93.4729L196.855 95.8482L197.37 87.7428" fill="#FF8364"/>
<path d="M170.478 61.0873L201.849 68.6554" stroke="#6BD5E1" stroke-width="2.20689" stroke-linecap="round" stroke-linejoin="round"/>
<path d="M168.661 68.5144L187.607 73.0848" stroke="#6BD5E1" stroke-width="2.20689" stroke-linecap="round" stroke-linejoin="round"/>
<path fill-rule="evenodd" clip-rule="evenodd" d="M105.069 57.7586L100.805 53.1424L106.938 51.7565L113.074 50.3707L111.208 56.3727L109.342 62.3715L105.069 57.7586Z" fill="#6BD5E1"/>
<path fill-rule="evenodd" clip-rule="evenodd" d="M189.774 154.539L183.933 156.871L184.829 150.646L185.724 144.422L190.666 148.304L195.611 152.19L189.774 154.539Z" fill="#FFD98E"/>
<path d="M141.832 79.5522C141.832 78.9495 142.01 78.3604 142.346 77.8594C142.681 77.3583 143.157 76.9678 143.714 76.7372C144.272 76.5066 144.885 76.4462 145.476 76.5638C146.068 76.6814 146.612 76.9716 147.038 77.3977C147.465 77.8238 147.755 78.3667 147.873 78.9577C147.99 79.5488 147.93 80.1614 147.699 80.7181C147.468 81.2749 147.077 81.7508 146.576 82.0856C146.074 82.4204 145.485 82.5991 144.881 82.5991C144.073 82.5991 143.297 82.278 142.725 81.7066C142.153 81.1352 141.832 80.3602 141.832 79.5522Z" stroke="#FF8364" stroke-width="2.20689" stroke-linecap="round" stroke-linejoin="round"/>
<path fill-rule="evenodd" clip-rule="evenodd" d="M56.6174 130.596C56.6174 129.993 56.7963 129.404 57.1314 128.903C57.4666 128.402 57.9429 128.012 58.5002 127.781C59.0575 127.55 59.6707 127.49 60.2624 127.608C60.854 127.725 61.3974 128.015 61.824 128.442C62.2505 128.868 62.541 129.411 62.6587 130.002C62.7764 130.593 62.716 131.205 62.4851 131.762C62.2543 132.319 61.8634 132.795 61.3618 133.129C60.8603 133.464 60.2706 133.643 59.6674 133.643C58.8585 133.643 58.0827 133.322 57.5107 132.751C56.9388 132.179 56.6174 131.404 56.6174 130.596Z" fill="#FFD98E"/>
<path fill-rule="evenodd" clip-rule="evenodd" d="M125.621 228.211H146.016C146.016 228.211 146.111 249.261 146.016 257.544C146.016 260.961 125.627 260.571 125.627 257.544L125.621 228.211Z" fill="#D18C65"/>
<path fill-rule="evenodd" clip-rule="evenodd" d="M115.189 208.086C115.189 192.451 124.699 179.776 136.45 179.776C148.2 179.776 157.714 192.451 157.714 208.086C157.714 223.72 148.203 236.399 136.45 236.399C124.696 236.399 115.189 223.723 115.189 208.086Z" fill="#E49D75"/>
<path fill-rule="evenodd" clip-rule="evenodd" d="M147.932 177.748C142.531 190.286 120.152 202.526 110.726 205.389C109.237 197.903 118.882 166.015 147.932 177.748Z" fill="black"/>
<path fill-rule="evenodd" clip-rule="evenodd" d="M135.971 177.361C131.881 178.917 145.177 200.16 161.108 205.389C167.612 196.14 152.618 176.919 135.971 177.361Z" fill="black"/>
<path fill-rule="evenodd" clip-rule="evenodd" d="M166.372 35.0379C166.371 33.927 166.7 32.8408 167.318 31.9169C167.935 30.9929 168.813 30.2726 169.84 29.8472C170.867 29.4218 171.998 29.3103 173.089 29.5269C174.179 29.7434 175.181 30.2783 175.967 31.0639C176.754 31.8494 177.289 32.8503 177.506 33.9399C177.723 35.0295 177.611 36.1588 177.185 37.1851C176.759 38.2113 176.038 39.0883 175.114 39.7051C174.189 40.3219 173.102 40.6507 171.989 40.6501C170.5 40.6501 169.071 40.0588 168.017 39.0063C166.964 37.9538 166.372 36.5263 166.372 35.0379Z" fill="#FFD98E"/>
<path d="M69.4799 182.609C69.4799 181.573 69.7876 180.559 70.3642 179.697C70.9407 178.835 71.7602 178.163 72.719 177.767C73.6778 177.37 74.7329 177.266 75.7507 177.468C76.7686 177.67 77.7035 178.17 78.4374 178.903C79.1712 179.636 79.6709 180.57 79.8734 181.587C80.0759 182.604 79.972 183.658 79.5748 184.615C79.1777 185.573 78.5051 186.392 77.6422 186.968C76.7793 187.544 75.7648 187.851 74.727 187.851C73.3354 187.851 72.0008 187.299 71.0167 186.316C70.0327 185.333 69.4799 184 69.4799 182.609Z" stroke="#6BD5E1" stroke-width="2.20689" stroke-linecap="round" stroke-linejoin="round"/>
<path d="M185.741 180.401C185.74 179.798 185.919 179.208 186.254 178.706C186.589 178.204 187.066 177.812 187.623 177.581C188.181 177.35 188.795 177.289 189.388 177.406C189.98 177.523 190.525 177.814 190.952 178.24C191.379 178.667 191.67 179.21 191.788 179.802C191.906 180.394 191.846 181.007 191.615 181.565C191.384 182.122 190.993 182.599 190.491 182.934C189.988 183.269 189.398 183.448 188.794 183.448C188.393 183.449 187.996 183.37 187.626 183.217C187.255 183.064 186.919 182.84 186.635 182.557C186.352 182.274 186.127 181.938 185.973 181.568C185.82 181.198 185.741 180.802 185.741 180.401V180.401Z" stroke="#FF8364" stroke-width="2.20689" stroke-linecap="round" stroke-linejoin="round"/>
<path fill-rule="evenodd" clip-rule="evenodd" d="M136.443 171.68C154.152 171.68 163.663 183.504 165.431 195.508C167.228 207.784 165.178 217.95 165.69 232.795C166.037 242.794 170.442 249.468 173.265 258.382C176.089 267.297 100.729 269.541 101.179 261.203C101.628 252.865 107.02 244.331 107.213 233.948C107.41 223.366 105.901 217.01 106.108 199.793C106.262 186.197 118.727 171.68 136.443 171.68Z" fill="black"/>
<path fill-rule="evenodd" clip-rule="evenodd" d="M63.7303 320.683C63.0514 312.316 66.7868 282.476 78.3339 260.197C121.462 236.337 175.574 247.699 196.97 260.197C204.214 267.549 209.451 316.388 207.867 319.894" fill="#0F52FF"/>
<path d="M88.6254 319.904C89.3042 314.475 90.3799 305.727 92.1344 297.625" stroke="white" stroke-width="4.06607" stroke-linecap="round" stroke-linejoin="round"/>
<path d="M184.279 319.904C183.6 314.475 182.524 305.727 180.77 297.625" stroke="white" stroke-width="4.06607" stroke-linecap="round" stroke-linejoin="round"/>
<path fill-rule="evenodd" clip-rule="evenodd" d="M109.069 210.425C109.069 209.477 109.349 208.55 109.876 207.762C110.402 206.974 111.151 206.359 112.027 205.995C112.903 205.632 113.867 205.536 114.798 205.719C115.728 205.903 116.584 206.358 117.255 207.028C117.927 207.697 118.385 208.55 118.572 209.479C118.758 210.408 118.665 211.372 118.303 212.248C117.942 213.124 117.328 213.874 116.54 214.402C115.753 214.93 114.826 215.213 113.877 215.215C113.247 215.216 112.622 215.093 112.039 214.853C111.456 214.613 110.926 214.26 110.479 213.815C110.033 213.371 109.678 212.842 109.437 212.26C109.195 211.678 109.07 211.055 109.069 210.425Z" fill="#D18C65"/>
<path fill-rule="evenodd" clip-rule="evenodd" d="M153.067 210.425C153.066 209.477 153.347 208.55 153.874 207.761C154.401 206.972 155.15 206.357 156.026 205.994C156.903 205.631 157.868 205.535 158.799 205.72C159.73 205.905 160.585 206.361 161.256 207.031C161.928 207.701 162.385 208.555 162.57 209.485C162.756 210.415 162.661 211.379 162.298 212.255C161.935 213.131 161.32 213.88 160.531 214.407C159.742 214.933 158.814 215.215 157.865 215.215C156.593 215.215 155.373 214.71 154.473 213.812C153.574 212.914 153.068 211.695 153.067 210.425Z" fill="#D18C65"/>
<path fill-rule="evenodd" clip-rule="evenodd" d="M155.549 127.916C150.709 124.142 149.515 128.358 148.758 130.865C148 133.371 148.056 137.791 151.85 137.696C155.176 140.677 158.271 136.821 159.222 134.862C160.174 132.902 162.509 128.65 155.549 127.916Z" fill="#FF2E6A"/>
<path d="M158.751 125.226C157.081 125.813 156.143 126.612 155.612 128.001" stroke="#FFD98E" stroke-width="2.0082" stroke-linecap="round" stroke-linejoin="round"/>
<path fill-rule="evenodd" clip-rule="evenodd" d="M123.985 150.293C123.984 149.182 124.313 148.097 124.929 147.173C125.546 146.25 126.423 145.53 127.449 145.104C128.476 144.678 129.605 144.565 130.695 144.78C131.786 144.996 132.788 145.529 133.575 146.313C134.362 147.097 134.898 148.096 135.117 149.185C135.336 150.273 135.226 151.402 134.803 152.429C134.38 153.455 133.661 154.333 132.738 154.952C131.816 155.571 130.73 155.902 129.619 155.905C128.88 155.907 128.147 155.763 127.464 155.482C126.78 155.201 126.159 154.788 125.636 154.267C125.112 153.746 124.697 153.126 124.414 152.444C124.13 151.762 123.985 151.031 123.985 150.293Z" fill="#6BD5E1"/>
<path fill-rule="evenodd" clip-rule="evenodd" d="M85.0605 152.77L100.628 148.822L106.935 173.649L91.3703 177.597L85.0605 152.77Z" fill="url(#paint1_linear_143_1033)"/>
<path fill-rule="evenodd" clip-rule="evenodd" d="M88.34 155.505L99.0508 152.789L99.8772 156.042L89.1664 158.758L88.34 155.505Z" fill="#FF2E6A"/>
<path d="M90.0649 162.294L100.776 159.574" stroke="#6BD5E1" stroke-width="2.20689" stroke-linecap="round" stroke-linejoin="round"/>
<path d="M90.9635 165.825L101.678 163.096" stroke="#6BD5E1" stroke-width="2.20689" stroke-linecap="round" stroke-linejoin="round"/>
<path d="M91.9044 169.508L102.625 166.789" stroke="#6BD5E1" stroke-width="2.20689" stroke-linecap="round" stroke-linejoin="round"/>
<path d="M92.8038 173.069L97.0081 172.004" stroke="#6BD5E1" stroke-width="2.20689" stroke-linecap="round" stroke-linejoin="round"/>
<path d="M101.838 170.776L103.524 170.35" stroke="#6BD5E1" stroke-width="2.20689" stroke-linecap="round" stroke-linejoin="round"/>
<path fill-rule="evenodd" clip-rule="evenodd" d="M74.7397 96.4018L115.025 77.2358L127.615 103.649L87.3297 122.798L74.7397 96.4018Z" fill="url(#paint2_linear_143_1033)"/>
<path d="M88.6713 116.97L92.6788 105.254L100.146 106.643L103.078 92.1918L110.293 93.3909L112.392 83.1985" stroke="#FF8364" stroke-width="2.20689" stroke-linecap="round" stroke-linejoin="round"/>
<path fill-rule="evenodd" clip-rule="evenodd" d="M91.2646 106.021C91.0879 105.65 91.0253 105.235 91.0846 104.829C91.144 104.422 91.3227 104.042 91.5981 103.737C91.8735 103.432 92.2333 103.215 92.6319 103.115C93.0306 103.014 93.4502 103.033 93.8377 103.171C94.2252 103.308 94.5632 103.558 94.809 103.887C95.0548 104.216 95.1973 104.611 95.2185 105.021C95.2397 105.431 95.1387 105.839 94.9281 106.192C94.7176 106.545 94.4071 106.827 94.0358 107.004C93.5377 107.24 92.9663 107.269 92.4469 107.084C91.9274 106.9 91.5023 106.518 91.2646 106.021Z" fill="#FFD98E"/>
<path fill-rule="evenodd" clip-rule="evenodd" d="M101.3 93.4302C101.123 93.0593 101.061 92.6443 101.12 92.2378C101.18 91.8313 101.358 91.4515 101.634 91.1465C101.909 90.8414 102.269 90.6248 102.667 90.524C103.066 90.4232 103.486 90.4428 103.873 90.5802C104.261 90.7177 104.599 90.9668 104.845 91.2962C105.09 91.6255 105.233 92.0203 105.254 92.4305C105.275 92.8408 105.174 93.2481 104.964 93.601C104.753 93.9539 104.443 94.2365 104.071 94.4131C103.825 94.5308 103.558 94.5987 103.285 94.613C103.012 94.6273 102.739 94.5877 102.481 94.4964C102.224 94.4051 101.987 94.2639 101.784 94.0809C101.582 93.898 101.417 93.6769 101.3 93.4302Z" fill="#FFD98E"/>
<path fill-rule="evenodd" clip-rule="evenodd" d="M177.611 115.702C177.609 114.295 178.024 112.919 178.805 111.747C179.586 110.576 180.698 109.663 181.998 109.123C183.299 108.584 184.731 108.442 186.113 108.716C187.495 108.99 188.764 109.667 189.76 110.662C190.756 111.657 191.434 112.925 191.708 114.305C191.982 115.686 191.84 117.116 191.3 118.416C190.76 119.715 189.846 120.826 188.673 121.606C187.501 122.386 186.123 122.801 184.715 122.799C182.832 122.795 181.027 122.046 179.696 120.716C178.364 119.386 177.615 117.583 177.611 115.702Z" fill="#FFD98E"/>
<path d="M196.74 114.464C196.947 115.188 197.05 115.938 197.048 116.692C197.049 117.901 196.781 119.095 196.264 120.188C195.747 121.281 194.993 122.246 194.058 123.013C193.122 123.78 192.028 124.33 190.854 124.624C189.68 124.918 188.456 124.948 187.269 124.712" stroke="#FF8364" stroke-width="2.20689" stroke-linecap="round" stroke-linejoin="round"/>
<path fill-rule="evenodd" clip-rule="evenodd" d="M180.411 121.101L177.683 125.98L188.948 127.791L187.715 122.094" fill="#FFD98E"/>
<path fill-rule="evenodd" clip-rule="evenodd" d="M183.048 115.702C183.048 115.37 183.146 115.046 183.331 114.77C183.515 114.494 183.778 114.279 184.084 114.152C184.391 114.026 184.729 113.992 185.055 114.057C185.38 114.122 185.679 114.281 185.914 114.516C186.149 114.751 186.309 115.05 186.374 115.375C186.439 115.7 186.405 116.038 186.278 116.344C186.151 116.651 185.936 116.913 185.66 117.097C185.384 117.281 185.059 117.38 184.727 117.38C184.282 117.38 183.855 117.203 183.54 116.888C183.225 116.574 183.048 116.147 183.048 115.702Z" fill="#1B3C87"/>
<path fill-rule="evenodd" clip-rule="evenodd" d="M194.608 114.025C194.608 113.693 194.707 113.369 194.891 113.093C195.076 112.817 195.338 112.602 195.645 112.475C195.952 112.348 196.289 112.315 196.615 112.38C196.941 112.444 197.24 112.604 197.475 112.839C197.71 113.073 197.869 113.372 197.934 113.697C197.999 114.023 197.966 114.36 197.839 114.667C197.712 114.973 197.496 115.235 197.22 115.419C196.944 115.604 196.619 115.702 196.287 115.702C195.842 115.702 195.415 115.525 195.1 115.211C194.785 114.896 194.608 114.47 194.608 114.025Z" fill="#FFD98E"/>
<path fill-rule="evenodd" clip-rule="evenodd" d="M59.7358 62.2569L70.2597 65.1007L59.8965 103.433L49.3628 100.592L59.7358 62.2569Z" fill="#F8AEC3"/>
<path d="M52.7183 88.2277L58.5131 89.7904" stroke="#FFD98E" stroke-width="3.00165" stroke-linecap="round" stroke-linejoin="round"/>
<path d="M50.8784 95.0258L56.6766 96.5886" stroke="#FFD98E" stroke-width="3.00165" stroke-linecap="round" stroke-linejoin="round"/>
<path d="M54.5543 81.4295L60.3525 82.9923" stroke="#FFD98E" stroke-width="3.00165" stroke-linecap="round" stroke-linejoin="round"/>
<path d="M56.3942 74.6378L62.189 76.2006" stroke="#FFD98E" stroke-width="3.00165" stroke-linecap="round" stroke-linejoin="round"/>
<path d="M58.231 67.8297L64.0291 69.3958" stroke="#FFD98E" stroke-width="3.00165" stroke-linecap="round" stroke-linejoin="round"/>
<path fill-rule="evenodd" clip-rule="evenodd" d="M168.13 54.3251L207.867 63.895L201.308 90.96L161.587 81.3737L168.13 54.3251Z" fill="url(#paint3_linear_143_1033)"/>
<path fill-rule="evenodd" clip-rule="evenodd" d="M191.897 83.654C192.095 82.8314 192.534 82.0861 193.157 81.5124C193.779 80.9388 194.559 80.5625 195.395 80.4312C196.232 80.2998 197.089 80.4194 197.858 80.7747C198.627 81.1299 199.273 81.705 199.715 82.4271C200.156 83.1493 200.374 83.986 200.34 84.8316C200.305 85.6772 200.021 86.4936 199.522 87.1776C199.023 87.8616 198.332 88.3824 197.537 88.6743C196.742 88.9662 195.878 89.016 195.055 88.8174C193.951 88.551 192.998 87.8574 192.405 86.8891C191.813 85.9208 191.63 84.7571 191.897 83.654Z" fill="#FF2E6A"/>
<path fill-rule="evenodd" clip-rule="evenodd" d="M193.162 87.1793L190.306 94.6229L194.294 93.7186L196.855 96.0939L197.37 87.9852" fill="#FF2E6A"/>
<path d="M170.478 61.333L201.849 68.9011" stroke="#6BD5E1" stroke-width="2.20689" stroke-linecap="round" stroke-linejoin="round"/>
<path d="M168.661 68.7603L187.607 73.3273" stroke="#6BD5E1" stroke-width="2.20689" stroke-linecap="round" stroke-linejoin="round"/>
<path fill-rule="evenodd" clip-rule="evenodd" d="M105.069 58.001L100.805 53.3881L106.938 52.0022L113.074 50.6164L111.204 56.6185L109.338 62.6205L105.069 58.001Z" fill="#6BD5E1"/>
<path fill-rule="evenodd" clip-rule="evenodd" d="M189.774 154.781L183.933 157.117L184.829 150.892L185.724 144.667L190.666 148.55L195.611 152.432L189.774 154.781Z" fill="#FFD98E"/>
<path d="M141.832 79.801C141.832 79.1984 142.01 78.6093 142.346 78.1083C142.681 77.6072 143.157 77.2167 143.714 76.9861C144.272 76.7555 144.885 76.6951 145.476 76.8127C146.068 76.9303 146.612 77.2205 147.038 77.6466C147.465 78.0727 147.755 78.6156 147.873 79.2066C147.99 79.7977 147.93 80.4103 147.699 80.967C147.468 81.5238 147.077 81.9997 146.576 82.3345C146.074 82.6693 145.485 82.848 144.881 82.848C144.073 82.848 143.297 82.5269 142.725 81.9555C142.153 81.3841 141.832 80.6091 141.832 79.801Z" stroke="#FF8364" stroke-width="2.20689" stroke-linecap="round" stroke-linejoin="round"/>
<path fill-rule="evenodd" clip-rule="evenodd" d="M56.6174 130.838C56.6174 130.236 56.7963 129.647 57.1314 129.146C57.4666 128.645 57.9429 128.254 58.5002 128.023C59.0575 127.793 59.6707 127.733 60.2624 127.85C60.854 127.968 61.3974 128.258 61.824 128.684C62.2505 129.11 62.541 129.653 62.6587 130.244C62.7764 130.835 62.716 131.448 62.4851 132.004C62.2543 132.561 61.8634 133.037 61.3618 133.372C60.8603 133.707 60.2706 133.885 59.6674 133.885C58.8585 133.885 58.0827 133.564 57.5107 132.993C56.9388 132.422 56.6174 131.647 56.6174 130.838Z" fill="#FFD98E"/>
<path fill-rule="evenodd" clip-rule="evenodd" d="M125.621 228.454H146.016C146.016 228.454 146.111 249.504 146.016 257.789C146.016 261.207 125.627 260.813 125.627 257.789L125.621 228.454Z" fill="#D18C65"/>
<path fill-rule="evenodd" clip-rule="evenodd" d="M115.189 208.331C115.189 192.694 124.699 180.021 136.45 180.021C148.2 180.021 157.714 192.694 157.714 208.331C157.714 223.969 148.203 236.641 136.45 236.641C124.696 236.641 115.189 223.965 115.189 208.331Z" fill="#E49D75"/>
<path fill-rule="evenodd" clip-rule="evenodd" d="M147.932 177.99C142.531 190.528 120.152 202.771 110.726 205.635C109.237 198.152 118.882 166.261 147.932 177.99Z" fill="black"/>
<path fill-rule="evenodd" clip-rule="evenodd" d="M135.971 177.603C131.882 179.15 145.177 200.403 161.102 205.635C167.612 196.383 152.618 177.164 135.971 177.603Z" fill="black"/>
<path fill-rule="evenodd" clip-rule="evenodd" d="M166.372 35.2839C166.37 34.1728 166.699 33.0863 167.316 32.1619C167.933 31.2376 168.811 30.5168 169.838 30.0909C170.865 29.6649 171.996 29.553 173.087 29.7692C174.177 29.9854 175.18 30.52 175.966 31.3054C176.753 32.0908 177.289 33.0917 177.506 34.1814C177.723 35.2711 177.611 36.4006 177.186 37.427C176.76 38.4534 176.039 39.3306 175.114 39.9475C174.189 40.5645 173.102 40.8934 171.989 40.8928C170.5 40.8928 169.072 40.302 168.018 39.2502C166.965 38.1984 166.373 36.7717 166.372 35.2839Z" fill="#FFD98E"/>
<path d="M69.4799 182.852C69.4799 181.815 69.7876 180.802 70.3642 179.94C70.9407 179.078 71.7602 178.406 72.719 178.009C73.6778 177.612 74.7329 177.508 75.7507 177.711C76.7686 177.913 77.7035 178.412 78.4374 179.145C79.1712 179.878 79.6709 180.812 79.8734 181.829C80.0759 182.846 79.972 183.9 79.5748 184.858C79.1777 185.816 78.5051 186.635 77.6422 187.211C76.7793 187.787 75.7648 188.094 74.727 188.094C73.3354 188.094 72.0008 187.542 71.0167 186.559C70.0327 185.576 69.4799 184.242 69.4799 182.852Z" stroke="#6BD5E1" stroke-width="2.20689" stroke-linecap="round" stroke-linejoin="round"/>
<path d="M185.741 180.644C185.74 180.04 185.919 179.45 186.254 178.948C186.589 178.446 187.066 178.055 187.623 177.823C188.181 177.592 188.795 177.531 189.388 177.649C189.98 177.766 190.525 178.056 190.952 178.483C191.379 178.909 191.67 179.452 191.788 180.044C191.906 180.636 191.846 181.249 191.615 181.807C191.384 182.365 190.993 182.841 190.491 183.176C189.988 183.512 189.398 183.691 188.794 183.691C188.393 183.691 187.996 183.613 187.626 183.46C187.255 183.307 186.919 183.082 186.635 182.799C186.352 182.516 186.127 182.18 185.973 181.811C185.82 181.441 185.741 181.044 185.741 180.644V180.644Z" stroke="#FF8364" stroke-width="2.20689" stroke-linecap="round" stroke-linejoin="round"/>
</g>
<ellipse cx="6.36229" cy="5.79095" rx="6.36229" ry="5.79095" transform="matrix(-1 0 0 1 208.365 63.2253)" fill="#FED385"/>
<path fill-rule="evenodd" clip-rule="evenodd" d="M196.038 244.551C196.038 245.21 196.572 245.744 197.231 245.744C197.89 245.744 198.424 245.21 198.424 244.551C198.424 243.892 197.89 243.358 197.231 243.358C196.572 243.358 196.038 243.892 196.038 244.551ZM197.231 252.106C196.572 252.106 196.038 251.572 196.038 250.913C196.038 250.254 196.572 249.72 197.231 249.72C197.89 249.72 198.424 250.254 198.424 250.913C198.424 251.572 197.89 252.106 197.231 252.106ZM196.038 257.275C196.038 257.934 196.572 258.468 197.231 258.468C197.89 258.468 198.424 257.934 198.424 257.275C198.424 256.616 197.89 256.082 197.231 256.082C196.572 256.082 196.038 256.616 196.038 257.275ZM197.231 264.83C196.572 264.83 196.038 264.296 196.038 263.638C196.038 262.979 196.572 262.445 197.231 262.445C197.89 262.445 198.424 262.979 198.424 263.638C198.424 264.296 197.89 264.83 197.231 264.83ZM196.038 270C196.038 270.659 196.572 271.193 197.231 271.193C197.89 271.193 198.424 270.659 198.424 270C198.424 269.341 197.89 268.807 197.231 268.807C196.572 268.807 196.038 269.341 196.038 270ZM197.231 277.555C196.572 277.555 196.038 277.021 196.038 276.362C196.038 275.703 196.572 275.169 197.231 275.169C197.89 275.169 198.424 275.703 198.424 276.362C198.424 277.021 197.89 277.555 197.231 277.555ZM196.038 282.724C196.038 283.383 196.572 283.917 197.231 283.917C197.89 283.917 198.424 283.383 198.424 282.724C198.424 282.066 197.89 281.531 197.231 281.531C196.572 281.531 196.038 282.066 196.038 282.724ZM227.85 289.087C227.85 289.746 228.384 290.28 229.043 290.28C229.701 290.28 230.236 289.746 230.236 289.087C230.236 288.428 229.701 287.894 229.043 287.894C228.384 287.894 227.85 288.428 227.85 289.087ZM222.68 290.28C222.022 290.28 221.487 289.746 221.487 289.087C221.487 288.428 222.022 287.894 222.68 287.894C223.339 287.894 223.873 288.428 223.873 289.087C223.873 289.746 223.339 290.28 222.68 290.28ZM215.125 289.087C215.125 289.746 215.659 290.28 216.318 290.28C216.977 290.28 217.511 289.746 217.511 289.087C217.511 288.428 216.977 287.894 216.318 287.894C215.659 287.894 215.125 288.428 215.125 289.087ZM209.956 290.28C209.297 290.28 208.763 289.746 208.763 289.087C208.763 288.428 209.297 287.894 209.956 287.894C210.615 287.894 211.149 288.428 211.149 289.087C211.149 289.746 210.615 290.28 209.956 290.28ZM202.401 289.087C202.401 289.746 202.935 290.28 203.594 290.28C204.253 290.28 204.787 289.746 204.787 289.087C204.787 288.428 204.253 287.894 203.594 287.894C202.935 287.894 202.401 288.428 202.401 289.087ZM196.038 289.087C196.038 289.746 196.572 290.28 197.231 290.28C197.89 290.28 198.424 289.746 198.424 289.087C198.424 288.428 197.89 287.894 197.231 287.894C196.572 287.894 196.038 288.428 196.038 289.087ZM235.405 290.28C234.746 290.28 234.212 289.746 234.212 289.087C234.212 288.428 234.746 287.894 235.405 287.894C236.064 287.894 236.598 288.428 236.598 289.087C236.598 289.746 236.064 290.28 235.405 290.28ZM203.594 283.917C202.935 283.917 202.401 283.383 202.401 282.724C202.401 282.066 202.935 281.531 203.594 281.531C204.253 281.531 204.787 282.066 204.787 282.724C204.787 283.383 204.253 283.917 203.594 283.917ZM208.763 282.724C208.763 283.383 209.297 283.917 209.956 283.917C210.615 283.917 211.149 283.383 211.149 282.724C211.149 282.066 210.615 281.531 209.956 281.531C209.297 281.531 208.763 282.066 208.763 282.724ZM216.318 283.917C215.659 283.917 215.125 283.383 215.125 282.724C215.125 282.066 215.659 281.531 216.318 281.531C216.977 281.531 217.511 282.066 217.511 282.724C217.511 283.383 216.977 283.917 216.318 283.917ZM221.487 282.724C221.487 283.383 222.022 283.917 222.68 283.917C223.339 283.917 223.873 283.383 223.873 282.724C223.873 282.066 223.339 281.531 222.68 281.531C222.022 281.531 221.487 282.066 221.487 282.724ZM229.043 283.917C228.384 283.917 227.85 283.383 227.85 282.724C227.85 282.066 228.384 281.531 229.043 281.531C229.701 281.531 230.236 282.066 230.236 282.724C230.236 283.383 229.701 283.917 229.043 283.917ZM234.212 282.725C234.212 283.383 234.746 283.917 235.405 283.917C236.064 283.917 236.598 283.383 236.598 282.725C236.598 282.066 236.064 281.532 235.405 281.532C234.746 281.532 234.212 282.066 234.212 282.725ZM202.401 276.362C202.401 277.021 202.935 277.555 203.594 277.555C204.253 277.555 204.787 277.021 204.787 276.362C204.787 275.703 204.253 275.169 203.594 275.169C202.935 275.169 202.401 275.703 202.401 276.362ZM209.956 277.555C209.297 277.555 208.763 277.021 208.763 276.362C208.763 275.703 209.297 275.169 209.956 275.169C210.615 275.169 211.149 275.703 211.149 276.362C211.149 277.021 210.615 277.555 209.956 277.555ZM215.125 276.362C215.125 277.021 215.659 277.555 216.318 277.555C216.977 277.555 217.511 277.021 217.511 276.362C217.511 275.703 216.977 275.169 216.318 275.169C215.659 275.169 215.125 275.703 215.125 276.362ZM222.68 277.555C222.022 277.555 221.487 277.021 221.487 276.362C221.487 275.703 222.022 275.169 222.68 275.169C223.339 275.169 223.873 275.703 223.873 276.362C223.873 277.021 223.339 277.555 222.68 277.555ZM227.85 276.362C227.85 277.021 228.384 277.555 229.043 277.555C229.701 277.555 230.236 277.021 230.236 276.362C230.236 275.703 229.701 275.169 229.043 275.169C228.384 275.169 227.85 275.703 227.85 276.362ZM235.405 277.555C234.746 277.555 234.212 277.021 234.212 276.362C234.212 275.703 234.746 275.169 235.405 275.169C236.064 275.169 236.598 275.703 236.598 276.362C236.598 277.021 236.064 277.555 235.405 277.555ZM203.594 271.193C202.935 271.193 202.401 270.659 202.401 270C202.401 269.341 202.935 268.807 203.594 268.807C204.253 268.807 204.787 269.341 204.787 270C204.787 270.659 204.253 271.193 203.594 271.193ZM208.763 270C208.763 270.659 209.297 271.193 209.956 271.193C210.615 271.193 211.149 270.659 211.149 270C211.149 269.341 210.615 268.807 209.956 268.807C209.297 268.807 208.763 269.341 208.763 270ZM216.318 271.193C215.659 271.193 215.125 270.659 215.125 270C215.125 269.341 215.659 268.807 216.318 268.807C216.977 268.807 217.511 269.341 217.511 270C217.511 270.659 216.977 271.193 216.318 271.193ZM221.487 270C221.487 270.659 222.022 271.193 222.68 271.193C223.339 271.193 223.873 270.659 223.873 270C223.873 269.341 223.339 268.807 222.68 268.807C222.022 268.807 221.487 269.341 221.487 270ZM229.043 271.193C228.384 271.193 227.85 270.659 227.85 270C227.85 269.341 228.384 268.807 229.043 268.807C229.701 268.807 230.236 269.341 230.236 270C230.236 270.659 229.701 271.193 229.043 271.193ZM234.212 270C234.212 270.659 234.746 271.193 235.405 271.193C236.064 271.193 236.598 270.659 236.598 270C236.598 269.341 236.064 268.807 235.405 268.807C234.746 268.807 234.212 269.341 234.212 270ZM202.401 263.638C202.401 264.296 202.935 264.83 203.594 264.83C204.253 264.83 204.787 264.296 204.787 263.638C204.787 262.979 204.253 262.445 203.594 262.445C202.935 262.445 202.401 262.979 202.401 263.638ZM209.956 264.83C209.297 264.83 208.763 264.296 208.763 263.638C208.763 262.979 209.297 262.445 209.956 262.445C210.615 262.445 211.149 262.979 211.149 263.638C211.149 264.296 210.615 264.83 209.956 264.83ZM215.125 263.638C215.125 264.296 215.659 264.83 216.318 264.83C216.977 264.83 217.511 264.296 217.511 263.638C217.511 262.979 216.977 262.445 216.318 262.445C215.659 262.445 215.125 262.979 215.125 263.638ZM222.68 264.83C222.022 264.83 221.487 264.296 221.487 263.638C221.487 262.979 222.022 262.445 222.68 262.445C223.339 262.445 223.873 262.979 223.873 263.638C223.873 264.296 223.339 264.83 222.68 264.83ZM227.85 263.638C227.85 264.296 228.384 264.83 229.043 264.83C229.701 264.83 230.236 264.296 230.236 263.638C230.236 262.979 229.701 262.445 229.043 262.445C228.384 262.445 227.85 262.979 227.85 263.638ZM235.405 264.831C234.746 264.831 234.212 264.296 234.212 263.638C234.212 262.979 234.746 262.445 235.405 262.445C236.064 262.445 236.598 262.979 236.598 263.638C236.598 264.296 236.064 264.831 235.405 264.831ZM203.594 258.468C202.935 258.468 202.401 257.934 202.401 257.275C202.401 256.616 202.935 256.082 203.594 256.082C204.253 256.082 204.787 256.616 204.787 257.275C204.787 257.934 204.253 258.468 203.594 258.468ZM208.763 257.275C208.763 257.934 209.297 258.468 209.956 258.468C210.615 258.468 211.149 257.934 211.149 257.275C211.149 256.616 210.615 256.082 209.956 256.082C209.297 256.082 208.763 256.616 208.763 257.275ZM216.318 258.468C215.659 258.468 215.125 257.934 215.125 257.275C215.125 256.616 215.659 256.082 216.318 256.082C216.977 256.082 217.511 256.616 217.511 257.275C217.511 257.934 216.977 258.468 216.318 258.468ZM221.487 257.275C221.487 257.934 222.022 258.468 222.68 258.468C223.339 258.468 223.873 257.934 223.873 257.275C223.873 256.616 223.339 256.082 222.68 256.082C222.022 256.082 221.487 256.616 221.487 257.275ZM229.043 258.468C228.384 258.468 227.85 257.934 227.85 257.275C227.85 256.616 228.384 256.082 229.043 256.082C229.701 256.082 230.236 256.616 230.236 257.275C230.236 257.934 229.701 258.468 229.043 258.468ZM234.212 257.275C234.212 257.934 234.746 258.468 235.405 258.468C236.064 258.468 236.598 257.934 236.598 257.275C236.598 256.617 236.064 256.082 235.405 256.082C234.746 256.082 234.212 256.617 234.212 257.275ZM202.401 250.913C202.401 251.572 202.935 252.106 203.594 252.106C204.253 252.106 204.787 251.572 204.787 250.913C204.787 250.254 204.253 249.72 203.594 249.72C202.935 249.72 202.401 250.254 202.401 250.913ZM209.956 252.106C209.297 252.106 208.763 251.572 208.763 250.913C208.763 250.254 209.297 249.72 209.956 249.72C210.615 249.72 211.149 250.254 211.149 250.913C211.149 251.572 210.615 252.106 209.956 252.106ZM215.125 250.913C215.125 251.572 215.659 252.106 216.318 252.106C216.977 252.106 217.511 251.572 217.511 250.913C217.511 250.254 216.977 249.72 216.318 249.72C215.659 249.72 215.125 250.254 215.125 250.913ZM222.68 252.106C222.022 252.106 221.487 251.572 221.487 250.913C221.487 250.254 222.022 249.72 222.68 249.72C223.339 249.72 223.873 250.254 223.873 250.913C223.873 251.572 223.339 252.106 222.68 252.106ZM227.85 250.913C227.85 251.572 228.384 252.106 229.043 252.106C229.701 252.106 230.236 251.572 230.236 250.913C230.236 250.254 229.701 249.72 229.043 249.72C228.384 249.72 227.85 250.254 227.85 250.913ZM235.405 252.106C234.746 252.106 234.212 251.572 234.212 250.913C234.212 250.254 234.746 249.72 235.405 249.72C236.064 249.72 236.598 250.254 236.598 250.913C236.598 251.572 236.064 252.106 235.405 252.106ZM203.594 245.744C202.935 245.744 202.401 245.21 202.401 244.551C202.401 243.892 202.935 243.358 203.594 243.358C204.253 243.358 204.787 243.892 204.787 244.551C204.787 245.21 204.253 245.744 203.594 245.744ZM208.763 244.551C208.763 245.21 209.297 245.744 209.956 245.744C210.615 245.744 211.149 245.21 211.149 244.551C211.149 243.892 210.615 243.358 209.956 243.358C209.297 243.358 208.763 243.892 208.763 244.551ZM216.318 245.744C215.659 245.744 215.125 245.21 215.125 244.551C215.125 243.892 215.659 243.358 216.318 243.358C216.977 243.358 217.511 243.892 217.511 244.551C217.511 245.21 216.977 245.744 216.318 245.744ZM221.487 244.551C221.487 245.21 222.022 245.744 222.68 245.744C223.339 245.744 223.873 245.21 223.873 244.551C223.873 243.892 223.339 243.358 222.68 243.358C222.022 243.358 221.487 243.892 221.487 244.551ZM229.043 245.744C228.384 245.744 227.85 245.21 227.85 244.551C227.85 243.892 228.384 243.358 229.043 243.358C229.701 243.358 230.236 243.892 230.236 244.551C230.236 245.21 229.701 245.744 229.043 245.744ZM234.212 244.551C234.212 245.21 234.746 245.744 235.405 245.744C236.064 245.744 236.598 245.21 236.598 244.551C236.598 243.892 236.064 243.358 235.405 243.358C234.746 243.358 234.212 243.892 234.212 244.551Z" fill="#74D5DE"/>
<path d="M18.3332 106.183L34.4888 113.09C36.9658 114.149 37.3188 117.515 35.1154 119.065L21.3013 128.782C19.1985 130.261 16.2755 128.994 15.9169 126.449L13.5755 109.825C13.2019 107.172 15.8702 105.13 18.3332 106.183Z" fill="#FACFCA"/>
<defs>
<linearGradient id="paint0_linear_143_1033" x1="165.42" y1="166.811" x2="5.12319e-06" y2="-14.7128" gradientUnits="userSpaceOnUse">
<stop stop-color="#F2F9FF"/>
<stop offset="1" stop-color="white"/>
</linearGradient>
<linearGradient id="paint1_linear_143_1033" x1="95.9977" y1="148.822" x2="95.9977" y2="177.597" gradientUnits="userSpaceOnUse">
<stop stop-color="#DFE0EB"/>
<stop offset="1" stop-color="#DFE0EB" stop-opacity="0.37"/>
</linearGradient>
<linearGradient id="paint2_linear_143_1033" x1="101.177" y1="77.2358" x2="101.177" y2="122.798" gradientUnits="userSpaceOnUse">
<stop stop-color="#DFE0EB"/>
<stop offset="1" stop-color="#DFE0EB" stop-opacity="0.37"/>
</linearGradient>
<linearGradient id="paint3_linear_143_1033" x1="184.727" y1="54.3251" x2="184.727" y2="90.96" gradientUnits="userSpaceOnUse">
<stop stop-color="#DFE0EB"/>
<stop offset="1" stop-color="#DFE0EB" stop-opacity="0.37"/>
</linearGradient>
</defs>
</svg>
