<svg width="104" height="28" viewBox="0 0 104 28" fill="none" xmlns="http://www.w3.org/2000/svg">
<path d="M12.5931 0H29.7219L17.1288 18.6655H0L12.5931 0Z" fill="#007AFF"/>
<path d="M13.3424 20.3968L8.46484 27.6264H26.4061L38.9992 8.96094H25.7574L18.0419 20.3968H13.3424Z" fill="#312ECB"/>
<path d="M49.4 21L55.06 6.94H57.28L62.92 21H60.02L55.66 9.46H56.66L52.24 21H49.4ZM52.4 18.38V16.1H59.96V18.38H52.4ZM67.0095 21.2C66.1162 21.2 65.3162 20.98 64.6095 20.54C63.9029 20.1 63.3429 19.5 62.9295 18.74C62.5295 17.98 62.3295 17.1267 62.3295 16.18C62.3295 15.22 62.5295 14.36 62.9295 13.6C63.3429 12.84 63.8962 12.24 64.5895 11.8C65.2962 11.36 66.1029 11.14 67.0095 11.14C67.7029 11.14 68.3229 11.28 68.8695 11.56C69.4295 11.84 69.8762 12.2333 70.2095 12.74C70.5562 13.2333 70.7429 13.7933 70.7695 14.42V17.86C70.7429 18.4867 70.5629 19.0533 70.2295 19.56C69.8962 20.0667 69.4495 20.4667 68.8895 20.76C68.3295 21.0533 67.7029 21.2 67.0095 21.2ZM67.4495 18.78C67.9429 18.78 68.3695 18.6733 68.7295 18.46C69.1029 18.2333 69.3895 17.9267 69.5895 17.54C69.8029 17.14 69.9095 16.68 69.9095 16.16C69.9095 15.6533 69.8029 15.2067 69.5895 14.82C69.3895 14.42 69.1029 14.1133 68.7295 13.9C68.3695 13.6733 67.9495 13.56 67.4695 13.56C66.9762 13.56 66.5429 13.6733 66.1695 13.9C65.8095 14.1267 65.5229 14.4333 65.3095 14.82C65.1095 15.2067 65.0095 15.6533 65.0095 16.16C65.0095 16.68 65.1095 17.14 65.3095 17.54C65.5229 17.9267 65.8162 18.2333 66.1895 18.46C66.5629 18.6733 66.9829 18.78 67.4495 18.78ZM72.3695 21H69.7695V18.4L70.1895 16.04L69.7495 13.72V6.54H72.3695V21ZM73.9673 21V6.94H75.8873L81.5873 16.06H80.4873L86.1673 6.94H88.0873V21H85.3873V11.6L85.9073 11.76L81.9473 18.12H80.1073L76.1473 11.76L76.6873 11.6V21H73.9673ZM89.6795 21V11.34H92.2995V21H89.6795ZM92.2995 15.66L91.2795 14.98C91.3995 13.7933 91.7462 12.86 92.3195 12.18C92.8929 11.4867 93.7195 11.14 94.7995 11.14C95.2662 11.14 95.6862 11.22 96.0595 11.38C96.4329 11.5267 96.7729 11.7733 97.0795 12.12L95.4395 14C95.2929 13.84 95.1129 13.72 94.8995 13.64C94.6995 13.56 94.4662 13.52 94.1995 13.52C93.6395 13.52 93.1795 13.7 92.8195 14.06C92.4729 14.4067 92.2995 14.94 92.2995 15.66ZM98.4784 21V7.32H101.098V21H98.4784ZM96.2184 13.64V11.34H103.358V13.64H96.2184Z" fill="#12141D"/>
<path d="M49.4 21L48.4723 20.6266L47.9195 22H49.4V21ZM55.06 6.94V5.94H54.3846L54.1323 6.56656L55.06 6.94ZM57.28 6.94L58.2081 6.5677L57.9563 5.94H57.28V6.94ZM62.92 21V22H64.3986L63.8481 20.6277L62.92 21ZM60.02 21L59.0845 21.3534L59.3288 22H60.02V21ZM55.66 9.46V8.46H54.2132L54.7245 9.81343L55.66 9.46ZM56.66 9.46L57.5938 9.81768L58.1139 8.46H56.66V9.46ZM52.24 21V22H52.9278L53.1738 21.3577L52.24 21ZM52.4 18.38H51.4V19.38H52.4V18.38ZM52.4 16.1V15.1H51.4V16.1H52.4ZM59.96 16.1H60.96V15.1H59.96V16.1ZM59.96 18.38V19.38H60.96V18.38H59.96ZM50.3277 21.3734L55.9877 7.31344L54.1323 6.56656L48.4723 20.6266L50.3277 21.3734ZM55.06 7.94H57.28V5.94H55.06V7.94ZM56.3519 7.3123L61.9919 21.3723L63.8481 20.6277L58.2081 6.5677L56.3519 7.3123ZM62.92 20H60.02V22H62.92V20ZM60.9555 20.6466L56.5955 9.10657L54.7245 9.81343L59.0845 21.3534L60.9555 20.6466ZM55.66 10.46H56.66V8.46H55.66V10.46ZM55.7262 9.10232L51.3062 20.6423L53.1738 21.3577L57.5938 9.81768L55.7262 9.10232ZM52.24 20H49.4V22H52.24V20ZM53.4 18.38V16.1H51.4V18.38H53.4ZM52.4 17.1H59.96V15.1H52.4V17.1ZM58.96 16.1V18.38H60.96V16.1H58.96ZM59.96 17.38H52.4V19.38H59.96V17.38ZM64.6095 20.54L65.1381 19.6911L64.6095 20.54ZM62.9295 18.74L62.0445 19.2058L62.051 19.2178L62.9295 18.74ZM62.9295 13.6L62.051 13.1222L62.0446 13.1343L62.9295 13.6ZM64.5895 11.8L64.061 10.9511L64.0537 10.9557L64.5895 11.8ZM68.8695 11.56L68.4136 12.4501L68.4223 12.4544L68.8695 11.56ZM70.2095 12.74L69.3741 13.2896L69.3825 13.3024L69.3913 13.3149L70.2095 12.74ZM70.7695 14.42H71.7695V14.3987L71.7686 14.3775L70.7695 14.42ZM70.7695 17.86L71.7686 17.9025L71.7695 17.8813V17.86H70.7695ZM70.2295 19.56L69.3941 19.0104L70.2295 19.56ZM68.8895 20.76L68.4255 19.8742L68.8895 20.76ZM68.7295 18.46L69.2394 19.3203L69.2485 19.3148L68.7295 18.46ZM69.5895 17.54L68.7071 17.0694L68.7013 17.0806L69.5895 17.54ZM69.5895 14.82L68.6951 15.2672L68.7042 15.2853L68.714 15.3031L69.5895 14.82ZM68.7295 13.9L68.1967 14.7462L68.2148 14.7576L68.2334 14.7682L68.7295 13.9ZM66.1695 13.9L65.6506 13.0452L65.6436 13.0494L65.6367 13.0538L66.1695 13.9ZM65.3095 14.82L64.434 14.3369L64.4275 14.3487L64.4213 14.3606L65.3095 14.82ZM65.3095 17.54L64.4151 17.9872L64.4242 18.0053L64.434 18.0231L65.3095 17.54ZM66.1895 18.46L65.6706 19.3148L65.6819 19.3217L65.6934 19.3282L66.1895 18.46ZM72.3695 21V22H73.3695V21H72.3695ZM69.7695 21H68.7695V22H69.7695V21ZM69.7695 18.4L68.785 18.2248L68.7695 18.3117V18.4H69.7695ZM70.1895 16.04L71.1741 16.2152L71.2063 16.0343L71.172 15.8537L70.1895 16.04ZM69.7495 13.72H68.7495V13.814L68.767 13.9063L69.7495 13.72ZM69.7495 6.54V5.54H68.7495V6.54H69.7495ZM72.3695 6.54H73.3695V5.54H72.3695V6.54ZM67.0095 20.2C66.2888 20.2 65.6745 20.0251 65.1381 19.6911L64.081 21.3889C64.9579 21.9349 65.9436 22.2 67.0095 22.2V20.2ZM65.1381 19.6911C64.5841 19.3461 64.1421 18.8766 63.808 18.2622L62.051 19.2178C62.5436 20.1234 63.2217 20.8539 64.081 21.3889L65.1381 19.6911ZM63.8144 18.2743C63.4975 17.6721 63.3295 16.9813 63.3295 16.18H61.3295C61.3295 17.272 61.5615 18.2879 62.0446 19.2057L63.8144 18.2743ZM63.3295 16.18C63.3295 15.3629 63.4986 14.6659 63.8144 14.0657L62.0446 13.1343C61.5605 14.0541 61.3295 15.0771 61.3295 16.18H63.3295ZM63.808 14.0778C64.1446 13.4588 64.5833 12.9883 65.1254 12.6443L64.0537 10.9557C63.2091 11.4917 62.5411 12.2212 62.051 13.1222L63.808 14.0778ZM65.1181 12.6489C65.6521 12.3164 66.2724 12.14 67.0095 12.14V10.14C65.9333 10.14 64.9403 10.4036 64.061 10.9511L65.1181 12.6489ZM67.0095 12.14C67.565 12.14 68.0254 12.2512 68.4137 12.45L69.3254 10.67C68.6204 10.3088 67.8408 10.14 67.0095 10.14V12.14ZM68.4223 12.4544C68.8301 12.6583 69.1408 12.935 69.3741 13.2896L71.0449 12.1904C70.6116 11.5317 70.0289 11.0217 69.3167 10.6656L68.4223 12.4544ZM69.3913 13.3149C69.6234 13.6453 69.7516 14.0189 69.7704 14.4625L71.7686 14.3775C71.7342 13.5678 71.489 12.8214 71.0277 12.1651L69.3913 13.3149ZM69.7695 14.42V17.86H71.7695V14.42H69.7695ZM69.7704 17.8175C69.7512 18.2699 69.6245 18.6602 69.3941 19.0104L71.0649 20.1096C71.5012 19.4465 71.7345 18.7034 71.7686 17.9025L69.7704 17.8175ZM69.3941 19.0104C69.1581 19.3692 68.8418 19.6561 68.4255 19.8742L69.3535 21.6458C70.0572 21.2772 70.6343 20.7642 71.0649 20.1096L69.3941 19.0104ZM68.4255 19.8742C68.0222 20.0854 67.5572 20.2 67.0095 20.2V22.2C67.8485 22.2 68.6369 22.0212 69.3535 21.6458L68.4255 19.8742ZM67.4495 19.78C68.0899 19.78 68.6993 19.6403 69.2393 19.3203L68.2197 17.5997C68.0397 17.7064 67.7959 17.78 67.4495 17.78V19.78ZM69.2485 19.3148C69.7784 18.9931 70.193 18.5499 70.4777 17.9994L68.7013 17.0806C68.586 17.3035 68.4274 17.4736 68.2106 17.6052L69.2485 19.3148ZM70.4719 18.0106C70.7732 17.4457 70.9095 16.8198 70.9095 16.16H68.9095C68.9095 16.5402 68.8326 16.8343 68.7072 17.0694L70.4719 18.0106ZM70.9095 16.16C70.9095 15.5095 70.7714 14.8921 70.4651 14.3369L68.714 15.3031C68.8343 15.5212 68.9095 15.7971 68.9095 16.16H70.9095ZM70.484 14.3728C70.1994 13.8037 69.7775 13.3471 69.2257 13.0318L68.2334 14.7682C68.4282 14.8796 68.5797 15.0363 68.6951 15.2672L70.484 14.3728ZM69.2623 13.0538C68.723 12.7142 68.1132 12.56 67.4695 12.56V14.56C67.7859 14.56 68.0161 14.6325 68.1967 14.7462L69.2623 13.0538ZM67.4695 12.56C66.8175 12.56 66.1999 12.7117 65.6506 13.0452L66.6885 14.7548C66.8859 14.635 67.1349 14.56 67.4695 14.56V12.56ZM65.6367 13.0538C65.128 13.3741 64.7258 13.808 64.434 14.3369L66.1851 15.3031C66.32 15.0586 66.491 14.8793 66.7023 14.7462L65.6367 13.0538ZM64.4213 14.3606C64.1367 14.9109 64.0095 15.5197 64.0095 16.16H66.0095C66.0095 15.787 66.0824 15.5025 66.1977 15.2794L64.4213 14.3606ZM64.0095 16.16C64.0095 16.81 64.1352 17.4274 64.4151 17.9872L66.204 17.0928C66.0839 16.8526 66.0095 16.55 66.0095 16.16H64.0095ZM64.434 18.0231C64.7307 18.5609 65.1462 18.9964 65.6706 19.3148L66.7085 17.6052C66.4862 17.4702 66.3151 17.2925 66.1851 17.0569L64.434 18.0231ZM65.6934 19.3282C66.2306 19.6352 66.8241 19.78 67.4495 19.78V17.78C67.1416 17.78 66.8952 17.7115 66.6857 17.5918L65.6934 19.3282ZM72.3695 20H69.7695V22H72.3695V20ZM70.7695 21V18.4H68.7695V21H70.7695ZM70.7541 18.5752L71.1741 16.2152L69.205 15.8648L68.785 18.2248L70.7541 18.5752ZM71.172 15.8537L70.732 13.5337L68.767 13.9063L69.207 16.2263L71.172 15.8537ZM70.7495 13.72V6.54H68.7495V13.72H70.7495ZM69.7495 7.54H72.3695V5.54H69.7495V7.54ZM71.3695 6.54V21H73.3695V6.54H71.3695ZM73.9673 21H72.9673V22H73.9673V21ZM73.9673 6.94V5.94H72.9673V6.94H73.9673ZM75.8873 6.94L76.7353 6.41L76.4416 5.94H75.8873V6.94ZM81.5873 16.06V17.06H83.3916L82.4353 15.53L81.5873 16.06ZM80.4873 16.06L79.6385 15.5313L78.6865 17.06H80.4873V16.06ZM86.1673 6.94V5.94H85.6121L85.3185 6.41134L86.1673 6.94ZM88.0873 6.94H89.0873V5.94H88.0873V6.94ZM88.0873 21V22H89.0873V21H88.0873ZM85.3873 21H84.3873V22H85.3873V21ZM85.3873 11.6L85.6814 10.6442L84.3873 10.246V11.6H85.3873ZM85.9073 11.76L86.7562 12.2886L87.4427 11.1861L86.2014 10.8042L85.9073 11.76ZM81.9473 18.12V19.12H82.5027L82.7962 18.6486L81.9473 18.12ZM80.1073 18.12L79.2584 18.6486L79.552 19.12H80.1073V18.12ZM76.1473 11.76L75.8633 10.8012L74.6046 11.1741L75.2984 12.2886L76.1473 11.76ZM76.6873 11.6H77.6873V10.2607L76.4033 10.6412L76.6873 11.6ZM76.6873 21V22H77.6873V21H76.6873ZM74.9673 21V6.94H72.9673V21H74.9673ZM73.9673 7.94H75.8873V5.94H73.9673V7.94ZM75.0393 7.47L80.7393 16.59L82.4353 15.53L76.7353 6.41L75.0393 7.47ZM81.5873 15.06H80.4873V17.06H81.5873V15.06ZM81.3362 16.5887L87.0162 7.46866L85.3185 6.41134L79.6385 15.5313L81.3362 16.5887ZM86.1673 7.94H88.0873V5.94H86.1673V7.94ZM87.0873 6.94V21H89.0873V6.94H87.0873ZM88.0873 20H85.3873V22H88.0873V20ZM86.3873 21V11.6H84.3873V21H86.3873ZM85.0933 12.5558L85.6133 12.7158L86.2014 10.8042L85.6814 10.6442L85.0933 12.5558ZM85.0584 11.2314L81.0984 17.5914L82.7962 18.6486L86.7562 12.2886L85.0584 11.2314ZM81.9473 17.12H80.1073V19.12H81.9473V17.12ZM80.9562 17.5914L76.9962 11.2314L75.2984 12.2886L79.2584 18.6486L80.9562 17.5914ZM76.4314 12.7188L76.9714 12.5588L76.4033 10.6412L75.8633 10.8012L76.4314 12.7188ZM75.6873 11.6V21H77.6873V11.6H75.6873ZM76.6873 20H73.9673V22H76.6873V20ZM89.6795 21H88.6795V22H89.6795V21ZM89.6795 11.34V10.34H88.6795V11.34H89.6795ZM92.2995 11.34H93.2995V10.34H92.2995V11.34ZM92.2995 21V22H93.2995V21H92.2995ZM92.2995 15.66L91.7448 16.4921L93.2995 17.5285V15.66H92.2995ZM91.2795 14.98L90.2846 14.8794L90.2241 15.4782L90.7248 15.812L91.2795 14.98ZM92.3195 12.18L93.0841 12.8246L93.0902 12.8173L92.3195 12.18ZM96.0595 11.38L95.6656 12.2991L95.6797 12.3052L95.6939 12.3108L96.0595 11.38ZM97.0795 12.12L97.8331 12.7774L98.4106 12.1154L97.8285 11.4574L97.0795 12.12ZM95.4395 14L94.7024 14.6757L95.458 15.5L96.1931 14.6574L95.4395 14ZM94.8995 13.64L94.5281 14.5685L94.5382 14.5725L94.5484 14.5763L94.8995 13.64ZM90.6795 21V11.34H88.6795V21H90.6795ZM89.6795 12.34H92.2995V10.34H89.6795V12.34ZM91.2995 11.34V21H93.2995V11.34H91.2995ZM92.2995 20H89.6795V22H92.2995V20ZM92.8542 14.8279L91.8342 14.1479L90.7248 15.812L91.7448 16.4921L92.8542 14.8279ZM92.2745 15.0806C92.381 14.0273 92.6781 13.3061 93.0841 12.8246L91.555 11.5354C90.8143 12.4139 90.4181 13.5593 90.2846 14.8794L92.2745 15.0806ZM93.0902 12.8173C93.4351 12.4001 93.9516 12.14 94.7995 12.14V10.14C93.4874 10.14 92.3506 10.5732 91.5489 11.5427L93.0902 12.8173ZM94.7995 12.14C95.1508 12.14 95.4339 12.1999 95.6656 12.2991L96.4534 10.4609C95.9385 10.2401 95.3816 10.14 94.7995 10.14V12.14ZM95.6939 12.3108C95.8989 12.3913 96.1125 12.5361 96.3305 12.7826L97.8285 11.4574C97.4333 11.0106 96.9669 10.6621 96.4252 10.4492L95.6939 12.3108ZM96.326 11.4626L94.686 13.3426L96.1931 14.6574L97.8331 12.7774L96.326 11.4626ZM96.1767 13.3243C95.9183 13.0424 95.6038 12.8361 95.2507 12.7037L94.5484 14.5763C94.6219 14.6039 94.6674 14.6376 94.7024 14.6757L96.1767 13.3243ZM95.2709 12.7115C94.9284 12.5745 94.5641 12.52 94.1995 12.52V14.52C94.3683 14.52 94.4707 14.5455 94.5281 14.5685L95.2709 12.7115ZM94.1995 12.52C93.4034 12.52 92.6796 12.7857 92.1124 13.3529L93.5266 14.7671C93.6795 14.6143 93.8756 14.52 94.1995 14.52V12.52ZM92.1124 13.3529C91.5058 13.9595 91.2995 14.7986 91.2995 15.66H93.2995C93.2995 15.0814 93.4399 14.8538 93.5266 14.7671L92.1124 13.3529ZM98.4784 21H97.4784V22H98.4784V21ZM98.4784 7.32V6.32H97.4784V7.32H98.4784ZM101.098 7.32H102.098V6.32H101.098V7.32ZM101.098 21V22H102.098V21H101.098ZM96.2184 13.64H95.2184V14.64H96.2184V13.64ZM96.2184 11.34V10.34H95.2184V11.34H96.2184ZM103.358 11.34H104.358V10.34H103.358V11.34ZM103.358 13.64V14.64H104.358V13.64H103.358ZM99.4784 21V7.32H97.4784V21H99.4784ZM98.4784 8.32H101.098V6.32H98.4784V8.32ZM100.098 7.32V21H102.098V7.32H100.098ZM101.098 20H98.4784V22H101.098V20ZM97.2184 13.64V11.34H95.2184V13.64H97.2184ZM96.2184 12.34H103.358V10.34H96.2184V12.34ZM102.358 11.34V13.64H104.358V11.34H102.358ZM103.358 12.64H96.2184V14.64H103.358V12.64Z"/>
</svg>
