<svg width="16" height="16" viewBox="0 0 16 16" fill="none" xmlns="http://www.w3.org/2000/svg">
<g opacity="0.5">
<g clip-path="url(#clip0_202_1286)">
<path d="M6.6665 8.6666C6.95281 9.04935 7.31808 9.36606 7.73754 9.59523C8.157 9.8244 8.62084 9.96068 9.0976 9.99482C9.57437 10.029 10.0529 9.96018 10.5007 9.79312C10.9486 9.62607 11.3552 9.36465 11.6932 9.0266L13.6932 7.0266C14.3004 6.39793 14.6363 5.55592 14.6288 4.68193C14.6212 3.80794 14.2706 2.9719 13.6526 2.35387C13.0345 1.73585 12.1985 1.38528 11.3245 1.37769C10.4505 1.37009 9.60851 1.70608 8.97984 2.31327L7.83317 3.45327" stroke="black" stroke-width="2" stroke-linecap="round" stroke-linejoin="round"/>
<path d="M9.33347 7.33332C9.04716 6.95057 8.68189 6.63387 8.26243 6.40469C7.84297 6.17552 7.37913 6.03924 6.90237 6.0051C6.4256 5.97095 5.94707 6.03974 5.49924 6.2068C5.0514 6.37386 4.64472 6.63527 4.3068 6.97332L2.3068 8.97332C1.69961 9.60199 1.36363 10.444 1.37122 11.318C1.37881 12.192 1.72938 13.028 2.3474 13.646C2.96543 14.2641 3.80147 14.6146 4.67546 14.6222C5.54945 14.6298 6.39146 14.2938 7.02013 13.6867L8.16013 12.5467" stroke="black" stroke-width="2" stroke-linecap="round" stroke-linejoin="round"/>
</g>
</g>
<defs>
<clipPath id="clip0_202_1286">
<rect width="16" height="16" fill="white"/>
</clipPath>
</defs>
</svg>
